<svg width="83" height="83" viewBox="0 0 83 83" fill="none" xmlns="http://www.w3.org/2000/svg">
<circle cx="41.5" cy="41.5" r="41.5" fill="url(#paint0_linear)"/>
<mask id="mask0" mask-type="alpha" maskUnits="userSpaceOnUse" x="0" y="0" width="83" height="83">
<circle cx="41.5" cy="41.5" r="41.5" fill="#C4C4C4"/>
</mask>
<g mask="url(#mask0)">
<g clip-path="url(#clip0)">
<path d="M38.6385 41.1315C37.945 40.9992 37.2433 40.913 36.5381 40.8734C36.7004 40.6008 36.8027 40.2974 36.8382 39.983C36.9947 39.2475 36.8382 38.6926 36.5381 39.312C36.0816 40.3122 35.2554 41.1017 34.2291 41.5186C32.6767 42.2413 28.0585 39.583 28.0585 39.583L27.7846 39.983C27.3671 43.3123 29.9632 43.08 29.9632 43.08C31.2666 43.4243 32.6065 43.6148 33.9551 43.6478C35.4025 43.6177 36.8438 43.4535 38.2601 43.1575C40.5692 42.6026 39.6691 41.338 38.6385 41.1315Z" fill="#FFAD97"/>
<path d="M51.2666 72.0502C51.2666 72.0502 50.4839 72.8889 49.4402 73.8826C48.3966 74.8762 48.1357 75.0827 47.2877 75.9472C46.7659 76.4505 47.1964 76.9151 48.1879 76.8763C49.5206 76.7385 50.8334 76.4528 52.1015 76.0247C53.1298 75.5997 54.1204 75.0903 55.0629 74.502C55.4887 74.255 55.8053 73.859 55.95 73.3922V71.8437L51.2666 72.0502Z" fill="#4D4D4D"/>
<path d="M65.4992 70.6694C65.0404 71.2909 64.5251 71.8697 63.9599 72.3986C63.1826 73.1293 62.4792 73.9332 61.8595 74.7988C61.6639 75.0569 61.5464 75.7795 62.551 75.7408C63.6907 75.6209 64.8094 75.3518 65.8776 74.9407C66.9923 74.356 68.0232 73.6269 68.9433 72.7728C69.4419 72.4006 69.8148 71.8877 70.013 71.3017L69.5042 69.7661L65.4992 70.6694Z" fill="#4D4D4D"/>
<path d="M65.1079 45.5318C65.2771 43.9649 65.1152 42.3803 64.6323 40.8786C64.1495 39.3769 63.3563 37.9909 62.3031 36.8085C62.551 34.8987 53.5626 37.5828 53.5626 37.5828C53.5626 37.5828 51.6449 47.9062 50.8361 53.3002C49.9098 59.4685 50.4708 72.0243 50.4708 72.0243C50.4708 72.0243 50.5882 73.3148 52.9103 73.3148C54.1058 73.2178 55.2155 72.662 56.0021 71.7662L56.1848 57.4812L58.246 47.3513C58.246 47.3513 60.2289 55.5843 60.8551 58.5394C61.4812 61.4944 64.0904 70.9791 64.0904 70.9791C64.5376 71.4981 65.1402 71.8628 65.811 72.0206C66.4817 72.1783 67.1858 72.1209 67.8214 71.8566C69.8826 70.8371 69.4782 69.6887 69.4782 69.6887C69.1258 65.3873 68.0913 61.1676 66.4125 57.1844C66.2037 52.784 64.9383 48.1385 65.1079 45.5318Z" fill="#5D588D"/>
<path d="M54.802 22.6913C54.802 22.6913 53.4974 22.6268 52.1928 25.0915C50.8883 27.5562 49.5837 30.1758 49.5837 30.1758C51.1064 30.525 52.5016 31.2842 53.6148 32.3695C56.4979 29.8016 56.9675 23.9043 54.802 22.6913Z" fill="#D1406B"/>
<path d="M54.802 22.6913C54.2025 23.9304 53.7347 25.2278 53.4061 26.5626C52.7408 29.0789 52.9887 40.7573 52.9887 40.7573C55.1908 42.052 57.7633 42.5918 60.3072 42.2929C61.8719 42.1997 63.3437 41.5271 64.4296 40.4089C64.4296 40.4089 66.0603 28.9757 65.8777 27.3368C65.695 25.698 62.1466 21.8396 62.1466 21.8396C59.6673 21.7097 57.1837 21.9977 54.802 22.6913Z" fill="#EF4F77"/>
<path d="M57.9329 21.0912L57.398 24.1624C57.398 24.1624 58.9896 25.9174 60.5289 24.6012C62.0683 23.2849 62.3031 22.6913 62.3031 22.6913L61.5334 18.4974L57.9329 21.0912Z" fill="#FFAD97"/>
<path d="M58.6113 29.7886C59.5638 28.2967 60.7788 26.9855 62.1988 25.9174C62.9445 25.5038 63.7431 25.1913 64.5731 24.9882C64.5731 24.9882 63.9991 23.814 63.6077 23.6978C62.7115 23.8723 61.857 24.2139 61.0899 24.7043C59.6121 25.592 58.376 26.8235 57.4893 28.2917C56.2891 30.4597 57.6981 31.0533 58.6113 29.7886Z" fill="#5D588D"/>
<path d="M55.4412 22.4203C54.8037 23.883 54.3143 25.4045 53.9801 26.9626C53.8235 28.4466 54.1105 28.8982 54.7106 28.9499C55.3107 29.0015 55.3498 27.9562 55.5325 26.769C55.7151 25.5818 56.837 22.0203 56.837 22.0203L55.4412 22.4203Z" fill="#5D588D"/>
<path d="M64.6513 38.8087C63.8233 39.4455 62.804 39.7907 61.7552 39.7895C60.4507 39.6604 58.6634 38.499 58.7547 34.4729C58.7649 32.537 58.9219 30.6045 59.2244 28.6918L54.3845 26.5884C53.3783 29.4613 52.8539 32.4777 52.8321 35.5181C52.5711 41.4154 52.4537 43.4543 52.4537 43.4543C55.195 43.6223 57.9442 43.6223 60.6855 43.4543C62.1455 43.3424 63.5939 43.1137 65.0166 42.7703L64.6513 38.8087Z" fill="#5D588D"/>
<path d="M54.9194 27.6723C54.9194 27.9175 54.7889 28.1111 54.6193 28.1111C54.4497 28.1111 54.3062 27.9175 54.3062 27.6723C54.3062 27.4271 54.4497 27.2336 54.6193 27.2336C54.7889 27.2336 54.9194 27.4401 54.9194 27.6723Z" fill="white"/>
<path d="M57.8155 29.066C57.6719 29.2596 57.6719 29.5047 57.8155 29.5951C57.959 29.6854 58.1807 29.5951 58.3242 29.4273C58.4677 29.2595 58.4677 28.9886 58.3242 28.8853C58.1807 28.7821 57.959 28.8208 57.8155 29.066Z" fill="white"/>
<path d="M53.967 29.5951C53.7713 30.5758 53.8757 33.6987 55.6629 34.1632C57.4501 34.6278 57.698 32.705 58.0763 31.2468C56.6384 30.8793 55.2565 30.3238 53.967 29.5951Z" fill="#7C76AC"/>
<path d="M60.1246 13.8906C59.658 13.5468 59.1139 13.3203 58.5391 13.2308C57.9644 13.1414 57.3763 13.1915 56.8255 13.3769C56.2747 13.5623 55.7777 13.8775 55.3775 14.2952C54.9772 14.7129 54.6857 15.2206 54.528 15.7746C53.3278 19.1297 56.3935 23.3236 58.0503 22.6139C59.5861 21.8722 60.7898 20.5943 61.4291 19.0265C61.6843 18.1323 61.6982 17.1876 61.4693 16.2864C61.2404 15.3853 60.7767 14.5593 60.1246 13.8906Z" fill="#FFC5B3"/>
<path d="M47.4834 50.4096V38.2409L57.398 33.3502V44.835L47.4834 50.4096Z" fill="#DBA763"/>
<path d="M47.4833 50.4096V38.2409L37.5687 33.3502V44.835L47.4833 50.4096Z" fill="#E8B679"/>
<path d="M47.4964 50.5129L47.4834 38.2409L57.398 32.5759V44.835L47.4964 50.5129Z" fill="#DBA763"/>
<path d="M47.4964 50.5129L47.4833 38.2409L37.5687 32.5759V44.835L47.4964 50.5129Z" fill="#E8B679"/>
<path d="M37.5687 32.5759L47.4833 38.2409L57.3979 32.5759L47.4964 26.898L37.5687 32.5759Z" fill="#FFE1C0"/>
<path d="M53.7191 38.2538L51.5014 39.5185V35.944L53.7191 34.6664V38.2538Z" fill="#4D4D4D"/>
<path d="M53.7192 34.6664L43.8176 29.0015L41.5999 30.2661L51.5014 35.944L53.7192 34.6664Z" fill="#6D6D6D"/>
<path d="M48.801 48.758V48.1257L52.1276 46.2158V46.861L48.801 48.758Z" fill="#4D4D4D"/>
<path d="M48.801 47.6353V47.003L52.1276 45.0931V45.7254L48.801 47.6353Z" fill="#4D4D4D"/>
<path d="M55.1151 43.0413V45.2222L56.7066 44.3188V42.1251L55.1151 43.0413Z" fill="#4D4D4D"/>
<path d="M39.7604 42.809V45.0931L38.1558 44.1769V41.8928L39.7604 42.809Z" fill="#4D4D4D"/>
<path d="M41.926 44.0479V46.3319L40.3344 45.4286V43.1446L41.926 44.0479Z" fill="#4D4D4D"/>
<path d="M41.4303 36.1375V39.4152L38.1558 37.5441V34.2664L41.4303 36.1375Z" fill="white"/>
<path d="M41.0389 36.8085V36.2794L38.4559 34.8083V35.3374L41.0389 36.8085Z" fill="#4D4D4D"/>
<path d="M59.8506 33.2857C59.8506 33.2857 57.972 37.157 57.2415 38.2797C55.8695 39.7625 54.3286 41.0833 52.6494 42.2155C51.7479 42.6754 50.7541 42.9311 49.7403 42.9639C48.9576 42.8865 48.4357 43.2607 49.1793 43.5446C49.6568 43.7121 50.151 43.8289 50.6535 43.893C49.9338 44.4162 49.2926 45.0375 48.7488 45.7383C48.3183 46.4223 47.953 47.674 49.6359 47.3127C50.9405 47.0159 52.8712 44.9641 53.3669 44.4995C54.2932 43.635 57.9981 41.6606 58.833 41.067C60.0202 40.2411 63.3729 35.3504 63.3729 35.3504C63.3729 35.3504 62.3031 32.7696 59.8506 33.2857Z" fill="#FFC5B3"/>
<path d="M65.2514 25.9302C64.273 25.143 62.1857 27.7755 61.0899 29.4143C60.2863 30.7076 59.6176 32.0782 59.0939 33.505C59.0939 33.505 60.3985 34.4728 61.6117 35.2084C62.274 35.6179 62.9625 35.9843 63.6729 36.3052C63.6729 36.3052 68.5911 28.5885 65.2514 25.9302Z" fill="#D1406B"/>
<path d="M54.254 16.8457C54.6246 17.2428 55.0957 17.5347 55.6187 17.6913C56.1416 17.8478 56.6973 17.8633 57.2284 17.736C58.044 17.6006 58.827 17.3161 59.5374 16.8973L59.8114 18.7426C59.9772 18.7092 60.136 18.6481 60.281 18.5619C60.281 17.8651 60.568 17.6457 60.9594 17.8522C61.3507 18.0587 61.416 19.1426 61.416 19.1426C61.82 18.7075 62.1116 18.1822 62.2661 17.6114C62.4206 17.0407 62.4333 16.4415 62.3031 15.8649C61.9639 14.4971 60.3201 12.0324 57.9328 12.2904C57.0174 12.3205 56.1343 12.6327 55.4069 13.1833C54.6796 13.7339 54.1442 14.4955 53.8756 15.3617C53.8152 15.621 53.818 15.8908 53.8838 16.1488C53.9495 16.4069 54.0764 16.6457 54.254 16.8457Z" fill="#4D4D4D"/>
<path d="M53.7713 15.2971C53.7713 15.2971 50.7187 17.4521 50.2229 17.878C49.7272 18.3038 52.6364 20.2911 54.7106 19.633C56.565 18.8667 58.3174 17.8786 59.9288 16.6908L53.7713 15.2971Z" fill="#5D588D"/>
<path d="M53.7714 15.2971C53.7714 15.2971 57.2545 17.4521 59.4331 16.8327C60.4212 16.6298 61.3604 16.2399 62.1988 15.6843C62.1988 15.6843 61.964 11.1807 58.0503 11.1807C54.1366 11.1807 53.7714 15.2971 53.7714 15.2971Z" fill="#7C76AC"/>
<path d="M58.1938 11.3226C58.1938 11.5033 57.9198 11.6581 57.5937 11.6581C57.2676 11.6581 56.9936 11.5033 56.9936 11.3226C56.9936 11.1419 57.2545 11 57.5937 11C57.9329 11 58.1938 11.1419 58.1938 11.3226Z" fill="#5D588D"/>
<path d="M23.4274 84.6576C24.5885 84.0899 25.6843 83.3672 25.3321 82.7349C25.2308 82.5927 25.0985 82.4747 24.9449 82.3899C24.7914 82.305 24.6205 82.2553 24.445 82.2445C23.3752 82.593 22.8404 82.8252 22.8404 82.8252C22.8806 79.9268 23.0722 77.0324 23.4144 74.1536C23.5709 73.3148 19.5007 73.2761 19.5007 73.2761C19.2819 76.2358 19.2819 79.2074 19.5007 82.1671C19.5867 82.9131 19.5867 83.6664 19.5007 84.4125L20.8053 84.9673C21.2389 85.1069 21.698 85.1515 22.1508 85.098C22.6036 85.0445 23.0392 84.8943 23.4274 84.6576Z" fill="#FFC5B3"/>
<path d="M19.4224 86.09C19.8138 87.0062 20.727 86.9159 22.5142 86.2707C23.9622 85.79 25.3296 85.0985 26.5714 84.2189C27.7064 83.393 27.7194 83.2769 27.876 82.7091C28.0847 81.9219 26.9236 81.4187 24.9798 82.0768L24.445 82.2446C24.6205 82.2553 24.7914 82.305 24.9449 82.3899C25.0985 82.4748 25.2308 82.5927 25.3321 82.7349C25.6843 83.3801 24.5885 84.0253 23.4274 84.6577C23.031 84.9039 22.5841 85.0595 22.1191 85.1131C21.6542 85.1667 21.183 85.1169 20.74 84.9674L19.4355 84.4125C19.3572 85.1867 19.1876 85.5351 19.4224 86.09Z" fill="#4D4D4D"/>
<path d="M29.0631 87.8966C30.2241 87.3288 31.3199 86.6061 30.9677 85.9738C30.8678 85.8332 30.7375 85.7163 30.5864 85.6315C30.4352 85.5467 30.2669 85.4961 30.0937 85.4835C29.0239 85.8319 28.4891 86.0642 28.4891 86.0642C28.4891 86.0642 28.7761 76.4376 29.2457 73.8954C29.3892 73.0566 25.332 74.3084 25.332 74.3084C25.0404 78.0004 24.9838 81.707 25.1624 85.406C25.2548 86.1517 25.2548 86.9057 25.1624 87.6514L26.467 88.2063C26.8978 88.3354 27.351 88.3745 27.7979 88.3212C28.2448 88.2679 28.6756 88.1233 29.0631 87.8966Z" fill="#FFC5B3"/>
<path d="M24.8233 22.4847C25.306 22.8203 27.0932 23.2203 27.589 27.1174C28.0325 30.5757 27.2628 31.479 26.5584 31.7629C25.9706 31.8821 25.3709 31.9341 24.7711 31.9178V34.8341C23.6757 35.2286 22.4747 35.2286 21.3793 34.8341L19.7747 34.2276C20.2283 33.2881 20.4175 32.245 20.3226 31.208C20.1791 28.8466 19.3311 25.4656 19.9312 24.2139C20.1107 23.7604 20.3864 23.3503 20.7397 23.0111C21.093 22.672 21.5157 22.4117 21.9793 22.2478C22.443 22.0839 22.9367 22.0203 23.4273 22.0612C23.9179 22.102 24.3939 22.2465 24.8233 22.4847Z" fill="#FFC5B3"/>
<path d="M18.9136 32.3308C18.9136 32.3308 23.6231 33.6212 24.8363 34.0858C26.0495 34.5503 26.8845 35.2343 28.0716 37.5958C29.2587 39.9572 28.3847 43.5317 28.3847 43.5317L28.0194 49.9839C28.0194 49.9839 25.5408 52.9389 23.3491 53.1454C20.3486 53.4293 20.0225 51.855 20.0225 51.855C20.0225 51.855 16.2002 43.5317 16.8263 39.5959C17.2743 37.1112 17.9736 34.6772 18.9136 32.3308Z" fill="#8EF9A6"/>
<path d="M27.7194 25.7883C27.5889 27.0787 26.4801 27.5174 25.4886 28.5369C24.7702 29.5118 24.3044 30.6461 24.1319 31.8404C23.8318 32.7566 24.2493 36.8214 22.736 39.8926C22.0564 41.6183 20.7553 43.034 19.0833 43.8672C17.2277 40.9007 15.9037 37.6397 15.1696 34.2277C14.152 28.9498 17.7787 22.0847 21.8098 21.246C26.0235 20.3685 28.0455 23.0397 27.7194 25.7883Z" fill="#4D4D4D"/>
<path d="M26.9758 36.2536C25.9974 36.1633 24.9798 37.9183 25.0842 40.1249C25.2146 42.9381 31.1243 47.7126 31.1243 47.7126C33.1202 48.8869 39.1603 47.1578 40.5953 46.99C42.0303 46.8222 43.7132 47.2997 44.6134 47.0674C45.5135 46.8352 46.6746 45.4544 46.0875 45.0027C45.0505 44.7256 43.9782 44.5995 42.9044 44.6285C43.123 44.1561 43.2934 43.6633 43.4132 43.1574C43.4132 41.867 42.787 43.3123 41.939 43.9962C41.2731 44.5431 40.4427 44.8562 39.5778 44.8866C37.1969 45.1959 34.7805 45.1086 32.4288 44.6285C32.4288 44.6285 28.8413 36.4343 26.9758 36.2536Z" fill="#FFC5B3"/>
<path d="M22.2403 21.1686C22.2403 21.1686 26.0757 21.4783 25.7756 24.7689C25.4756 28.0595 25.4365 28.5369 25.4365 28.5369C25.4365 28.5369 26.154 26.5884 26.5062 25.0915C26.8584 23.5946 26.4279 20.162 22.2403 21.1686Z" fill="#8EF9A6"/>
<path d="M26.5583 27.6981C26.5583 27.6981 25.5147 25.9432 25.0711 27.6981C24.9389 28.1233 24.9712 28.582 25.1616 28.985C25.3521 29.388 25.6871 29.7066 26.1017 29.879L26.5583 27.6981Z" fill="#FFC5B3"/>
<path d="M19.7225 48.6031C19.0212 50.6584 18.4418 52.7524 17.9874 54.8746C16.9829 60.6428 17.309 73.3406 17.309 73.3406C17.309 73.3406 22.5273 76.3086 26.193 76.0763C31.4895 75.715 33.068 73.3406 33.068 73.3406C33.068 73.3406 30.9286 61.0557 30.5633 58.4361C30.0132 54.9576 29.0181 51.5623 27.602 48.3321L19.7225 48.6031Z" fill="#8EF9A6"/>
<path d="M18.9136 51.1452C20.8727 51.8134 22.9784 51.9427 25.0059 51.5194C26.1694 51.177 27.2932 50.7142 28.3586 50.1386L28.0455 48.6934C26.6422 49.2714 25.1687 49.6661 23.6622 49.8677C22.0497 50.0464 20.4176 49.8247 18.9136 49.2224V51.1452Z" fill="#3EB459"/>
</g>
</g>
<defs>
<linearGradient id="paint0_linear" x1="41.5" y1="0" x2="41.5" y2="83" gradientUnits="userSpaceOnUse">
<stop stop-color="#BBFFCA"/>
<stop offset="1" stop-color="#46CB63"/>
</linearGradient>
<clipPath id="clip0">
<rect x="15" y="11" width="55" height="79" fill="white"/>
</clipPath>
</defs>
</svg>
