<svg width="187" height="187" viewBox="0 0 187 187" fill="none" xmlns="http://www.w3.org/2000/svg">
<circle cx="93.5" cy="93.5" r="93.5" fill="url(#paint0_linear)"/>
<mask id="mask0" mask-type="alpha" maskUnits="userSpaceOnUse" x="0" y="0" width="187" height="187">
<circle cx="93.5" cy="93.5" r="93.5" fill="#C4C4C4"/>
</mask>
<g mask="url(#mask0)">
<g clip-path="url(#clip0)">
<path d="M135.238 158.599C135.238 158.599 133.56 160.453 131.313 162.65L126.649 167.158C125.511 168.271 126.45 169.27 128.611 169.213C131.517 168.913 134.38 168.281 137.143 167.329C139.366 166.399 141.506 165.283 143.542 163.991C144.452 163.445 145.13 162.582 145.447 161.566V158.171L135.238 158.599Z" fill="#4D4D4D"/>
<path d="M166.009 155.603C165.011 156.953 163.898 158.214 162.681 159.369C161.009 160.958 159.494 162.707 158.16 164.59C157.733 165.133 157.477 166.73 159.638 166.645C162.091 166.373 164.5 165.789 166.805 164.904C169.212 163.613 171.439 162.011 173.431 160.139C174.456 159.323 175.217 158.221 175.621 156.972L174.512 153.606L166.009 155.603Z" fill="#4D4D4D"/>
<path d="M165.155 100.479C165.511 97.0588 165.157 93.602 164.114 90.3265C163.072 87.051 161.364 84.0278 159.098 81.4478C159.638 77.2536 140.243 83.1312 140.243 83.1312C140.243 83.1312 136.062 105.729 134.327 117.598C132.308 131.122 133.531 158.656 133.531 158.656C133.531 158.656 133.787 161.509 138.792 161.509C141.377 161.296 143.775 160.078 145.476 158.114L145.874 126.728L150.339 104.673C150.339 104.673 154.633 122.705 156.026 129.182C157.477 136.087 163.023 156.487 163.023 156.487C163.993 157.614 165.295 158.403 166.741 158.742C168.187 159.08 169.703 158.95 171.071 158.37C175.536 156.145 174.654 153.634 174.654 153.634C173.908 144.212 171.681 134.967 168.056 126.243C167.544 116.371 164.786 106.214 165.155 100.479Z" fill="#5D588D"/>
<path d="M142.888 50.462C142.888 50.462 140.044 50.3194 137.2 55.7405C134.356 61.1616 131.512 66.8965 131.512 66.8965C134.811 67.6466 137.835 69.3069 140.243 71.6899C146.556 65.9835 147.58 53.0299 142.888 50.462Z" fill="#D1406B"/>
<path d="M142.888 50.4621C141.598 53.2032 140.597 56.072 139.902 59.0217C138.451 64.5284 138.963 90.1502 138.963 90.1502C143.729 92.9963 149.295 94.1894 154.804 93.5455C158.189 93.3351 161.369 91.8468 163.705 89.3798C163.705 89.3798 167.232 64.2716 166.748 60.6766C166.265 57.0815 158.785 48.636 158.785 48.636C153.421 48.3405 148.046 48.9579 142.888 50.4621V50.4621Z" fill="#EF4F77"/>
<path d="M149.685 46.8955L148.519 53.6291C148.519 53.6291 151.931 57.4809 155.287 54.5992C156.828 53.4981 158.125 52.0896 159.098 50.4621L157.449 41.2747L149.685 46.8955Z" fill="#FFAD97"/>
<path d="M151.135 65.9835C153.202 62.7611 155.821 59.9309 158.871 57.6236C160.553 56.653 162.362 55.9231 164.246 55.4551C164.246 55.4551 162.994 52.8872 162.17 52.6019C160.232 53.0124 158.383 53.766 156.709 54.8274C153.521 56.7768 150.848 59.4682 148.917 62.6738C146.101 67.5813 149.144 68.7511 151.135 65.9835Z" fill="#5D588D"/>
<path d="M144.338 49.8343C142.962 53.0387 141.914 56.3751 141.21 59.792C140.868 63.0161 141.494 64.0147 142.802 64.1288C144.111 64.243 144.167 61.9319 144.566 59.364C144.964 56.7961 147.41 48.9498 147.41 48.9498L144.338 49.8343Z" fill="#5D588D"/>
<path d="M164.245 85.7562C162.455 87.1478 160.254 87.9008 157.989 87.8961C155.145 87.6108 151.306 85.0429 151.505 76.2551C151.526 72.003 151.869 67.7586 152.528 63.5583L142.006 59.0217C139.828 65.2885 138.695 71.8725 138.65 78.5091C138.11 91.4341 137.854 95.9137 137.854 95.9137C143.773 96.2848 149.709 96.2848 155.628 95.9137C158.783 95.6667 161.912 95.1609 164.985 94.4015L164.245 85.7562Z" fill="#5D588D"/>
<path d="M143.144 61.3327C143.144 61.8748 142.859 62.3028 142.49 62.3028C142.12 62.3028 141.835 61.8748 141.835 61.3327C141.835 60.7906 142.12 60.3912 142.49 60.3912C142.859 60.3912 143.144 60.8192 143.144 61.3327Z" fill="white"/>
<path d="M149.429 64.2715C149.116 64.6995 149.116 65.2416 149.429 65.4414C149.742 65.6411 150.225 65.4414 150.538 65.0419C150.692 64.8868 150.779 64.6764 150.779 64.457C150.779 64.2376 150.692 64.0273 150.538 63.8721C150.225 63.6724 149.742 63.8436 149.429 64.2715Z" fill="white"/>
<path d="M141.096 65.527C140.669 67.724 140.897 74.5432 144.765 75.5703C148.632 76.5975 149.144 72.3747 149.969 69.1506C146.859 68.3578 143.874 67.1384 141.096 65.527V65.527Z" fill="#7C76AC"/>
<path d="M154.405 31.1172C153.396 30.3618 152.218 29.8643 150.973 29.6675C149.729 29.4708 148.456 29.5808 147.263 29.988C146.07 30.3952 144.995 31.0875 144.128 32.005C143.262 32.9225 142.631 34.0377 142.29 35.2544C139.702 42.6157 146.357 51.803 149.884 50.2337C153.2 48.6101 155.802 45.8163 157.192 42.3874C157.749 40.4282 157.784 38.3571 157.295 36.3798C156.806 34.4026 155.81 32.5883 154.405 31.1172V31.1172Z" fill="#FFC5B3"/>
<path d="M127.104 111.178V84.5009L148.519 73.8014V98.9667L127.104 111.178Z" fill="#DBA763"/>
<path d="M127.104 111.178V84.5009L105.661 73.8014V98.9667L127.104 111.178Z" fill="#E8B679"/>
<path d="M127.104 111.406V84.5007L148.519 72.0607V98.9665L127.104 111.406Z" fill="#DBA763"/>
<path d="M127.104 111.406V84.5007L105.661 72.0607V98.9665L127.104 111.406Z" fill="#E8B679"/>
<path d="M105.661 72.0607L127.104 84.5007L148.519 72.0607L127.104 59.6493L105.661 72.0607Z" fill="#FFE1C0"/>
<path d="M140.556 84.5294L135.778 87.297V79.4507L140.556 76.6545V84.5294Z" fill="#4D4D4D"/>
<path d="M140.556 76.6544L119.141 64.243L114.363 67.0391L135.778 79.4506L140.556 76.6544Z" fill="#6D6D6D"/>
<path d="M129.92 107.555V106.185L137.115 101.991V103.389L129.92 107.555Z" fill="#4D4D4D"/>
<path d="M129.92 105.101V103.703L137.115 99.5086V100.935L129.92 105.101Z" fill="#4D4D4D"/>
<path d="M143.57 95.0007V99.8226L147.011 97.8253V93.0034L143.57 95.0007Z" fill="#4D4D4D"/>
<path d="M110.382 94.5156V99.5087L106.941 97.5114V92.5183L110.382 94.5156Z" fill="#4D4D4D"/>
<path d="M115.074 97.2546V102.248L111.633 100.25V95.2573L115.074 97.2546Z" fill="#4D4D4D"/>
<path d="M113.993 79.9071V87.0687L106.941 82.9886V75.7985L113.993 79.9071Z" fill="white"/>
<path d="M113.14 81.3623V80.1925L107.566 76.9684V78.1382L113.14 81.3623Z" fill="#4D4D4D"/>
<path d="M153.808 73.6301C153.808 73.6301 149.742 82.1897 148.121 84.5864C145.157 87.8082 141.837 90.68 138.224 93.1461C136.273 94.1713 134.112 94.728 131.91 94.7724C130.232 94.6297 129.066 95.4572 130.716 96.0563C131.742 96.444 132.812 96.7028 133.901 96.8267C132.346 97.9693 130.966 99.3344 129.806 100.878C128.867 102.362 128.071 105.13 131.683 104.331C134.527 103.674 138.707 99.1663 139.759 98.1677C141.779 96.2846 149.77 91.9477 151.59 90.6352C154.15 88.8377 161.402 78.1096 161.402 78.1096C161.402 78.1096 159.098 72.4888 153.808 73.6301Z" fill="#FFC5B3"/>
<path d="M165.468 57.5095C163.364 55.7976 158.87 61.5611 156.482 65.1561C154.749 67.9978 153.311 71.0092 152.187 74.1437C152.187 74.1437 155.031 76.2265 157.619 77.8529C159.055 78.746 160.547 79.5465 162.084 80.2496C162.084 80.2496 172.777 63.33 165.468 57.5095Z" fill="#D1406B"/>
<path d="M141.722 37.594C142.517 38.4723 143.535 39.1169 144.667 39.4587C145.799 39.8006 147.003 39.8266 148.149 39.5342C149.906 39.2373 151.593 38.6183 153.126 37.7081L153.723 41.5885C154.085 41.5321 154.433 41.4062 154.747 41.2176C154.747 39.6768 155.344 39.1918 156.197 39.6768C157.05 40.1619 157.193 42.53 157.193 42.53C158.072 41.5792 158.706 40.4266 159.038 39.173C159.37 37.9195 159.391 36.6034 159.098 35.34C158.558 32.4582 154.804 27.0371 149.685 27.6363C147.688 27.7056 145.764 28.4047 144.187 29.6341C142.609 30.8634 141.458 32.5605 140.897 34.484C140.786 35.0311 140.803 35.5964 140.946 36.1359C141.089 36.6754 141.355 37.1744 141.722 37.594Z" fill="#4D4D4D"/>
<path d="M140.669 34.1988C140.669 34.1988 134.072 38.8781 132.934 39.9052C131.796 40.9324 138.167 45.2122 142.66 43.757C146.704 42.0894 150.525 39.9233 154.036 37.3088L140.669 34.1988Z" fill="#5D588D"/>
<path d="M140.669 34.1988C140.669 34.1988 148.206 39.0492 152.87 37.5655C155.011 37.1307 157.042 36.267 158.842 35.0262C158.842 35.0262 158.558 25.1826 149.827 25.1826C141.096 25.1826 140.669 34.1988 140.669 34.1988Z" fill="#7C76AC"/>
<path d="M150.225 25.4964C150.225 25.8959 149.628 26.2097 148.917 26.2097C148.206 26.2097 147.637 25.8959 147.637 25.4964C147.637 25.097 148.206 24.7831 148.917 24.7831C149.628 24.7831 150.225 25.097 150.225 25.4964Z" fill="#5D588D"/>
<path d="M141.437 177.43L90.3606 207.046L91.9532 208.045L143.172 178.371L141.437 177.43Z" fill="#ED8E2F"/>
<path d="M143.172 178.371L91.9531 208.045V215.349L143.172 185.676V178.371Z" fill="#C96A1C"/>
<path d="M84.4168 144.247L33.3116 173.863L34.9042 174.862L86.1516 145.189L84.4168 144.247Z" fill="#ED8E2F"/>
<path d="M86.1516 145.16L34.9043 174.862V182.166L86.1516 152.493V145.16Z" fill="#C96A1C"/>
<path d="M33.3116 181.253V173.863L34.9327 174.862V182.166L33.3116 181.253Z" fill="#D87923"/>
<path d="M112.088 160.025L61.0114 189.642L62.6039 190.64L113.851 160.967L112.088 160.025Z" fill="#ED8E2F"/>
<path d="M113.851 160.938L62.604 190.64V197.944L113.851 168.271V160.938Z" fill="#C96A1C"/>
<path d="M91.9532 205.819L33.3116 171.838V174.206L91.9532 208.187V205.819Z" fill="#D87923"/>
<path d="M98.096 202.367L91.9532 205.819L33.3116 171.837L39.4545 168.414L98.096 202.367Z" fill="#ED8E2F"/>
<path d="M103.386 199.057L44.6021 164.933V167.301L103.386 201.425V199.057Z" fill="#D87923"/>
<path d="M109.529 195.605L103.386 199.057L44.6021 164.933L50.7165 161.509L109.529 195.605Z" fill="#ED8E2F"/>
<path d="M115.103 192.381L56.1483 158.228V160.567L115.103 194.749V192.381Z" fill="#D87923"/>
<path d="M121.246 188.957L115.103 192.381L56.1483 158.228L62.2627 154.775L121.246 188.957Z" fill="#ED8E2F"/>
<path d="M126.507 185.647L67.7231 151.665V154.033L126.507 187.987V185.647Z" fill="#D87923"/>
<path d="M132.678 182.195L126.507 185.647L67.7231 151.665L73.8376 148.242L132.678 182.195Z" fill="#ED8E2F"/>
<path d="M132.678 182.195L126.507 185.647V190.041L132.678 186.446V182.195Z" fill="#C96A1C"/>
<path d="M137.029 179.712L78.1033 145.588V147.956L137.029 182.081V179.712Z" fill="#D87923"/>
<path d="M143.172 176.26L137.029 179.712L78.1033 145.588L84.2177 142.136L143.172 176.26Z" fill="#ED8E2F"/>
<path d="M143.172 176.26L137.029 179.712V184.106L143.172 180.511V176.26Z" fill="#C96A1C"/>
<path d="M65.7891 186.246V167.929L39.3123 152.578V170.867L65.7891 186.246Z" fill="#DBA763"/>
<path d="M65.7892 186.246V167.929L103.926 145.845V164.134L65.7892 186.246Z" fill="#E8B679"/>
<path d="M103.926 145.845L65.7891 167.929L39.3123 152.578L77.4491 130.495L103.926 145.845Z" fill="#FFE1C0"/>
<path d="M49.1523 167.957L55.0677 171.41V161.709L49.1523 158.256V167.957Z" fill="#4D4D4D"/>
<path d="M49.1523 158.256L87.2608 136.172L93.1761 139.625L55.0677 161.709L49.1523 158.256Z" fill="#6D6D6D"/>
<path d="M63.7985 183.222V181.51L54.9255 176.346V178.086L63.7985 183.222Z" fill="#4D4D4D"/>
<path d="M63.7985 180.169V178.457L54.9255 173.293V175.033L63.7985 180.169Z" fill="#4D4D4D"/>
<path d="M98.5796 158.913V165.104L102.817 162.622V156.459L98.5796 158.913Z" fill="#4D4D4D"/>
<path d="M92.7495 162.279V168.471L97.0154 166.017V159.825L92.7495 162.279Z" fill="#4D4D4D"/>
<path d="M86.8911 165.675V171.866L91.1286 169.384V163.221L86.8911 165.675Z" fill="#4D4D4D"/>
<path d="M66.9552 168.699V177.573L75.686 172.522V163.62L66.9552 168.699Z" fill="white"/>
<path d="M68.0076 170.525V169.07L74.8898 165.104V166.502L68.0076 170.525Z" fill="#4D4D4D"/>
<path d="M94.854 203.366L94.8825 185.048L68.3772 169.698V187.958L94.854 203.366Z" fill="#DBA763"/>
<path d="M94.854 203.366L94.8824 185.048L132.991 162.964V181.225L94.854 203.366Z" fill="#E8B679"/>
<path d="M132.991 162.964L94.8825 185.048L68.3772 169.698L106.514 147.614L132.991 162.964Z" fill="#FFE1C0"/>
<path d="M78.2456 185.076L84.1325 188.5V178.799L78.2456 175.376V185.076Z" fill="#4D4D4D"/>
<path d="M78.2456 175.376L116.326 153.292L122.241 156.716L84.1325 178.828L78.2456 175.376Z" fill="#6D6D6D"/>
<path d="M127.644 176.032V182.195L131.91 179.741V173.578L127.644 176.032Z" fill="#4D4D4D"/>
<path d="M121.843 179.398V185.59L126.109 183.108V176.945L121.843 179.398Z" fill="#4D4D4D"/>
<path d="M115.956 182.794V188.985L120.222 186.503V180.34L115.956 182.794Z" fill="#4D4D4D"/>
<path d="M96.02 185.818V194.692L104.779 189.642V180.74L96.02 185.818Z" fill="white"/>
<path d="M97.1007 187.644V186.189L103.983 182.195V183.621L97.1007 187.644Z" fill="#4D4D4D"/>
<path d="M65.7891 166.045V147.728L39.3123 132.378V150.667L65.7891 166.045Z" fill="#DBA763"/>
<path d="M65.7892 166.045V147.728L103.926 125.644V143.905L65.7892 166.045Z" fill="#E8B679"/>
<path d="M103.926 125.644L65.7891 147.728L39.3123 132.378L77.4491 110.294L103.926 125.644Z" fill="#FFE1C0"/>
<path d="M49.1523 147.756L55.0677 151.18V141.479L49.1523 138.055V147.756Z" fill="#4D4D4D"/>
<path d="M49.1523 138.056L87.2608 115.972L93.1761 119.396L55.0677 141.508L49.1523 138.056Z" fill="#6D6D6D"/>
<path d="M63.7985 163.021V161.309L54.9255 156.145V157.857L63.7985 163.021Z" fill="#4D4D4D"/>
<path d="M63.7985 159.968V158.256L54.9255 153.092V154.804L63.7985 159.968Z" fill="#4D4D4D"/>
<path d="M98.5796 138.712V144.875L102.817 142.421V136.23L98.5796 138.712Z" fill="#4D4D4D"/>
<path d="M92.7495 142.079V148.27L97.0154 145.788V139.625L92.7495 142.079Z" fill="#4D4D4D"/>
<path d="M86.8911 145.474V151.665L91.1286 149.183V143.02L86.8911 145.474Z" fill="#4D4D4D"/>
<path d="M66.9552 148.498V157.372L75.686 152.322V143.42L66.9552 148.498Z" fill="white"/>
<path d="M68.0076 150.296V148.869L74.8898 144.875V146.301L68.0076 150.296Z" fill="#4D4D4D"/>
<path d="M94.854 183.165L94.8825 164.847L68.3772 149.468V167.757L94.854 183.165Z" fill="#DBA763"/>
<path d="M94.854 183.165L94.8824 164.847L132.991 142.735V161.024L94.854 183.165Z" fill="#E8B679"/>
<path d="M132.991 142.735L94.8825 164.847L68.3772 149.468L106.514 127.384L132.991 142.735Z" fill="#FFE1C0"/>
<path d="M78.2456 164.876L84.1325 168.299V158.599L78.2456 155.146V164.876Z" fill="#4D4D4D"/>
<path d="M78.2456 155.146L116.326 133.091L122.241 136.515L84.1325 158.627L78.2456 155.146Z" fill="#6D6D6D"/>
<path d="M92.8917 180.14V178.429L83.9902 173.236V174.976L92.8917 180.14Z" fill="#4D4D4D"/>
<path d="M92.8917 177.087V175.347L83.9902 170.183V171.923L92.8917 177.087Z" fill="#4D4D4D"/>
<path d="M127.644 155.831V161.994L131.91 159.54V153.349L127.644 155.831Z" fill="#4D4D4D"/>
<path d="M121.843 159.198V165.389L126.109 162.907V156.716L121.843 159.198Z" fill="#4D4D4D"/>
<path d="M115.956 162.593V168.756L120.222 166.302V160.111L115.956 162.593Z" fill="#4D4D4D"/>
<path d="M96.02 165.617V174.491L104.779 169.412V160.539L96.02 165.617Z" fill="white"/>
<path d="M97.1007 167.415V165.96L103.983 161.994V163.42L97.1007 167.415Z" fill="#4D4D4D"/>
<path d="M93.944 161.252L93.9155 138.284L127.132 119.025V141.936L93.944 161.252Z" fill="#DBA763"/>
<path d="M93.9439 161.252L93.9155 138.284L46.1093 110.551V133.491L93.9439 161.252Z" fill="#E8B679"/>
<path d="M46.1093 110.551L93.9155 138.284L127.132 118.996L79.3262 91.2916L46.1093 110.551Z" fill="#FFE1C0"/>
<path d="M114.79 138.312L107.396 142.621V130.437L114.79 126.129V138.312Z" fill="#4D4D4D"/>
<path d="M114.79 126.129L67.012 98.4529L59.5894 102.733L107.396 130.466L114.79 126.129Z" fill="#6D6D6D"/>
<path d="M96.4182 157.457V155.317L107.566 148.812V150.981L96.4182 157.457Z" fill="#4D4D4D"/>
<path d="M96.4182 153.606V151.466L107.566 144.989V147.157L96.4182 153.606Z" fill="#4D4D4D"/>
<path d="M52.8208 126.957V134.717L47.4742 131.636V123.875L52.8208 126.957Z" fill="#4D4D4D"/>
<path d="M60.1013 131.208V138.94L54.7548 135.859V128.098L60.1013 131.208Z" fill="#4D4D4D"/>
<path d="M67.467 135.431V143.191L62.1489 140.11V132.349L67.467 135.431Z" fill="#4D4D4D"/>
<path d="M92.4936 139.225V150.381L81.5161 144.019V132.863L92.4936 139.225Z" fill="white"/>
<path d="M91.1284 141.508V139.682L82.5114 134.717V136.486L91.1284 141.508Z" fill="#4D4D4D"/>
<path d="M56.8308 136.344V122.877L78.2739 110.437V123.847L56.8308 136.344Z" fill="#DBA763"/>
<path d="M56.8308 136.344V122.876L25.9459 104.987V118.397L56.8308 136.344Z" fill="#E8B679"/>
<path d="M25.9459 105.015L56.8308 122.905L78.274 110.465L47.389 92.5754L25.9459 105.015Z" fill="#FFE1C0"/>
<path d="M58.4235 133.861V132.492L65.6186 128.298V129.696L58.4235 133.861Z" fill="#4D4D4D"/>
<path d="M58.4235 131.408V130.01L65.6186 125.815V127.242L58.4235 131.408Z" fill="#4D4D4D"/>
<path d="M31.2925 110.408V116.656L26.9982 114.174V107.926L31.2925 110.408Z" fill="#4D4D4D"/>
<path d="M37.151 113.832V120.08L32.8567 117.569V111.349L37.151 113.832Z" fill="#4D4D4D"/>
<path d="M55.1529 124.303V131.75L44.1754 125.416V117.94L55.1529 124.303Z" fill="white"/>
<path d="M53.7878 126.586V124.76L45.1708 119.766V121.564L53.7878 126.586Z" fill="#4D4D4D"/>
<path d="M72.8421 120.651L65.4479 124.959V117.912L72.8421 113.575V120.651Z" fill="#4D4D4D"/>
<path d="M72.8421 113.575L42.014 95.6853L34.563 100.022L65.4479 117.912L72.8421 113.575Z" fill="#6D6D6D"/>
<path d="M23.8983 126.243C25.6616 120.195 26.5716 113.518 23.5855 108.61L17.0445 108.782C15.562 112.03 14.4551 115.438 13.7456 118.939C13.3628 120.389 13.3442 121.912 13.6916 123.371C14.039 124.829 14.7416 126.179 15.7363 127.299C17.4426 129.353 23.5286 126.643 23.7561 126.472L23.8983 126.243Z" fill="#FFC5B3"/>
<path d="M42.2132 138.911C42.2132 138.911 48.3276 172.094 48.3276 182.508C48.3276 200.883 48.1854 220.228 48.1854 220.228C46.5912 221.933 44.483 223.066 42.1847 223.452C35.53 223.452 34.8759 220.114 34.8759 220.114C34.8759 220.114 34.8759 198.201 34.1933 188.272C34.0852 179.912 32.8707 171.603 30.5815 163.563C30.5815 171.837 30.5815 174.491 29.8706 183.536C29.3587 190.155 26.6001 207.988 26.4579 209.215C24.3534 211.782 17.9261 213.551 14.5134 209.814C14.7694 206.96 16.5895 186.303 16.362 175.575C16.1629 165.703 13.6887 142.478 19.2059 137.97C24.0974 134.061 42.2132 138.911 42.2132 138.911Z" fill="#5D588D"/>
<path d="M25.2918 117.798C25.1804 115.193 24.8281 112.605 24.2396 110.066L27.5101 99.6799C26.2637 99.0356 24.8415 98.818 23.4603 99.0601C22.0791 99.3022 20.8148 99.9908 19.8599 101.021C17.6798 104.338 15.7773 107.831 14.1721 111.464C15.3386 113.378 16.971 114.964 18.9162 116.072C20.8613 117.18 23.0552 117.774 25.2918 117.798V117.798Z" fill="#ED8E2F"/>
<path d="M34.3924 79.308C33.5996 78.8438 32.7165 78.5563 31.8031 78.4648C30.8897 78.3732 29.9674 78.48 29.0988 78.7777C28.2301 79.0754 27.4355 79.5571 26.7688 80.1902C26.1021 80.8232 25.579 81.5927 25.235 82.4465C24.0974 84.8432 25.69 91.2629 25.9459 95.771C26.1194 97.7278 25.7761 99.696 24.9506 101.477L28.0504 102.761C30.1004 103.5 32.3424 103.5 34.3924 102.761V97.2262C35.7164 97.0312 37.008 96.6569 38.2316 96.1134C39.6536 94.8295 40.393 90.9776 39.7389 85.9845C38.772 78.6803 35.3024 79.9357 34.3924 79.308Z" fill="#FFC5B3"/>
<path d="M42.782 119.11C44.6305 115.173 40.45 108.04 39.284 105.472C38.1208 103.624 36.4104 102.187 34.3924 101.363C32.1398 100.522 29.8421 99.8076 27.5102 99.2234C26.7423 99.2234 24.0406 98.938 24.0406 98.938C24.0406 98.938 18.0968 108.325 17.4427 113.489C16.9877 117.113 18.95 128.925 17.4427 140.566C16.6748 146.729 39.8243 144.989 41.8719 142.478C40.7344 136.657 39.1133 127.128 42.782 119.11Z" fill="#FFA543"/>
<path d="M17.6987 121.792C17.9341 125.922 17.8199 130.065 17.3574 134.175C16.6464 138.683 16.1914 145.845 16.1914 145.845C20.2839 148.899 25.3199 150.404 30.411 150.096C35.0996 149.49 39.5447 147.649 43.2939 144.761C43.2939 144.761 40.7628 131.693 40.905 130.095L41.0472 128.497C39.5691 129.237 37.8836 129.448 36.2694 129.096C34.7579 128.591 33.413 127.681 32.3804 126.464C31.3477 125.247 30.6666 123.769 30.411 122.192C30.0149 117.778 30.0149 113.338 30.411 108.924C30.0413 108.924 20.5995 106.071 20.5995 106.071C18.9658 111.165 17.9909 116.449 17.6987 121.792V121.792Z" fill="#5D588D"/>
<path d="M37.4069 88.0388C37.7766 86.7834 38.6298 83.9017 38.8289 82.7318C39.0403 81.7958 39.0131 80.8214 38.7496 79.8988C38.4862 78.9761 37.995 78.1351 37.3216 77.4534C35.7808 76.4505 34.0333 75.8114 32.2107 75.584C30.3881 75.3567 28.5378 75.5471 26.7991 76.1409C24.5622 77.0366 22.7495 78.7537 21.7298 80.9428C20.7102 83.1319 20.5602 85.6285 21.3103 87.9247C22.6754 94.3729 24.1543 95.0862 25.9744 96.4843C27.3427 97.4639 28.9204 98.1087 30.5815 98.3674C31.6692 97.4402 32.3696 96.1366 32.5438 94.7153C32.5438 93.945 32.5438 91.6053 32.5438 91.6053C32.5438 91.6053 30.8375 88.2385 32.1457 87.0402C33.4539 85.8418 34.9896 87.8106 35.3024 88.6095C36.5537 91.4912 37.6913 92.8607 37.4069 88.0388Z" fill="#4D4D4D"/>
<path d="M68.4624 128.783C63.9309 129.008 59.3907 128.575 54.9823 127.499C52.0035 126.691 49.1373 125.512 46.4505 123.989C45.5005 121.929 44.6743 119.814 43.9763 117.655L35.4446 121.136C35.4446 121.136 37.606 126.842 38.8573 129.524C39.8526 131.636 41.1324 132.035 43.1516 132.777C48.1071 133.749 53.1249 134.369 58.1675 134.632C60.7006 134.989 63.2787 134.854 65.7607 134.232C70.0266 133.205 68.6331 129.952 68.4624 128.783Z" fill="#FFC5B3"/>
<path d="M35.5583 123.618C37.4781 124.1 39.4944 124.029 41.3758 123.414C43.2571 122.798 44.9273 121.662 46.1946 120.137C44.5735 112.662 41.9571 104.673 38.3454 103.36C36.4399 102.733 32.9704 109.409 33.5676 114.174C33.7382 115.515 34.5345 119.253 35.5583 123.618Z" fill="#ED8E2F"/>
<path d="M16.7032 139.425L16.3619 142.706C20.4595 145.529 25.3596 146.941 30.3256 146.729C39.8811 146.958 42.981 143.676 42.981 143.676L42.4122 140.31C38.6351 142.412 34.3891 143.521 30.0696 143.534C25.3171 143.456 20.6832 142.032 16.7032 139.425V139.425Z" fill="#7C76AC"/>
<path d="M27.5101 109.923C28.0802 107.628 29.1268 105.479 30.5816 103.617C31.6137 102.505 32.9487 101.721 34.4208 101.363C34.4208 101.363 36.2694 101.82 36.2694 102.447C34.5956 103.152 33.1488 104.307 32.0888 105.786C31.1845 107.727 30.507 109.766 30.0697 111.863L27.5101 109.923Z" fill="#5D588D"/>
<path d="M23.6707 98.9666C22.2871 101.073 21.2411 103.383 20.5708 105.814C20.0738 107.818 19.6846 109.846 19.4048 111.892L21.2249 112.12C21.2249 112.12 23.0166 105.272 24.0688 102.79C24.5337 101.476 25.0945 100.198 25.7467 98.9666H23.6707Z" fill="#5D588D"/>
<path d="M63.6847 129.781C64.8219 128.836 65.8955 127.816 66.8983 126.728C67.6946 125.787 68.3487 126.044 68.0928 127.099C67.68 128.13 67.1143 129.092 66.4149 129.952L64.026 129.781H63.6847Z" fill="#FFC5B3"/>
<path d="M34.3356 77.6531C38.9996 78.1382 40.8197 81.2196 38.4593 84.5008C36.8754 86.2908 34.895 87.6828 32.6772 88.5649C30.4594 89.447 28.0662 89.7945 25.6901 89.5795C21.0545 89.0945 19.206 86.013 21.5948 82.7318C23.1757 80.9459 25.1515 79.5563 27.364 78.6744C29.5765 77.7924 31.9641 77.4427 34.3356 77.6531V77.6531Z" fill="#7C76AC"/>
<path d="M20.6846 86.4695C20.6846 86.4695 17.8407 76.9968 26.3725 74.1151C32.4016 72.0608 36.9234 74.4575 39.3976 80.6775C40.8196 84.4722 20.6846 86.4695 20.6846 86.4695Z" fill="#7C76AC"/>
<path d="M36.0419 86.812C37.0144 85.9049 37.7626 84.7826 38.2267 83.5343C38.6907 82.2861 38.858 80.9464 38.7151 79.6219C38.3664 78.8268 37.9674 78.0549 37.5207 77.3108C37.5207 77.3108 38.3739 76.8543 41.8435 77.5961C42.5467 77.6168 43.2233 77.8705 43.7677 78.3175C44.312 78.7646 44.6936 79.3799 44.8527 80.0674C45.0119 80.755 44.9397 81.476 44.6474 82.118C44.3551 82.76 43.8591 83.2869 43.237 83.6164C41.1566 85.2915 38.6765 86.393 36.0419 86.812V86.812Z" fill="#5D588D"/>
</g>
</g>
<defs>
<linearGradient id="paint0_linear" x1="93.5" y1="0" x2="93.5" y2="187" gradientUnits="userSpaceOnUse">
<stop stop-color="#BCD7FF"/>
<stop offset="1" stop-color="#5599FF"/>
</linearGradient>
<clipPath id="clip0">
<path d="M13.5181 24.7831H175.735V229.9H13.5181V24.7831Z" fill="white"/>
</clipPath>
</defs>
</svg>
