<svg width="83" height="83" viewBox="0 0 83 83" fill="none" xmlns="http://www.w3.org/2000/svg">
<circle cx="41.5" cy="41.5" r="41.5" fill="url(#paint0_linear)"/>
<mask id="mask0" mask-type="alpha" maskUnits="userSpaceOnUse" x="0" y="0" width="83" height="83">
<circle cx="41.5" cy="41.5" r="41.5" fill="#C4C4C4"/>
</mask>
<g mask="url(#mask0)">
<g clip-path="url(#clip0)">
<path d="M60.0253 70.3941C60.0253 70.3941 59.2805 71.2172 58.2833 72.1923L56.2132 74.1933C55.7083 74.6872 56.1249 75.1304 57.0842 75.1051C58.3741 74.9722 59.6446 74.6918 60.871 74.2692C61.8576 73.8564 62.8077 73.3607 63.7111 72.7876C64.1151 72.545 64.4161 72.1619 64.5568 71.7111V70.2041L60.0253 70.3941Z" fill="#4D4D4D"/>
<path d="M73.6831 69.0643C73.2404 69.6637 72.7462 70.2231 72.2062 70.736C71.4637 71.4412 70.7915 72.2174 70.1992 73.0535C70.0098 73.2941 69.8962 74.0033 70.8556 73.9653C71.9444 73.8449 73.0133 73.5853 74.0365 73.1928C75.1046 72.6196 76.0934 71.9086 76.9776 71.0779C77.4323 70.7154 77.7703 70.2265 77.9495 69.6722L77.4573 68.1779L73.6831 69.0643Z" fill="#4D4D4D"/>
<path d="M73.3043 44.5975C73.4623 43.0796 73.3049 41.5453 72.8422 40.0915C72.3794 38.6376 71.6213 37.2958 70.6157 36.1507C70.8555 34.2891 62.2468 36.8978 62.2468 36.8978C62.2468 36.8978 60.3913 46.9277 59.6213 52.1959C58.7251 58.1986 59.2678 70.4194 59.2678 70.4194C59.2678 70.4194 59.3814 71.6858 61.603 71.6858C62.7501 71.5915 63.8148 71.0506 64.5694 70.1788L64.7461 56.2484L66.7279 46.4591C66.7279 46.4591 68.6339 54.4628 69.2524 57.3375C69.8962 60.4022 72.3576 69.4569 72.3576 69.4569C72.7886 69.9571 73.3664 70.3075 74.0082 70.4576C74.6501 70.6078 75.3228 70.5501 75.9298 70.2927C77.9116 69.3049 77.5203 68.1905 77.5203 68.1905C77.1893 64.0085 76.2009 59.9053 74.5918 56.0331C74.3646 51.6514 73.1402 47.143 73.3043 44.5975Z" fill="#5D588D"/>
<path d="M63.4207 22.3976C63.4207 22.3976 62.1585 22.3342 60.8962 24.7404C59.6339 27.1465 58.3716 29.692 58.3716 29.692C59.8358 30.0249 61.178 30.7619 62.2468 31.8196C65.0491 29.2868 65.5035 23.5373 63.4207 22.3976Z" fill="#D1406B"/>
<path d="M63.4208 22.3976C62.8484 23.6142 62.4042 24.8875 62.0954 26.1968C61.4516 28.6409 61.6789 40.0132 61.6789 40.0132C63.794 41.2764 66.2647 41.806 68.7097 41.5202C70.2122 41.4268 71.6238 40.7662 72.6606 39.6712C72.6606 39.6712 74.2258 28.5269 74.0113 26.9313C73.7967 25.3356 70.4769 21.5871 70.4769 21.5871C68.0961 21.4559 65.7104 21.7299 63.4208 22.3976V22.3976Z" fill="#EF4F77"/>
<path d="M66.4375 20.8146L65.92 23.8033C65.92 23.8033 67.4347 25.513 68.9242 24.2339C69.608 23.7452 70.1839 23.12 70.6156 22.3976L69.8835 18.3198L66.4375 20.8146Z" fill="#FFAD97"/>
<path d="M67.0813 29.2868C67.9988 27.8565 69.1612 26.6003 70.5147 25.5762C71.2614 25.1454 72.0644 24.8214 72.9004 24.6137C72.9004 24.6137 72.345 23.474 71.979 23.3474C71.119 23.5295 70.2983 23.864 69.5554 24.3351C68.1404 25.2004 66.954 26.3949 66.0968 27.8177C64.8471 29.9959 66.1978 30.5152 67.0813 29.2868Z" fill="#5D588D"/>
<path d="M64.0645 22.119C63.4538 23.5413 62.9886 25.0221 62.676 26.5387C62.5245 27.9697 62.8022 28.413 63.3829 28.4636C63.9635 28.5143 63.9888 27.4885 64.1655 26.3487C64.3422 25.209 65.4278 21.7264 65.4278 21.7264L64.0645 22.119Z" fill="#5D588D"/>
<path d="M72.9003 38.0629C72.1057 38.6806 71.1285 39.0148 70.1233 39.0127C68.8611 38.8861 67.157 37.7463 67.2454 33.8458C67.255 31.9585 67.4069 30.0747 67.6998 28.2103L63.0294 26.1968C62.0628 28.9783 61.5596 31.9006 61.5399 34.8463C61.3001 40.5831 61.1865 42.5713 61.1865 42.5713C63.8136 42.736 66.4485 42.736 69.0757 42.5713C70.4759 42.4617 71.8648 42.2372 73.2285 41.9001L72.9003 38.0629Z" fill="#5D588D"/>
<path d="M63.5343 27.2225C63.5343 27.4632 63.4081 27.6531 63.244 27.6531C63.0799 27.6531 62.9537 27.4632 62.9537 27.2225C62.9537 26.9819 63.0799 26.8046 63.244 26.8046C63.4081 26.8046 63.5343 26.9946 63.5343 27.2225Z" fill="white"/>
<path d="M66.324 28.527C66.1851 28.7169 66.1851 28.9575 66.324 29.0462C66.4628 29.1348 66.6774 29.0462 66.8163 28.8689C66.8849 28.8 66.9234 28.7066 66.9234 28.6093C66.9234 28.5119 66.8849 28.4185 66.8163 28.3497C66.6774 28.261 66.4628 28.337 66.324 28.527Z" fill="white"/>
<path d="M62.6255 29.0842C62.4361 30.0593 62.5371 33.086 64.2538 33.5419C65.9705 33.9978 66.1977 32.1235 66.5637 30.6925C65.1835 30.3406 63.8583 29.7994 62.6255 29.0842V29.0842Z" fill="#7C76AC"/>
<path d="M68.5329 13.8114C68.0846 13.4761 67.5618 13.2553 67.0095 13.1679C66.4572 13.0806 65.892 13.1294 65.3627 13.3102C64.8334 13.4909 64.3559 13.7982 63.9714 14.2054C63.5868 14.6127 63.3069 15.1076 63.1556 15.6477C62.0069 18.915 64.9606 22.9928 66.5259 22.2963C67.9976 21.5756 69.1527 20.3356 69.7699 18.8137C70.0168 17.9441 70.0326 17.0248 69.8156 16.1472C69.5985 15.2696 69.1563 14.4643 68.5329 13.8114V13.8114Z" fill="#FFC5B3"/>
<path d="M56.4151 49.3465V37.5057L65.92 32.7567V43.9263L56.4151 49.3465Z" fill="#DBA763"/>
<path d="M56.4152 49.3465V37.5057L46.8976 32.7567V43.9263L56.4152 49.3465Z" fill="#E8B679"/>
<path d="M56.4151 49.4478V37.5057L65.92 31.9842V43.9263L56.4151 49.4478Z" fill="#DBA763"/>
<path d="M56.4152 49.4478V37.5057L46.8976 31.9842V43.9263L56.4152 49.4478Z" fill="#E8B679"/>
<path d="M46.8976 31.9842L56.4152 37.5057L65.9201 31.9842L56.4152 26.4753L46.8976 31.9842Z" fill="#FFE1C0"/>
<path d="M62.3857 37.5184L60.2651 38.7468V35.2642L62.3857 34.0231V37.5184Z" fill="#4D4D4D"/>
<path d="M62.3857 34.023L52.8807 28.5142L50.7601 29.7553L60.265 35.2641L62.3857 34.023Z" fill="#6D6D6D"/>
<path d="M57.6649 47.7382V47.1303L60.8584 45.2687V45.8893L57.6649 47.7382Z" fill="#4D4D4D"/>
<path d="M57.6649 46.649V46.0285L60.8584 44.1669V44.8001L57.6649 46.649Z" fill="#4D4D4D"/>
<path d="M63.7237 42.1661V44.3063L65.251 43.4198V41.2796L63.7237 42.1661Z" fill="#4D4D4D"/>
<path d="M48.9929 41.9507V44.1669L47.4656 43.2805V41.0643L48.9929 41.9507Z" fill="#4D4D4D"/>
<path d="M51.0757 43.1664V45.3826L49.5484 44.4962V42.28L51.0757 43.1664Z" fill="#4D4D4D"/>
<path d="M50.596 35.4668V38.6455L47.4656 36.8345V33.6432L50.596 35.4668Z" fill="white"/>
<path d="M50.2173 36.1127V35.5934L47.7433 34.1624V34.6816L50.2173 36.1127Z" fill="#4D4D4D"/>
<path d="M68.2679 32.6807C68.2679 32.6807 66.4628 36.4799 65.7433 37.5437C64.428 38.9737 62.9542 40.2483 61.3506 41.3429C60.4849 41.798 59.5256 42.0451 58.5484 42.0647C57.8037 42.0014 57.2861 42.3687 58.0182 42.6346C58.4736 42.8067 58.9485 42.9215 59.432 42.9765C58.7418 43.4837 58.1294 44.0896 57.6143 44.7748C57.1978 45.4334 56.8443 46.6618 58.4474 46.3072C59.7097 46.0159 61.5652 44.015 62.0323 43.5718C62.9285 42.7359 66.4755 40.811 67.2833 40.2285C68.4194 39.4306 71.6382 34.669 71.6382 34.669C71.6382 34.669 70.6157 32.1742 68.2679 32.6807Z" fill="#FFC5B3"/>
<path d="M73.4432 25.5255C72.5091 24.7657 70.5147 27.3238 69.4544 28.9195C68.6856 30.1808 68.047 31.5174 67.5484 32.9086C67.5484 32.9086 68.8107 33.8331 69.9593 34.5549C70.5968 34.9514 71.2587 35.3067 71.9411 35.6187C71.9411 35.6187 76.6873 28.109 73.4432 25.5255Z" fill="#D1406B"/>
<path d="M62.9032 16.6861C63.256 17.0759 63.7079 17.3621 64.2104 17.5138C64.713 17.6655 65.2473 17.6771 65.7559 17.5473C66.5356 17.4155 67.2844 17.1407 67.9649 16.7368L68.23 18.4591C68.3906 18.4341 68.5449 18.3782 68.6844 18.2944C68.6844 17.6106 68.9495 17.3953 69.3281 17.6106C69.7068 17.8259 69.7699 18.877 69.7699 18.877C70.1602 18.455 70.4414 17.9433 70.5889 17.387C70.7363 16.8306 70.7455 16.2464 70.6157 15.6857C70.3758 14.4066 68.7096 12.0004 66.4375 12.2664C65.5514 12.2972 64.6975 12.6074 63.9973 13.1531C63.2971 13.6987 62.7861 14.452 62.5371 15.3057C62.488 15.5486 62.4955 15.7995 62.559 16.0389C62.6225 16.2784 62.7403 16.4999 62.9032 16.6861Z" fill="#4D4D4D"/>
<path d="M62.4361 15.1791C62.4361 15.1791 59.5077 17.256 59.0027 17.7119C58.4978 18.1678 61.3253 20.0674 63.3197 19.4216C65.1146 18.6814 66.8106 17.72 68.3688 16.5595L62.4361 15.1791Z" fill="#5D588D"/>
<path d="M62.4362 15.1791C62.4362 15.1791 65.7812 17.332 67.8513 16.6735C68.8015 16.4804 69.703 16.0971 70.5021 15.5464C70.5021 15.5464 70.3759 11.1773 66.5007 11.1773C62.6255 11.1773 62.4362 15.1791 62.4362 15.1791Z" fill="#7C76AC"/>
<path d="M66.6774 11.3166C66.6774 11.4939 66.4123 11.6332 66.0968 11.6332C65.7812 11.6332 65.5287 11.4939 65.5287 11.3166C65.5287 11.1393 65.7812 11 66.0968 11C66.4123 11 66.6774 11.1393 66.6774 11.3166Z" fill="#5D588D"/>
<path d="M62.777 78.7523L40.1066 91.8975L40.8135 92.3407L63.547 79.1702L62.777 78.7523Z" fill="#ED8E2F"/>
<path d="M63.5469 79.1702L40.8134 92.3407V95.5827L63.5469 82.4121V79.1702Z" fill="#C96A1C"/>
<path d="M37.4684 64.024L14.7854 77.1693L15.4923 77.6125L38.2384 64.442L37.4684 64.024Z" fill="#ED8E2F"/>
<path d="M38.2385 64.4293L15.4923 77.6125V80.8544L38.2385 67.6839V64.4293Z" fill="#C96A1C"/>
<path d="M14.7854 80.4492V77.1693L15.5049 77.6125V80.8545L14.7854 80.4492Z" fill="#D87923"/>
<path d="M49.7503 71.0273L27.0799 84.1725L27.7868 84.6157L50.5329 71.4452L49.7503 71.0273Z" fill="#ED8E2F"/>
<path d="M50.5329 71.4325L27.7868 84.6157V87.8577L50.5329 74.6871V71.4325Z" fill="#C96A1C"/>
<path d="M40.8134 91.3529L14.7854 76.2701V77.3212L40.8134 92.404V91.3529Z" fill="#D87923"/>
<path d="M43.54 89.8206L40.8134 91.3529L14.7854 76.2701L17.5119 74.7504L43.54 89.8206Z" fill="#ED8E2F"/>
<path d="M45.8878 88.3516L19.7966 73.2054V74.2566L45.8878 89.4027V88.3516Z" fill="#D87923"/>
<path d="M48.6143 86.8192L45.8878 88.3516L19.7966 73.2055L22.5105 71.6858L48.6143 86.8192Z" fill="#ED8E2F"/>
<path d="M51.0883 85.3882L24.9214 70.2294V71.2679L51.0883 86.4393V85.3882Z" fill="#D87923"/>
<path d="M53.8149 83.8686L51.0883 85.3883L24.9214 70.2295L27.6353 68.6971L53.8149 83.8686Z" fill="#ED8E2F"/>
<path d="M56.1501 82.3995L30.059 67.3167V68.3678L56.1501 83.4379V82.3995Z" fill="#D87923"/>
<path d="M58.8893 80.8672L56.1501 82.3995L30.059 67.3167L32.7728 65.7971L58.8893 80.8672Z" fill="#ED8E2F"/>
<path d="M58.8892 80.8672L56.15 82.3995V84.3498L58.8892 82.7541V80.8672Z" fill="#C96A1C"/>
<path d="M60.8205 79.7654L34.6662 64.6193V65.6704L60.8205 80.8165V79.7654Z" fill="#D87923"/>
<path d="M63.547 78.233L60.8205 79.7654L34.6662 64.6193L37.3801 63.0869L63.547 78.233Z" fill="#ED8E2F"/>
<path d="M63.547 78.233L60.8205 79.7654V81.7156L63.547 80.12V78.233Z" fill="#C96A1C"/>
<path d="M29.2005 82.6655V74.5352L17.4488 67.722V75.8396L29.2005 82.6655Z" fill="#DBA763"/>
<path d="M29.2006 82.6655V74.5352L46.1276 64.7333V72.8509L29.2006 82.6655Z" fill="#E8B679"/>
<path d="M46.1276 64.7333L29.2005 74.5352L17.4488 67.722L34.3759 57.92L46.1276 64.7333Z" fill="#FFE1C0"/>
<path d="M21.8163 74.5479L24.4418 76.0802V71.7745L21.8163 70.2421V74.5479Z" fill="#4D4D4D"/>
<path d="M21.8163 70.2421L38.7307 60.4402L41.3563 61.9725L24.4418 71.7744L21.8163 70.2421Z" fill="#6D6D6D"/>
<path d="M28.317 81.3231V80.5632L24.3787 78.2711V79.0436L28.317 81.3231Z" fill="#4D4D4D"/>
<path d="M28.317 79.968V79.2082L24.3787 76.916V77.6885L28.317 79.968Z" fill="#4D4D4D"/>
<path d="M43.7546 70.5334V73.2815L45.6354 72.1797V69.4443L43.7546 70.5334Z" fill="#4D4D4D"/>
<path d="M41.1669 72.0277V74.7758L43.0603 73.6867V70.9386L41.1669 72.0277Z" fill="#4D4D4D"/>
<path d="M38.5666 73.5347V76.2828L40.4474 75.181V72.4456L38.5666 73.5347Z" fill="#4D4D4D"/>
<path d="M29.7181 74.8771V78.8156L33.5933 76.5741V72.6229L29.7181 74.8771Z" fill="white"/>
<path d="M30.1851 75.6877V75.0418L33.2398 73.2815V73.902L30.1851 75.6877Z" fill="#4D4D4D"/>
<path d="M42.101 90.2639L42.1136 82.1336L30.3492 75.3204V83.4253L42.101 90.2639Z" fill="#DBA763"/>
<path d="M42.101 90.2639L42.1136 82.1336L59.028 72.3317V80.4366L42.101 90.2639Z" fill="#E8B679"/>
<path d="M59.0281 72.3317L42.1136 82.1336L30.3492 75.3204L47.2763 65.5185L59.0281 72.3317Z" fill="#FFE1C0"/>
<path d="M34.7293 82.1462L37.3422 83.6659V79.3601L34.7293 77.8405V82.1462Z" fill="#4D4D4D"/>
<path d="M34.7293 77.8405L51.6311 68.0386L54.2567 69.5583L37.3422 79.3728L34.7293 77.8405Z" fill="#6D6D6D"/>
<path d="M56.655 78.1318V80.8672L58.5484 79.7781V77.0427L56.655 78.1318Z" fill="#4D4D4D"/>
<path d="M54.0799 79.626V82.3741L55.9733 81.2723V78.5369L54.0799 79.626Z" fill="#4D4D4D"/>
<path d="M51.467 81.1331V83.8812L53.3605 82.7794V80.044L51.467 81.1331Z" fill="#4D4D4D"/>
<path d="M42.6185 82.4755V86.414L46.5063 84.1725V80.2213L42.6185 82.4755Z" fill="white"/>
<path d="M43.0981 83.286V82.6401L46.1528 80.8672V81.5004L43.0981 83.286Z" fill="#4D4D4D"/>
<path d="M29.2005 73.6993V65.569L17.4488 58.7558V66.8734L29.2005 73.6993Z" fill="#DBA763"/>
<path d="M29.2006 73.6993V65.5691L46.1276 55.7672V63.8721L29.2006 73.6993Z" fill="#E8B679"/>
<path d="M46.1276 55.7671L29.2005 65.5691L17.4488 58.7558L34.3759 48.9539L46.1276 55.7671Z" fill="#FFE1C0"/>
<path d="M21.8163 65.5817L24.4418 67.1014V62.7956L21.8163 61.2759V65.5817Z" fill="#4D4D4D"/>
<path d="M21.8163 61.2759L38.7307 51.474L41.3563 52.9937L24.4418 62.8083L21.8163 61.2759Z" fill="#6D6D6D"/>
<path d="M28.317 72.357V71.5972L24.3787 69.305V70.0648L28.317 72.357Z" fill="#4D4D4D"/>
<path d="M28.317 71.0019V70.2421L24.3787 67.9499V68.7097L28.317 71.0019Z" fill="#4D4D4D"/>
<path d="M43.7546 61.5673V64.3027L45.6354 63.2136V60.4655L43.7546 61.5673Z" fill="#4D4D4D"/>
<path d="M41.1669 63.0616V65.8097L43.0603 64.708V61.9725L41.1669 63.0616Z" fill="#4D4D4D"/>
<path d="M38.5666 64.5686V67.3167L40.4474 66.2149V63.4795L38.5666 64.5686Z" fill="#4D4D4D"/>
<path d="M29.7181 65.911V69.8495L33.5933 67.608V63.6568L29.7181 65.911Z" fill="white"/>
<path d="M30.1851 66.7088V66.0756L33.2398 64.3027V64.9359L30.1851 66.7088Z" fill="#4D4D4D"/>
<path d="M42.101 81.2977L42.1136 73.1674L30.3492 66.3416V74.4592L42.101 81.2977Z" fill="#DBA763"/>
<path d="M42.101 81.2977L42.1136 73.1674L59.028 63.3528V71.4705L42.101 81.2977Z" fill="#E8B679"/>
<path d="M59.0281 63.3529L42.1136 73.1675L30.3492 66.3416L47.2763 56.5397L59.0281 63.3529Z" fill="#FFE1C0"/>
<path d="M34.7293 73.1801L37.3422 74.6998V70.394L34.7293 68.8617V73.1801Z" fill="#4D4D4D"/>
<path d="M34.7293 68.8616L51.6311 59.0724L54.2567 60.5921L37.3422 70.4067L34.7293 68.8616Z" fill="#6D6D6D"/>
<path d="M41.23 79.9554V79.1955L37.2791 76.8907V77.6632L41.23 79.9554Z" fill="#4D4D4D"/>
<path d="M41.23 78.6003V77.8278L37.2791 75.5356V76.3081L41.23 78.6003Z" fill="#4D4D4D"/>
<path d="M56.655 69.1657V71.9011L58.5484 70.812V68.0639L56.655 69.1657Z" fill="#4D4D4D"/>
<path d="M54.0799 70.66V73.4081L55.9733 72.3063V69.5582L54.0799 70.66Z" fill="#4D4D4D"/>
<path d="M51.467 72.1671V74.9025L53.3605 73.8134V71.0653L51.467 72.1671Z" fill="#4D4D4D"/>
<path d="M42.6185 73.5094V77.4479L46.5063 75.1937V71.2552L42.6185 73.5094Z" fill="white"/>
<path d="M43.0981 74.3072V73.6614L46.1528 71.9011V72.5343L43.0981 74.3072Z" fill="#4D4D4D"/>
<path d="M41.697 71.5719L41.6844 61.3773L56.4277 52.8292V62.9983L41.697 71.5719Z" fill="#DBA763"/>
<path d="M41.697 71.5718L41.6844 61.3773L20.4656 49.0679V59.2498L41.697 71.5718Z" fill="#E8B679"/>
<path d="M20.4656 49.068L41.6844 61.3773L56.4277 52.8165L35.2089 40.5198L20.4656 49.068Z" fill="#FFE1C0"/>
<path d="M50.9495 61.39L47.6676 63.3023V57.8947L50.9495 55.9825V61.39Z" fill="#4D4D4D"/>
<path d="M50.9495 55.9824L29.7433 43.6984L26.4488 45.598L47.6676 57.9074L50.9495 55.9824Z" fill="#6D6D6D"/>
<path d="M42.7952 69.8875V68.9377L47.7433 66.0503V67.0128L42.7952 69.8875Z" fill="#4D4D4D"/>
<path d="M42.7952 68.1779V67.2281L47.7433 64.3533V65.3158L42.7952 68.1779Z" fill="#4D4D4D"/>
<path d="M23.4445 56.3497V59.7943L21.0715 58.4266V54.982L23.4445 56.3497Z" fill="#4D4D4D"/>
<path d="M26.676 58.2366V61.6685L24.3029 60.3008V56.8562L26.676 58.2366Z" fill="#4D4D4D"/>
<path d="M29.9453 60.1109V63.5555L27.5848 62.1878V58.7432L29.9453 60.1109Z" fill="#4D4D4D"/>
<path d="M41.0533 61.7952V66.7468L36.181 63.9227V58.9711L41.0533 61.7952Z" fill="white"/>
<path d="M40.4474 62.8083V61.9978L36.6227 59.7943V60.5795L40.4474 62.8083Z" fill="#4D4D4D"/>
<path d="M25.2244 60.5162V54.5388L34.7419 49.0173V54.9693L25.2244 60.5162Z" fill="#DBA763"/>
<path d="M25.2244 60.5161V54.5387L11.5161 46.5984V52.5505L25.2244 60.5161Z" fill="#E8B679"/>
<path d="M11.5161 46.6111L25.2244 54.5514L34.7419 49.0299L21.0336 41.0896L11.5161 46.6111Z" fill="#FFE1C0"/>
<path d="M25.9313 59.4144V58.8066L29.1249 56.9449V57.5655L25.9313 59.4144Z" fill="#4D4D4D"/>
<path d="M25.9313 58.3253V57.7047L29.1249 55.8431V56.4763L25.9313 58.3253Z" fill="#4D4D4D"/>
<path d="M13.8892 49.0046V51.778L11.9832 50.6762V47.9028L13.8892 49.0046Z" fill="#4D4D4D"/>
<path d="M16.4895 50.5243V53.2977L14.5834 52.1832V49.4225L16.4895 50.5243Z" fill="#4D4D4D"/>
<path d="M24.4797 55.172V58.4773L19.6073 55.6659V52.3479L24.4797 55.172Z" fill="white"/>
<path d="M23.8738 56.1851V55.3746L20.0491 53.1584V53.9563L23.8738 56.1851Z" fill="#4D4D4D"/>
<path d="M32.331 53.5509L29.0491 55.4632V52.3352L32.331 50.4103V53.5509Z" fill="#4D4D4D"/>
<path d="M32.331 50.4103L18.648 42.47L15.3408 44.3949L29.0491 52.3352L32.331 50.4103Z" fill="#6D6D6D"/>
<path d="M10.6073 56.0331C11.3899 53.3483 11.7938 50.3849 10.4684 48.2067L7.5652 48.2827C6.90718 49.7245 6.4159 51.2371 6.10097 52.7911C5.93106 53.4347 5.92284 54.1104 6.07704 54.758C6.23123 55.4055 6.54304 56.0046 6.98456 56.5016C7.74192 57.4134 10.4432 56.2104 10.5442 56.1344L10.6073 56.0331Z" fill="#FFC5B3"/>
<path d="M18.7363 61.6559C18.7363 61.6559 21.4502 76.3841 21.4502 81.0064C21.4502 89.162 21.3871 97.7482 21.3871 97.7482C20.6795 98.5051 19.7438 99.0078 18.7237 99.1792C15.77 99.1792 15.4796 97.6976 15.4796 97.6976C15.4796 97.6976 15.4796 87.9716 15.1767 83.5646C15.1287 79.8538 14.5896 76.1659 13.5736 72.5976C13.5736 76.2701 13.5736 77.4479 13.258 81.4623C13.0308 84.4004 11.8064 92.3154 11.7433 92.8599C10.8092 93.9997 7.9565 94.7848 6.44177 93.1259C6.55538 91.8595 7.36323 82.6907 7.26225 77.9291C7.17389 73.5474 6.07571 63.2389 8.52452 61.238C10.6956 59.503 18.7363 61.6559 18.7363 61.6559Z" fill="#5D588D"/>
<path d="M11.2258 52.2845C11.1763 51.1285 11.0199 49.9796 10.7587 48.8526L12.2103 44.2429C11.6571 43.957 11.0259 43.8604 10.4128 43.9678C9.79982 44.0753 9.23862 44.3809 8.81483 44.8381C7.84715 46.3105 7.00275 47.8608 6.29028 49.4731C6.80802 50.323 7.53259 51.0269 8.39592 51.5187C9.25926 52.0105 10.233 52.274 11.2258 52.2845V52.2845Z" fill="#ED8E2F"/>
<path d="M15.2651 35.2009C14.9132 34.9949 14.5212 34.8672 14.1158 34.8266C13.7104 34.786 13.3011 34.8334 12.9155 34.9655C12.53 35.0976 12.1773 35.3114 11.8814 35.5924C11.5855 35.8734 11.3533 36.215 11.2006 36.5939C10.6957 37.6577 11.4025 40.5071 11.5161 42.508C11.5931 43.3765 11.4408 44.2501 11.0743 45.0408L12.4502 45.6107C13.3601 45.9384 14.3552 45.9384 15.2651 45.6107V43.1539C15.8528 43.0673 16.426 42.9012 16.9691 42.66C17.6003 42.0901 17.9285 40.3804 17.6382 38.1642C17.209 34.9223 15.669 35.4795 15.2651 35.2009Z" fill="#FFC5B3"/>
<path d="M18.9888 52.8671C19.8093 51.1195 17.9538 47.9535 17.4362 46.8137C16.92 45.9934 16.1608 45.3558 15.2651 44.9901C14.2653 44.6168 13.2455 44.2997 12.2104 44.0403C11.8696 44.0403 10.6705 43.9137 10.6705 43.9137C10.6705 43.9137 8.03232 48.0801 7.742 50.3723C7.54004 51.9806 8.411 57.2235 7.742 62.3904C7.40119 65.1259 17.6761 64.3534 18.5849 63.2389C18.08 60.6555 17.3605 56.4257 18.9888 52.8671Z" fill="#FFA543"/>
<path d="M7.85553 54.0575C7.96001 55.8906 7.90934 57.7292 7.70406 59.5537C7.38849 61.5546 7.18652 64.7332 7.18652 64.7332C9.00297 66.0887 11.2382 66.757 13.4979 66.6202C15.5789 66.3513 17.5519 65.5342 19.216 64.252C19.216 64.252 18.0926 58.4519 18.1557 57.7427L18.2188 57.0335C17.5627 57.3619 16.8146 57.4557 16.0982 57.2995C15.4273 57.0753 14.8303 56.6712 14.372 56.131C13.9136 55.5908 13.6114 54.935 13.4979 54.2348C13.3221 52.2758 13.3221 50.305 13.4979 48.346C13.3338 48.346 9.14305 47.0797 9.14305 47.0797C8.41795 49.3407 7.98524 51.6859 7.85553 54.0575V54.0575Z" fill="#5D588D"/>
<path d="M16.6031 39.0761C16.7672 38.5189 17.1459 37.2398 17.2342 36.7206C17.3281 36.3051 17.316 35.8726 17.199 35.4631C17.0821 35.0536 16.8641 34.6803 16.5652 34.3777C15.8813 33.9326 15.1057 33.6489 14.2967 33.548C13.4878 33.4471 12.6665 33.5316 11.8948 33.7952C10.902 34.1927 10.0974 34.9549 9.6448 35.9265C9.19223 36.8981 9.12565 38.0063 9.45862 39.0254C10.0645 41.8875 10.7209 42.2041 11.5287 42.8246C12.1361 43.2594 12.8364 43.5456 13.5736 43.6604C14.0564 43.2489 14.3673 42.6703 14.4446 42.0394C14.4446 41.6975 14.4446 40.6591 14.4446 40.6591C14.4446 40.6591 13.6872 39.1647 14.2679 38.6328C14.8485 38.101 15.5301 38.9748 15.669 39.3294C16.2244 40.6084 16.7293 41.2163 16.6031 39.0761Z" fill="#4D4D4D"/>
<path d="M30.387 57.1602C28.3757 57.26 26.3605 57.0681 24.4039 56.5903C23.0817 56.2317 21.8096 55.7084 20.617 55.0327C20.1954 54.1184 19.8287 53.1795 19.5189 52.2213L15.7321 53.7663C15.7321 53.7663 16.6914 56.2991 17.2468 57.4895C17.6886 58.4266 18.2566 58.6039 19.1528 58.9332C21.3523 59.3646 23.5795 59.6396 25.8176 59.7563C26.942 59.915 28.0862 59.8548 29.1879 59.579C31.0813 59.1231 30.4628 57.6794 30.387 57.1602Z" fill="#FFC5B3"/>
<path d="M15.7826 54.868C16.6347 55.0819 17.5296 55.0504 18.3646 54.7771C19.1997 54.5038 19.941 53.9998 20.5035 53.323C19.784 50.005 18.6227 46.4591 17.0196 45.8766C16.1739 45.598 14.6339 48.5613 14.899 50.6762C14.9747 51.2714 15.3282 52.9304 15.7826 54.868Z" fill="#ED8E2F"/>
<path d="M7.41374 61.8839L7.26227 63.3403C9.08095 64.5931 11.2559 65.2197 13.46 65.1259C17.7013 65.2272 19.0771 63.7708 19.0771 63.7708L18.8247 62.2765C17.1482 63.2096 15.2636 63.7019 13.3464 63.7075C11.237 63.6732 9.18027 63.041 7.41374 61.8839V61.8839Z" fill="#7C76AC"/>
<path d="M12.2104 48.7893C12.4634 47.7705 12.928 46.8168 13.5736 45.9906C14.0318 45.4969 14.6243 45.149 15.2777 44.9901C15.2777 44.9901 16.0982 45.1927 16.0982 45.4713C15.3553 45.7841 14.7131 46.2969 14.2426 46.953C13.8413 47.8145 13.5405 48.7197 13.3464 49.6505L12.2104 48.7893Z" fill="#5D588D"/>
<path d="M10.5063 43.9263C9.89217 44.8611 9.42791 45.8867 9.13039 46.9657C8.9098 47.8549 8.73704 48.7553 8.61285 49.6631L9.42071 49.7644C9.42071 49.7644 10.2159 46.7251 10.683 45.6233C10.8893 45.04 11.1382 44.4729 11.4277 43.9263H10.5063Z" fill="#5D588D"/>
<path d="M28.2665 57.6035C28.7712 57.1839 29.2477 56.7312 29.6928 56.2484C30.0463 55.8305 30.3366 55.9445 30.223 56.413C30.0398 56.8704 29.7887 57.2974 29.4783 57.6794L28.418 57.6035H28.2665Z" fill="#FFC5B3"/>
<path d="M15.2398 34.4663C17.31 34.6816 18.1178 36.0493 17.0701 37.5057C16.3672 38.3002 15.4881 38.918 14.5038 39.3096C13.5194 39.7011 12.4572 39.8553 11.4025 39.7599C9.34503 39.5446 8.52456 38.1769 9.58487 36.7205C10.2865 35.9278 11.1635 35.3111 12.1455 34.9196C13.1275 34.5282 14.1873 34.3729 15.2398 34.4663V34.4663Z" fill="#7C76AC"/>
<path d="M9.18091 38.3795C9.18091 38.3795 7.91863 34.175 11.7055 32.896C14.3815 31.9842 16.3885 33.0479 17.4867 35.8087C18.1178 37.493 9.18091 38.3795 9.18091 38.3795Z" fill="#7C76AC"/>
<path d="M15.9972 38.5315C16.4289 38.1289 16.7609 37.6307 16.9669 37.0767C17.1729 36.5227 17.2471 35.928 17.1837 35.3401C17.0289 34.9873 16.8518 34.6446 16.6536 34.3144C16.6536 34.3144 17.0323 34.1117 18.5722 34.441C18.8843 34.4502 19.1847 34.5628 19.4263 34.7612C19.6679 34.9596 19.8373 35.2328 19.9079 35.5379C19.9785 35.8431 19.9465 36.1631 19.8167 36.4481C19.687 36.733 19.4669 36.9669 19.1907 37.1131C18.2674 37.8566 17.1666 38.3455 15.9972 38.5315V38.5315Z" fill="#5D588D"/>
</g>
</g>
<defs>
<linearGradient id="paint0_linear" x1="41.5" y1="0" x2="41.5" y2="83" gradientUnits="userSpaceOnUse">
<stop stop-color="#FFEEDE"/>
<stop offset="1" stop-color="#FFC27B"/>
</linearGradient>
<clipPath id="clip0">
<path d="M6 11H78V102.041H6V11Z" fill="white"/>
</clipPath>
</defs>
</svg>
