<svg width="84" height="83" viewBox="0 0 84 83" fill="none" xmlns="http://www.w3.org/2000/svg">
<circle cx="42.5" cy="41.5" r="41.5" fill="url(#paint0_linear)"/>
<mask id="mask0" mask-type="alpha" maskUnits="userSpaceOnUse" x="0" y="0" width="83" height="83">
<circle cx="41.5" cy="41.5" r="41.5" fill="#C4C4C4"/>
</mask>
<g mask="url(#mask0)">
<g clip-path="url(#clip0)">
<path d="M49.0072 74.4435C50.0608 73.4237 50.851 72.5629 50.851 72.5629L55.6451 72.351V73.9403C55.4924 74.4158 55.1744 74.8201 54.7495 75.0792C53.7935 75.6832 52.789 76.2059 51.7466 76.642C50.4667 77.0827 49.1412 77.3759 47.7955 77.516C46.7945 77.516 46.3599 77.079 46.8867 76.5625C47.7428 75.6752 48.0457 75.3971 49.0072 74.4435Z" fill="#4D4D4D"/>
<path d="M63.363 74.5362L67.6829 74.0462C68.0124 75.9186 67.872 77.8441 67.2746 79.6483C66.2605 82.4957 64.4825 82.5222 63.8635 82.297C63.2444 82.0719 62.9547 80.2707 63.06 78.218C63.1654 76.1652 63.363 74.5362 63.363 74.5362Z" fill="#4D4D4D"/>
<path d="M53.7354 38.3809C53.7354 38.3809 64.1664 35.176 63.9162 37.1493C63.9162 37.1493 66.2342 40.0761 65.8654 45.9166C65.6942 48.5653 65.8654 55.2666 66.142 59.8754C67.8376 64.0322 68.9074 68.4199 69.3161 72.894C69.3161 72.894 69.7244 74.0594 67.6434 75.1056C65.5625 76.1519 62.5069 75.1056 62.5069 75.1056C62.5069 75.1056 62.5465 66.0867 60.0967 60.9746C58.7797 58.167 58.4109 48.4594 58.4109 48.4594L56.3695 58.8557L56.1851 72.0993C55.2908 72.9533 54.1344 73.4763 52.9057 73.5826C50.5613 73.5826 50.4428 72.2583 50.4428 72.2583C50.2162 66.3773 50.3922 60.4876 50.9696 54.6309C51.7862 48.9626 53.7354 38.3809 53.7354 38.3809Z" fill="#5D588D"/>
<path d="M54.8285 19.0717C53.7 20.0389 52.7192 21.1679 51.9178 22.4223C51.6017 22.9786 50.2452 25.6538 49.3627 27.4947C48.1774 27.4947 44.0945 27.0576 43.0936 27.0576H41.579C41.579 27.0576 41.8819 28.382 41.579 28.925C41.347 29.3465 41.1573 29.7901 41.0126 30.2493C41.9587 31.043 43.0853 31.589 44.2921 31.8386C46.5047 32.3286 49.8632 33.1629 51.5227 32.4081C53.1822 31.6532 53.5378 27.7198 53.6958 27.1106C53.9724 24.6605 55.4475 20.5947 57.1465 19.0055C56.7905 18.8041 56.3867 18.7038 55.9784 18.7155C55.57 18.7272 55.1726 18.8503 54.8285 19.0717V19.0717Z" fill="#C1C1C1"/>
<path d="M56.3563 19.5749C54.5142 21.1331 53.2782 23.2953 52.8661 25.6802C52.7739 26.541 52.9452 29.8387 52.7476 32.5139C52.55 35.1891 52.4183 37.1625 52.9056 38.1028C53.393 39.0431 55.5397 40.3012 57.5812 40.672C59.7917 40.8408 62.0149 40.653 64.1664 40.1158C66.063 38.9106 64.8908 36.977 65.062 35.7057C65.6295 31.9173 66.0076 28.1028 66.1947 24.2764C66.0366 22.5679 62.0723 20.6079 62.0723 20.6079C61.267 19.9966 60.33 19.5846 59.337 19.4051C58.3439 19.2257 57.3228 19.2838 56.3563 19.5749V19.5749Z" fill="#DDDDDD"/>
<path d="M56.7909 23.0713L56.567 24.8062C56.0975 26.1082 55.6975 27.4344 55.3685 28.7793C55.1578 29.9977 54.7231 35.2554 54.7231 35.2554L55.4607 37.3215L56.9095 36.1825L57.5811 25.2167L58.6611 23.8924L57.6338 22.6872L56.7909 23.0713Z" fill="#5D588D"/>
<path d="M57.4626 19.4689L57.2782 22.2236C57.6575 22.7213 58.1003 23.1666 58.5952 23.548C59.7938 22.8784 60.9007 22.0548 61.8879 21.0979L61.124 16.8202L57.4626 19.4689Z" fill="#FFAD97"/>
<path d="M61.506 12.1319C61.1399 11.6736 60.6685 11.3115 60.1324 11.0769C59.5963 10.8423 59.0116 10.7422 58.4285 10.7852C57.8454 10.8282 57.2814 11.013 56.7851 11.3238C56.2888 11.6345 55.875 12.0618 55.5793 12.569C53.5642 15.5753 55.4739 20.5152 57.2519 20.2106C58.9162 19.8564 60.3955 18.9056 61.4138 17.5354C61.8945 16.7203 62.1557 15.7934 62.1719 14.8459C62.1881 13.8985 61.9586 12.9631 61.506 12.1319Z" fill="#FFC5B3"/>
<path d="M57.4627 20.2106L57.6866 22.7667L55.8822 23.5083C55.8822 23.5083 55.6451 20.8066 57.4627 20.2106Z" fill="white"/>
<path d="M61.5718 19.575C61.0812 20.2831 60.5208 20.9398 59.8992 21.535C59.2346 22.0953 58.464 22.5143 57.6339 22.7667L58.3187 24.8062C59.5484 24.2596 60.6929 23.537 61.7167 22.6607C61.7167 22.6607 62.7967 20.7801 61.5718 19.575Z" fill="white"/>
<path d="M57.4626 12.5558C59.0533 13.1993 60.3553 14.405 61.124 15.9462C61.506 16.264 61.4533 17.5354 61.4533 17.5354C61.8976 17.1037 62.2521 16.5875 62.4963 16.0169C62.7405 15.4462 62.8694 14.8324 62.8757 14.2112C62.8757 12.8869 61.743 10.1189 59.3855 9.82757C57.028 9.53621 54.3544 11.2579 55.4344 12.9001C55.7179 12.6787 56.0515 12.5314 56.4054 12.4714C56.7593 12.4113 57.1226 12.4403 57.4626 12.5558V12.5558Z" fill="#4D4D4D"/>
<path d="M67.841 32.2491C68.4337 28.0111 68.1834 24.3029 65.8918 22.7666C64.2191 21.6542 63.7054 26.8854 63.2577 30.2493C63.1523 31.0439 62.4016 34.7522 62.2172 35.6263C60.1738 36.4781 58.2898 37.6739 56.6461 39.1623C57.4118 40.03 57.8984 41.1103 58.0421 42.2613C60.5445 41.7051 63.5079 41.1224 65.141 39.3345C66.7742 37.5466 67.5512 34.2489 67.841 32.2491Z" fill="#C1C1C1"/>
<path d="M48.7174 41.6521L54.7099 45.175L49.6261 36.5136L43.6467 32.9908L48.7174 41.6521Z" fill="#CC8C46"/>
<path d="M54.71 45.1749L55.2631 44.8306L50.1925 36.1692L49.6262 36.5135L54.71 45.1749Z" fill="#D89C55"/>
<path d="M43.6467 32.9908L44.1999 32.6464L50.1925 36.1692L49.6261 36.5136L43.6467 32.9908Z" fill="#E8B470"/>
<path d="M57.6602 41.6653C57.2605 42.0848 56.8192 42.462 56.3431 42.791C55.3163 43.4797 54.0781 43.7757 52.8529 43.6254C51.6873 43.3576 50.6469 42.6991 49.9027 41.758C49.827 41.6689 49.7731 41.5632 49.745 41.4494C49.717 41.3356 49.7157 41.2168 49.7413 41.1024C49.7668 40.9881 49.8185 40.8812 49.8923 40.7904C49.966 40.6996 50.0598 40.6274 50.1661 40.5793C50.772 40.1555 52.0364 40.7383 52.8002 40.672C52.6371 40.4407 52.4918 40.1972 52.3656 39.9436C53.2606 39.8083 54.1706 39.8083 55.0656 39.9436C55.0656 39.9436 57.5416 39.2152 57.6602 41.6653Z" fill="#FFC5B3"/>
<path d="M62.5333 28.766L59.4251 27.4417C59.4251 27.4417 58.4768 30.5407 60.4787 31.4148C62.4806 32.2888 62.5333 28.766 62.5333 28.766Z" fill="white"/>
<path d="M55.5397 25.9848L53.3534 24.912C53.3534 24.912 52.5895 28.0111 53.9988 28.5011C55.1051 28.8984 55.5397 25.9848 55.5397 25.9848Z" fill="white"/>
<path d="M56.6329 39.1623C57.1989 39.5054 57.6241 40.041 57.8314 40.6721C58.2792 41.8375 58.0289 42.2613 58.0289 42.2613L56.3826 42.9367C56.3058 42.2817 56.1556 41.6375 55.9348 41.0164C55.7516 40.602 55.4603 40.2451 55.0919 39.9834L56.6329 39.1623Z" fill="white"/>
<path d="M61.5059 11.4565C63.4815 12.2511 63.9161 13.8271 62.4674 14.9661C61.5589 15.5554 60.5257 15.9223 59.4506 16.0373C58.3756 16.1523 57.2887 16.0122 56.2773 15.6283C54.3017 14.8336 53.8671 13.2576 55.3158 12.1187C56.2243 11.5294 57.2575 11.1625 58.3326 11.0475C59.4076 10.9325 60.4945 11.0726 61.5059 11.4565V11.4565Z" fill="#97A9DD"/>
<path d="M54.4729 13.8271C54.4729 13.8271 53.63 8.71509 58.0289 8.06615C63.1523 7.31126 63.2971 13.3636 63.2971 13.3636L54.4729 13.8271Z" fill="#97A9DD"/>
<path d="M54.4071 13.0723C54.4071 13.0723 52.2734 15.0853 54.8285 16.211C59.2538 18.1181 62.8493 14.6218 62.8493 14.6218C62.8493 14.6218 58.187 15.7475 55.8163 14.7012C54.2095 13.9728 54.4071 13.0723 54.4071 13.0723Z" fill="#8A9AD0"/>
<path d="M58.7007 8.37074C58.0532 8.78448 57.5833 9.42707 57.3836 10.1719C57.1878 10.6104 57.1691 11.1082 57.3312 11.5603C57.4934 12.0124 57.8238 12.3836 58.2529 12.5955C58.8606 12.9906 59.3881 13.4985 59.807 14.092C59.84 13.766 59.7964 13.4368 59.6797 13.1309C59.5631 12.8249 59.3766 12.5508 59.1353 12.3306C58.3187 11.6419 57.5548 11.2976 58.0158 10.1719C58.5613 9.24858 59.4458 8.5779 60.4787 8.30452C60.4787 8.30452 59.8465 7.69532 58.7007 8.37074Z" fill="#8A9AD0"/>
<path d="M58.0289 8.0661C57.3355 8.34469 56.727 8.80135 56.2641 9.39047C56.027 9.77454 56.0402 11.0857 55.8163 11.4168C55.3782 11.8911 54.9073 12.3336 54.407 12.7411C54.407 12.7411 54.0514 12.41 54.4992 11.8008C54.947 11.1916 55.4738 11.1519 55.5265 10.2513C55.5529 9.57588 55.2499 8.23827 58.0289 8.0661Z" fill="#8A9AD0"/>
<path d="M41.276 27.2297C40.1493 26.9248 39.006 26.686 37.8517 26.5145C36.5347 26.3556 36.2581 26.3954 35.9815 26.5145C35.7049 26.6337 36.1 26.9119 36.4951 26.9913C36.8903 27.0708 36.8376 27.4151 36.6137 27.4946C35.7304 27.5938 34.8707 27.8447 34.0718 28.2362C32.9918 28.8587 33.6635 29.5606 34.6776 30.0241C35.6917 30.4877 38.1019 29.7857 39.037 29.5341C39.6597 29.4179 40.303 29.511 40.8677 29.799C41.3328 29.0292 41.4793 28.1069 41.276 27.2297Z" fill="#FFC5B3"/>
<path d="M42.1321 27.0576C42.2054 27.638 42.2054 28.2254 42.1321 28.8058C41.96 29.4113 41.698 29.9872 41.3551 30.5142L40.038 29.6401C40.2369 29.21 40.4085 28.7677 40.5517 28.3158C40.6911 27.8448 40.6911 27.3432 40.5517 26.8722L42.1321 27.0576Z" fill="#DDDDDD"/>
<path d="M29.2909 56.6042L29.2778 49.2937L39.8273 43.1619V50.4591L29.2909 56.6042Z" fill="#DBA763"/>
<path d="M29.291 56.6042L29.2778 49.2937L18.7414 43.1619V50.4591L29.291 56.6042Z" fill="#E8B679"/>
<path d="M18.7414 43.1619L29.2778 49.2937L39.8274 43.1619L29.291 37.0433L18.7414 43.1619Z" fill="#FFE1C0"/>
<path d="M35.9025 49.2937L33.5582 50.671V46.8039L35.9025 45.4265V49.2937Z" fill="#4D4D4D"/>
<path d="M35.9025 45.4266L25.3792 39.308L23.0217 40.6721L33.5581 46.8039L35.9025 45.4266Z" fill="#6D6D6D"/>
<path d="M30.6738 54.6971V54.0217L34.2167 51.9557V52.6444L30.6738 54.6971Z" fill="#4D4D4D"/>
<path d="M30.6738 53.4787V52.8033L34.2167 50.7372V51.4259L30.6738 53.4787Z" fill="#4D4D4D"/>
<path d="M37.3907 48.5124V50.883L39.0897 49.8897V47.5323L37.3907 48.5124Z" fill="#4D4D4D"/>
<path d="M20.8618 48.6581V51.1346L19.176 50.1414V47.678L20.8618 48.6581Z" fill="#4D4D4D"/>
<path d="M23.1667 50.0089V52.4722L21.4808 51.4922V49.0289L23.1667 50.0089Z" fill="#4D4D4D"/>
<path d="M28.83 49.5983V53.1344L25.3398 51.1213V47.572L28.83 49.5983Z" fill="white"/>
<path d="M28.3953 50.3135V49.744L25.6559 48.1548V48.7243L28.3953 50.3135Z" fill="#4D4D4D"/>
<path d="M29.4226 47.7972V43.4533L36.3503 39.4139V43.7711L29.4226 47.7972Z" fill="#DBA763"/>
<path d="M29.4226 47.7972V43.4533L21.3359 38.7385V43.0957L29.4226 47.7972Z" fill="#E8B679"/>
<path d="M21.3359 38.7385L29.4226 43.4532L36.3503 39.4139L28.2636 34.7124L21.3359 38.7385Z" fill="#FFE1C0"/>
<path d="M29.9495 47.0026V46.5523L32.2675 45.1882V45.6517L29.9495 47.0026Z" fill="#4D4D4D"/>
<path d="M29.9495 46.1948V45.7445L32.2675 44.3936V44.8439L29.9495 46.1948Z" fill="#4D4D4D"/>
<path d="M23.0613 40.5132V42.5262L21.6784 41.7184V39.7053L23.0613 40.5132Z" fill="#4D4D4D"/>
<path d="M28.8826 43.9035V46.3139L25.3398 44.2611V41.8375L28.8826 43.9035Z" fill="white"/>
<path d="M28.448 44.632V44.0493L25.6691 42.4335V43.0163L28.448 44.632Z" fill="#4D4D4D"/>
<path d="M34.5986 42.7249L32.2148 44.1155V41.8243L34.5986 40.4337V42.7249Z" fill="#4D4D4D"/>
<path d="M34.5987 40.4337L26.5251 35.7322L24.1281 37.1228L32.2148 41.8375L34.5987 40.4337Z" fill="#6D6D6D"/>
<path d="M18.8072 49.4923C19.6238 46.6847 20.0452 43.5857 18.6623 41.3077L15.6331 41.3872C14.9503 42.8781 14.4378 44.442 14.1053 46.049C13.9257 46.7218 13.9159 47.4291 14.0769 48.1068C14.2379 48.7844 14.5645 49.4109 15.0273 49.9294C15.8175 50.8829 18.636 49.6115 18.7414 49.5453L18.8072 49.4923Z" fill="#FFC5B3"/>
<path d="M27.289 55.3858C27.289 55.3858 30.1207 70.7882 30.1207 75.6221C30.1207 84.1511 30.0548 93.1303 30.0548 93.1303C29.3183 93.9217 28.3404 94.4436 27.2758 94.6136C24.1939 94.6136 23.891 93.0641 23.891 93.0641C23.891 93.0641 23.891 82.9062 23.5749 78.2841C23.525 74.4035 22.9625 70.5467 21.9023 66.8151C21.9023 70.6558 21.9023 71.8874 21.573 76.0857C21.3359 79.1582 20.0584 87.4223 19.9925 88.005C19.0179 89.1969 16.0414 90.0048 14.4609 88.2699C14.5795 86.9455 15.4224 77.3703 15.317 72.3774C15.2248 67.7951 14.079 57.0015 16.6341 54.9355C18.8994 53.1211 27.289 55.3858 27.289 55.3858Z" fill="#5D588D"/>
<path d="M19.4526 45.5722C19.4 44.359 19.2369 43.1532 18.9653 41.97L20.4799 37.136C19.9008 36.8408 19.2419 36.7431 18.6027 36.8578C17.9635 36.9725 17.3788 37.2933 16.937 37.7717C15.9273 39.3115 15.0463 40.9328 14.3029 42.6189C14.8415 43.5101 15.5968 44.2489 16.4978 44.7655C17.3987 45.2822 18.4155 45.5598 19.4526 45.5722V45.5722Z" fill="#D1406B"/>
<path d="M23.6671 27.7065C23.2983 27.4917 22.8877 27.3595 22.4634 27.3188C22.0391 27.2781 21.6111 27.33 21.2086 27.4707C20.806 27.6115 20.4384 27.838 20.1308 28.1347C19.8232 28.4313 19.5829 28.7912 19.4262 29.1898C18.8994 30.3023 19.6369 33.2821 19.7555 35.3746C19.8358 36.2829 19.6768 37.1965 19.2945 38.0233L20.7301 38.6193C21.6794 38.962 22.7178 38.962 23.6671 38.6193V36.0368C24.2921 35.9639 24.9039 35.8034 25.4846 35.56C26.1432 34.9641 26.4856 33.1629 26.1827 30.8585C25.6954 27.4019 24.0886 27.9979 23.6671 27.7065Z" fill="#FFC5B3"/>
<path d="M27.5524 46.1814C28.4085 44.3538 26.4724 41.0428 25.9325 39.8509C25.3938 38.9931 24.6017 38.3262 23.6671 37.9438C22.6239 37.5534 21.5598 37.2217 20.4799 36.9506C20.1243 36.9506 18.8731 36.8181 18.8731 36.8181C18.8731 36.8181 16.1204 41.1753 15.8175 43.5724C15.6068 45.2411 16.5155 50.7372 15.8175 56.1406C15.4882 58.988 26.209 58.1934 27.1705 57.0015C26.6041 54.3527 25.8534 49.9029 27.5524 46.1814Z" fill="#FC6181"/>
<path d="M15.9361 47.3468C16.0452 49.2682 15.9923 51.1954 15.778 53.1078C15.4488 55.2666 15.238 58.5907 15.238 58.5907C17.1364 60.0021 19.4663 60.7002 21.8233 60.564C23.9947 60.2829 26.0532 59.4284 27.7895 58.0875C27.7895 58.0875 26.6173 52.0219 26.6832 51.2802L26.7491 50.5386C26.0624 50.8749 25.2842 50.9728 24.5364 50.8167C23.8322 50.5832 23.2054 50.1595 22.7246 49.5919C22.2438 49.0243 21.9274 48.3347 21.8101 47.5985C21.6267 45.5543 21.6267 43.4976 21.8101 41.4534C21.6389 41.4534 17.2663 40.129 17.2663 40.129C16.5207 42.4686 16.0737 44.894 15.9361 47.3468V47.3468Z" fill="#5D588D"/>
<path d="M25.0632 31.759C25.2345 31.1763 25.6296 29.8387 25.7218 29.2957C25.8197 28.8613 25.8071 28.409 25.6851 27.9807C25.5631 27.5525 25.3356 27.1621 25.0237 26.8456C24.3075 26.3852 23.496 26.0957 22.6513 25.9993C21.8067 25.9029 20.9513 26.0021 20.1506 26.2894C19.1147 26.7052 18.2752 27.5022 17.803 28.5183C17.3308 29.5344 17.2613 30.6933 17.6087 31.759C18.2409 34.7521 18.8599 35.0832 19.7687 35.7322C20.4104 36.1618 21.1393 36.4423 21.9023 36.5533C22.406 36.1229 22.7304 35.5178 22.8111 34.8581C22.8111 34.5005 22.8111 33.4145 22.8111 33.4145C22.8111 33.4145 22.0209 31.8518 22.6267 31.2955C23.2325 30.7393 23.9438 31.6399 24.0886 32.0239C24.6681 33.3615 25.1949 33.9972 25.0632 31.759Z" fill="#4D4D4D"/>
<path d="M39.4454 50.671C37.3442 50.7581 35.2416 50.5395 33.2025 50.0221C31.8251 49.6409 30.4985 49.094 29.2514 48.3931C28.8108 47.4327 28.4282 46.4464 28.1056 45.4398L24.1544 47.0555C24.1544 47.0555 25.1554 49.7042 25.7349 50.9491C26.1958 51.9292 26.7885 52.1278 27.7236 52.4722C30.0196 52.9168 32.343 53.2044 34.6776 53.333C35.8513 53.5025 37.0468 53.435 38.1942 53.1343C40.1697 52.6708 39.5244 51.214 39.4454 50.671Z" fill="#FFC5B3"/>
<path d="M24.2071 48.274C25.0962 48.4977 26.03 48.4648 26.9012 48.179C27.7725 47.8932 28.546 47.3661 29.1329 46.6583C28.369 43.1884 27.1573 39.4272 25.4978 38.871C24.6154 38.5664 23.0086 41.6786 23.2852 43.8903C23.3642 44.5128 23.733 46.2477 24.2071 48.274Z" fill="#D1406B"/>
<path d="M15.4751 55.6772L15.3171 57.134C17.2147 58.4442 19.484 59.0995 21.7838 59.0013C26.2091 59.1073 27.6447 57.5843 27.6447 57.5843L27.3813 56.0215C25.632 56.9974 23.6656 57.5122 21.6653 57.5181C19.4708 57.5019 17.3253 56.8639 15.4751 55.6772V55.6772Z" fill="#7C76AC"/>
<path d="M20.4799 41.917C20.7412 40.8506 21.2262 39.8527 21.9023 38.9902C22.3757 38.4682 22.9958 38.1033 23.6803 37.9439C23.6803 37.9439 24.5364 38.1955 24.5364 38.4604C23.7612 38.7875 23.0912 39.3237 22.6003 40.0099C22.1815 40.9108 21.8677 41.8574 21.6652 42.8308L20.4799 41.917Z" fill="#5D588D"/>
<path d="M18.7018 36.8181C18.0611 37.7957 17.5767 38.8682 17.2662 39.9966C17.0361 40.9265 16.8558 41.8681 16.7263 42.8175L17.5692 42.9235C17.5692 42.9235 18.3989 39.745 18.8862 38.5928C19.1124 38.0001 19.3809 37.4248 19.6896 36.8711L18.7018 36.8181Z" fill="#5D588D"/>
<path d="M37.2327 51.1346C37.7561 50.692 38.253 50.2188 38.721 49.7175C39.0898 49.2804 39.3927 49.3864 39.2742 49.8764C39.0806 50.3535 38.8188 50.7997 38.4971 51.2008L37.3908 51.1213L37.2327 51.1346Z" fill="#FFC5B3"/>
<path d="M23.6408 26.9384C25.8007 27.1635 26.6436 28.5938 25.5505 30.1168C24.815 30.9452 23.8976 31.5896 22.871 31.9989C21.8444 32.4081 20.737 32.5709 19.6369 32.4742C17.4901 32.2491 16.6341 30.8188 17.7404 29.2957C18.4705 28.4643 19.3852 27.8175 20.4104 27.408C21.4355 26.9984 22.5422 26.8375 23.6408 26.9384V26.9384Z" fill="#FC6181"/>
<path d="M17.3189 31.0307C17.3189 31.0307 16.0019 26.6206 19.953 25.2962C22.7452 24.3427 24.8393 25.4551 25.9851 28.3423C26.6437 30.1037 17.3189 31.0307 17.3189 31.0307Z" fill="#FC6181"/>
<path d="M24.431 31.1896C24.8796 30.77 25.2249 30.2512 25.4397 29.6743C25.6546 29.0974 25.7331 28.4781 25.6691 27.8655C25.5104 27.495 25.3255 27.1365 25.1159 26.7927C25.1159 26.7927 25.511 26.5808 27.1178 26.9251C28.7246 27.2695 29.0144 28.6998 27.7632 29.7196C26.7983 30.4924 25.6499 30.999 24.431 31.1896V31.1896Z" fill="#D1406B"/>
</g>
</g>
<defs>
<linearGradient id="paint0_linear" x1="42.5" y1="0" x2="42.5" y2="83" gradientUnits="userSpaceOnUse">
<stop stop-color="#D8D2FF"/>
<stop offset="1" stop-color="#AC9FFF"/>
</linearGradient>
<clipPath id="clip0">
<path d="M14 8H69.3819V97.6067H14V8Z" fill="white"/>
</clipPath>
</defs>
</svg>
