<svg width="83" height="83" viewBox="0 0 83 83" fill="none" xmlns="http://www.w3.org/2000/svg">
<circle cx="41.5" cy="41.5" r="41.5" fill="url(#paint0_linear)"/>
<mask id="mask0" mask-type="alpha" maskUnits="userSpaceOnUse" x="0" y="0" width="83" height="83">
<circle cx="41.5" cy="41.5" r="41.5" fill="#C4C4C4"/>
</mask>
<g mask="url(#mask0)">
<g clip-path="url(#clip0)">
<path d="M71.2838 51.4327L76.1114 54.2211V59.1706L71.2838 56.3823V51.4327Z" fill="#303030"/>
<path d="M67.3389 49.8425L86.7165 38.342L95.4779 43.4148L76.1113 54.9153L67.3389 49.8425Z" fill="#6B6B6B"/>
<path d="M76.1115 54.8818V59.1706L95.478 47.7038V43.4149L76.1115 54.8818Z" fill="#5B5B5B"/>
<path d="M76.1115 57.9276V58.4203L94.6733 47.5133V47.0206L76.1115 57.9276Z" fill="#8C8C8C"/>
<path d="M76.1115 56.8637V57.3565L94.6733 46.4495V45.9568L76.1115 56.8637Z" fill="#8C8C8C"/>
<path d="M72.1107 54.6578C72.1107 57.8829 70.1438 61.6454 67.73 63.0452C65.3162 64.445 63.3494 62.9556 63.3494 59.6858C63.3494 56.4159 65.2603 52.7877 67.6406 51.3432C70.0209 49.8986 72.1107 51.4216 72.1107 54.6578Z" fill="#303030"/>
<path d="M68.1324 65.1281L64.9586 63.3364L70.6244 51.1528L73.6641 52.8549L68.1324 65.1281Z" fill="#303030"/>
<path d="M75.3515 56.4942C75.3515 59.7305 73.3959 63.4819 70.9709 64.8816C68.5459 66.2814 66.6014 64.792 66.6014 61.5222C66.6014 58.2523 68.557 54.5794 70.9932 53.1796C73.4294 51.7798 75.3515 53.258 75.3515 56.4942Z" fill="#494949"/>
<path d="M73.8205 57.4909C73.8063 58.5547 73.5431 59.6004 73.052 60.5437C72.561 61.487 71.8558 62.3016 70.9932 62.922C69.4287 63.829 68.1547 62.922 68.1547 60.7719C68.172 59.7075 68.4377 58.6619 68.9306 57.7188C69.4235 56.7757 70.1299 55.9613 70.9932 55.3409C72.5466 54.4338 73.8205 55.3968 73.8205 57.4909Z" fill="#969696"/>
<path d="M72.5946 59.825C73.2712 58.2316 73.0923 56.6298 72.195 56.2472C71.2977 55.8646 70.0218 56.8461 69.3452 58.4396C68.6686 60.033 68.8475 61.6349 69.7448 62.0174C70.6421 62.4 71.918 61.4185 72.5946 59.825Z" fill="white"/>
<path d="M71.9654 58.566C71.9607 58.9337 71.8703 59.2953 71.7015 59.6219C71.5327 59.9485 71.2902 60.2311 70.9932 60.4472C70.4568 60.7608 70.0098 60.4472 70.0098 59.6969C70.0167 59.3284 70.1091 58.9665 70.2798 58.64C70.4505 58.3134 70.6948 58.0312 70.9932 57.8157C71.5184 57.5021 71.9654 57.8381 71.9654 58.566Z" fill="#383838"/>
<path d="M71.1608 56.987C71.1615 57.0579 71.1444 57.1277 71.1112 57.1903C71.078 57.2529 71.0298 57.3062 70.9709 57.3453C70.8703 57.4125 70.7921 57.3453 70.7921 57.1998C70.7921 57.1302 70.8082 57.0616 70.8392 56.9994C70.8703 56.9373 70.9153 56.8832 70.9709 56.8414C71.0826 56.7854 71.1608 56.8414 71.1608 56.987Z" fill="#383838"/>
<path d="M72.4459 56.987C72.4438 57.0573 72.4256 57.1262 72.3926 57.1883C72.3597 57.2505 72.3129 57.3042 72.256 57.3453C72.1442 57.4125 72.066 57.3453 72.066 57.1998C72.0654 57.1289 72.0824 57.059 72.1156 56.9964C72.1488 56.9339 72.197 56.8806 72.256 56.8414C72.3566 56.7854 72.4459 56.8414 72.4459 56.987Z" fill="#383838"/>
<path d="M69.9874 58.3868C69.9879 58.4592 69.9709 58.5306 69.9378 58.595C69.9047 58.6593 69.8565 58.7147 69.7974 58.7563C69.6969 58.7563 69.6186 58.7563 69.6186 58.6107C69.6177 58.541 69.6335 58.4721 69.6646 58.4098C69.6957 58.3475 69.7413 58.2935 69.7974 58.2524C69.8757 58.1964 69.9874 58.2636 69.9874 58.3868Z" fill="#383838"/>
<path d="M72.4459 59.641C72.4456 59.7116 72.4281 59.7812 72.395 59.8436C72.3619 59.906 72.3142 59.9594 72.256 59.9993C72.1442 60.0665 72.066 59.9993 72.066 59.8649C72.0655 59.7925 72.0825 59.7211 72.1156 59.6567C72.1487 59.5924 72.1969 59.537 72.256 59.4954C72.3565 59.4394 72.4459 59.5066 72.4459 59.641Z" fill="#383838"/>
<path d="M69.9874 61.0631C69.988 61.1339 69.971 61.2038 69.9378 61.2664C69.9046 61.329 69.8564 61.3823 69.7975 61.4214C69.6969 61.4774 69.6187 61.4214 69.6187 61.2758C69.6187 61.2063 69.6348 61.1377 69.6658 61.0755C69.6969 61.0133 69.7419 60.9592 69.7975 60.9175C69.8757 60.8503 69.9874 60.9175 69.9874 61.0631Z" fill="#383838"/>
<path d="M72.7476 58.2075C72.7455 58.2794 72.7274 58.3499 72.6945 58.4139C72.6616 58.4778 72.6149 58.5336 72.5577 58.577C72.4571 58.577 72.3677 58.577 72.3677 58.4315C72.3698 58.3596 72.3879 58.289 72.4208 58.2251C72.4537 58.1611 72.5005 58.1054 72.5577 58.0619C72.6582 58.0059 72.7476 58.0731 72.7476 58.2075Z" fill="#383838"/>
<path d="M69.6186 60.0217C69.6165 60.092 69.5982 60.1609 69.5653 60.223C69.5323 60.2851 69.4856 60.3389 69.4286 60.38C69.3169 60.38 69.2387 60.38 69.2387 60.2344C69.2381 60.1636 69.2551 60.0937 69.2883 60.0311C69.3215 59.9685 69.3697 59.9153 69.4286 59.8761C69.5292 59.8201 69.6186 59.8761 69.6186 60.0217Z" fill="#383838"/>
<path d="M71.1608 61.0631C71.1615 61.1339 71.1444 61.2038 71.1112 61.2664C71.078 61.329 71.0298 61.3823 70.9709 61.4214C70.8703 61.4774 70.7921 61.4214 70.7921 61.2758C70.7921 61.2063 70.8082 61.1377 70.8392 61.0755C70.8703 61.0133 70.9153 60.9592 70.9709 60.9175C71.0826 60.8503 71.1608 60.9175 71.1608 61.0631Z" fill="#383838"/>
<path d="M62.9471 59.9433C62.9471 63.1684 60.9802 66.9309 58.5664 68.3307C56.1526 69.7305 54.2305 68.2411 54.2305 65.0049C54.2305 61.7686 56.1973 58.0285 58.6111 56.6287C61.0249 55.2289 62.9471 56.7071 62.9471 59.9433Z" fill="#303030"/>
<path d="M59.0135 70.4135L55.8509 68.6218L61.5055 56.4382L64.5451 58.1403L59.0135 70.4135Z" fill="#303030"/>
<path d="M66.2326 61.7462C66.2326 64.9824 64.2769 68.7338 61.8631 70.1335C59.4492 71.5333 57.4824 70.0439 57.4824 66.7741C57.4824 63.5043 59.4381 59.7865 61.8631 58.3867C64.2881 56.987 66.2326 58.5435 66.2326 61.7462Z" fill="#494949"/>
<path d="M64.7016 62.7764C64.6843 63.8409 64.4186 64.8865 63.9257 65.8296C63.4328 66.7727 62.7264 67.587 61.8631 68.2075C60.2874 69.1145 59.0134 68.2075 59.0134 66.0575C59.0302 64.9917 59.2969 63.9448 59.7919 63.0014C60.2869 62.0579 60.9964 61.2444 61.8631 60.6264C63.4276 59.7193 64.7016 60.6824 64.7016 62.7764Z" fill="#969696"/>
<path d="M63.897 63.2356C63.8832 64.0003 63.6922 64.7514 63.3393 65.4296C62.9863 66.1078 62.481 66.6946 61.8631 67.1437C60.7456 67.7932 59.8181 67.1437 59.8181 65.5984C59.8392 64.8417 60.0348 64.1002 60.3896 63.4319C60.7443 62.7636 61.2487 62.1866 61.8631 61.7462C62.9806 61.0407 63.897 61.7462 63.897 63.2356Z" fill="white"/>
<path d="M62.8465 63.8513C62.8388 64.2197 62.7459 64.5813 62.5753 64.9077C62.4047 65.2341 62.1609 65.5165 61.8631 65.7326C61.3155 66.0462 60.8685 65.7326 60.8685 64.9824C60.875 64.6125 60.9684 64.2494 61.1412 63.9225C61.314 63.5956 61.5614 63.3142 61.8631 63.1011C62.3995 62.7875 62.8465 63.1235 62.8465 63.8513Z" fill="#383838"/>
<path d="M62.0531 62.2725C62.0531 62.3421 62.0369 62.4107 62.0059 62.4728C61.9748 62.535 61.9298 62.5891 61.8743 62.6309C61.7625 62.6309 61.6843 62.6309 61.6843 62.4853C61.6837 62.4144 61.7007 62.3445 61.7339 62.282C61.7671 62.2194 61.8153 62.1661 61.8743 62.127C61.9637 62.071 62.0531 62.127 62.0531 62.2725Z" fill="#383838"/>
<path d="M63.327 62.2725C63.3249 62.3429 63.3066 62.4117 63.2737 62.4739C63.2408 62.536 63.194 62.5897 63.1371 62.6309C63.0365 62.6309 62.9471 62.6309 62.9471 62.4853C62.9492 62.415 62.9675 62.3461 63.0004 62.284C63.0334 62.2218 63.0801 62.1681 63.1371 62.127C63.2376 62.071 63.327 62.127 63.327 62.2725Z" fill="#383838"/>
<path d="M60.8685 63.6834C60.869 63.7558 60.8519 63.8273 60.8189 63.8916C60.7858 63.956 60.7376 64.0113 60.6785 64.053C60.5779 64.053 60.4997 64.053 60.4997 63.9074C60.4997 63.8363 60.5157 63.7661 60.5467 63.702C60.5777 63.638 60.6227 63.5819 60.6785 63.5379C60.7902 63.4819 60.8685 63.5491 60.8685 63.6834Z" fill="#383838"/>
<path d="M63.327 64.9264C63.3267 64.997 63.3092 65.0666 63.2761 65.129C63.243 65.1914 63.1953 65.2448 63.1371 65.2847C63.0365 65.3519 62.9471 65.2847 62.9471 65.1503C62.9492 65.0784 62.9674 65.0079 63.0002 64.944C63.0331 64.88 63.0799 64.8243 63.1371 64.7808C63.2376 64.7248 63.327 64.792 63.327 64.9264Z" fill="#383838"/>
<path d="M60.8685 66.3486C60.8691 66.4195 60.852 66.4894 60.8189 66.5519C60.7857 66.6145 60.7374 66.6678 60.6785 66.707C60.5779 66.707 60.4997 66.707 60.4997 66.5614C60.4997 66.4919 60.5159 66.4233 60.5469 66.3611C60.5779 66.2989 60.623 66.2448 60.6785 66.203C60.7902 66.1359 60.8685 66.2254 60.8685 66.3486Z" fill="#383838"/>
<path d="M63.6288 63.4931C63.6267 63.565 63.6085 63.6356 63.5757 63.6995C63.5428 63.7635 63.496 63.8192 63.4388 63.8627C63.3382 63.8627 63.2488 63.8627 63.2488 63.7171C63.2509 63.6452 63.2691 63.5747 63.302 63.5107C63.3349 63.4468 63.3816 63.391 63.4388 63.3476C63.5394 63.2916 63.6288 63.3588 63.6288 63.4931Z" fill="#383838"/>
<path d="M60.4997 65.3072C60.4976 65.3775 60.4793 65.4464 60.4464 65.5085C60.4134 65.5707 60.3667 65.6244 60.3097 65.6655C60.198 65.6655 60.1198 65.6655 60.1198 65.52C60.1192 65.4491 60.1362 65.3792 60.1694 65.3166C60.2026 65.2541 60.2508 65.2008 60.3097 65.1616C60.4103 65.1056 60.4997 65.1616 60.4997 65.3072Z" fill="#383838"/>
<path d="M62.0531 66.3486C62.0531 66.4182 62.0369 66.4867 62.0059 66.5489C61.9748 66.6111 61.9298 66.6652 61.8743 66.707C61.7625 66.707 61.6843 66.707 61.6843 66.5614C61.6837 66.4905 61.7007 66.4206 61.7339 66.3581C61.7671 66.2955 61.8153 66.2422 61.8743 66.203C61.9637 66.1359 62.0531 66.2254 62.0531 66.3486Z" fill="#383838"/>
<path d="M55.4262 66.6734L52.2748 65.0385L56.0185 63.3252L55.4262 66.6734Z" fill="#494949"/>
<path d="M61.4832 56.4382L61.1367 56.6398C59.3905 57.6748 57.9448 59.1495 56.943 60.9175C55.9413 62.6854 55.4184 64.6851 55.4262 66.7181L56.4767 66.0798L56.5549 65.6319C56.9999 63.0315 58.3694 60.6806 60.4103 59.0138L60.8685 58.6443L61.4832 56.4382Z" fill="#969696"/>
<path d="M49.5034 31.1865L115.023 -6.69665L92.036 -20L26.5162 17.8832L49.5034 31.1865Z" fill="#EDEDED"/>
<path d="M29.9581 18.5551L93.1311 -17.9283L91.8236 -18.6002L28.6617 17.8832L29.9581 18.5551Z" fill="#CCCCCC"/>
<path d="M49.6263 29.8764L112.799 -6.60704L111.492 -7.27893L48.3188 29.2045L49.6263 29.8764Z" fill="#CCCCCC"/>
<path d="M27.4213 53.4708V57.2334L50.4086 70.5255V66.7742L27.4213 53.4708Z" fill="#303030"/>
<path d="M51.4591 66.1359L50.3639 66.7742V70.5255L51.4591 69.8872V66.1359Z" fill="#494949"/>
<path d="M49.3134 69.2265L47.8271 68.3642V66.371L49.3134 67.2332V69.2265Z" fill="#FC6181"/>
<path d="M49.7157 66.998L49.3134 67.2332V69.2265L49.7157 68.9913V66.998Z" fill="#D1406B"/>
<path d="M49.7157 66.9981L48.2295 66.1359L47.8271 66.371L49.3134 67.2333L49.7157 66.9981Z" fill="#F95377"/>
<path d="M29.5334 57.4014L28.0359 56.5279V54.5347L29.5334 55.3969V57.4014Z" fill="#FC6181"/>
<path d="M29.9358 55.1729L29.5334 55.3968V57.4013L29.9358 57.1661V55.1729Z" fill="#D1406B"/>
<path d="M29.9357 55.1728L28.4383 54.3105L28.0359 54.5345L29.5334 55.3968L29.9357 55.1728Z" fill="#F95377"/>
<path d="M26.5162 17.8832V46.6623V48.9243V54.0867L49.5034 67.3788V62.2053V59.9545V31.1865L26.5162 17.8832Z" fill="#CCCCCC"/>
<path d="M48.6877 31.7688L27.332 19.3389V44.893V46.9087V53.5043L27.3655 53.5267L48.6877 41.1976V31.7688Z" fill="#494949"/>
<path d="M48.6876 41.1976L27.3655 53.5268L48.6876 65.9231V41.1976Z" fill="#5B5B5B"/>
<path d="M86.9066 15.386L69.1493 25.6547L66.4785 29.1597L86.9066 17.3457V15.386Z" fill="white"/>
<path d="M86.9065 11.9258L73.4405 19.854L70.7697 23.359L86.9065 13.8854V11.9258Z" fill="white"/>
<path d="M49.5034 31.1082V59.9545V63.997V67.3788L115.023 29.5068V26.125V22.0825V-6.77502L49.5034 31.1082Z" fill="#A5A5A5"/>
<path d="M53.2694 31.0857L52.4201 31.5784V63.2579L53.2694 62.7651V31.0857Z" fill="#8E8E8E"/>
<path d="M57.0801 28.891L56.2308 29.3725V61.0631L57.0801 60.5704V28.891Z" fill="#8E8E8E"/>
<path d="M70.0992 21.3323L69.2499 21.825V53.5044L70.0992 53.0117V21.3323Z" fill="#8E8E8E"/>
<path d="M73.8988 19.1374L73.0494 19.6189V51.3095L73.8988 50.8168V19.1374Z" fill="#8E8E8E"/>
<path d="M77.9665 16.853L77.1172 17.3457V49.0251L77.9665 48.5324V16.853Z" fill="#8E8E8E"/>
<path d="M81.766 14.6581L80.9167 15.1396V46.8302L81.766 46.3375V14.6581Z" fill="#8E8E8E"/>
<path d="M62.5336 58.398L64.0311 57.5245V55.5312L62.5336 56.3935V58.398Z" fill="white"/>
<path d="M62.1313 56.1696L62.5336 56.3935V58.398L62.1313 58.1628V56.1696Z" fill="#BBBBBB"/>
<path d="M62.1313 56.1695L63.6288 55.3073L64.0311 55.5424L62.5337 56.3935L62.1313 56.1695Z" fill="#CECECE"/>
<path d="M26.2033 18.9359L14.6929 25.5987V59.7305L26.2033 53.0789V18.9359Z" fill="#CCCCCC"/>
<path d="M14.6929 59.7305L14 59.2154V25.0724L14.6929 25.5987V59.7305Z" fill="#A5A5A5"/>
<path d="M26.2032 18.9359L25.5104 18.4095L14 25.0724L14.6929 25.5987L26.2032 18.9359Z" fill="#EDEDED"/>
<path d="M15.8886 57.8605L20.1016 55.5089V23.7286L15.8886 26.0914V57.8605Z" fill="#A5A5A5"/>
<path d="M21.0851 54.8594L25.2981 52.5078V20.7275L21.0851 23.0903V54.8594Z" fill="#A5A5A5"/>
<path d="M48.6876 39.5963L41.1444 35.229V47.5021L48.6876 51.8806V39.5963Z" fill="#DBA763"/>
<path d="M47.9054 31.3097L41.1444 35.229L48.6876 39.5963V31.7912L47.9054 31.3097Z" fill="#FFE1C0"/>
<path d="M44.1617 39.9322L45.9721 40.9848V38.0173L44.1617 36.9647V39.9322Z" fill="#4D4D4D"/>
<path d="M48.6876 34.3444L44.1617 36.9647L45.9721 38.0174L48.6876 36.4496V34.3444Z" fill="#6D6D6D"/>
<path d="M43.0107 39.3276V41.1417L41.7144 40.3915V38.5662L43.0107 39.3276Z" fill="#4D4D4D"/>
<path d="M39.1776 58.1068V52.5078L31.0645 47.8046V53.4036L39.1776 58.1068Z" fill="#DBA763"/>
<path d="M39.1776 58.1068V52.5078L47.2908 47.8046V53.4036L39.1776 58.1068Z" fill="#E8B679"/>
<path d="M47.2907 47.8045L39.1776 52.5077L31.0645 47.8045L39.1776 43.1013L47.2907 47.8045Z" fill="#FFE1C0"/>
<path d="M34.0817 52.5078L35.8921 53.5604V50.5929L34.0817 49.5403V52.5078Z" fill="#4D4D4D"/>
<path d="M34.0817 49.5403L42.1837 44.8483L43.9941 45.9009L35.8921 50.6041L34.0817 49.5403Z" fill="#6D6D6D"/>
<path d="M38.1048 56.651V56.1359L35.3781 54.5458V55.0833L38.1048 56.651Z" fill="#4D4D4D"/>
<path d="M38.1048 55.7216V55.1953L35.3781 53.6163V54.1427L38.1048 55.7216Z" fill="#4D4D4D"/>
<path d="M32.9307 51.9143V53.7284L31.6344 52.9669V51.1528L32.9307 51.9143Z" fill="#4D4D4D"/>
<path d="M45.6592 52.0262V53.9187L46.9667 53.1573V51.2648L45.6592 52.0262Z" fill="#4D4D4D"/>
<path d="M43.8823 53.0564V54.9489L45.1898 54.1986V52.3062L43.8823 53.0564Z" fill="#4D4D4D"/>
<path d="M39.5352 52.7429V55.4529L42.206 53.9075V51.1864L39.5352 52.7429Z" fill="white"/>
<path d="M39.8593 53.2916V52.8549L41.9714 51.6343V52.071L39.8593 53.2916Z" fill="#4D4D4D"/>
<path d="M48.6652 57.9724L41.7925 53.9971V59.5849L48.6652 63.5826V57.9724Z" fill="#DBA763"/>
<path d="M48.6652 50.0217L41.7925 53.9971L48.6652 57.9724V50.0217Z" fill="#FFE1C0"/>
<path d="M44.8098 58.7003L46.6202 59.7529V56.7854L44.8098 55.7328V58.7003Z" fill="#4D4D4D"/>
<path d="M48.6652 53.5044L44.8098 55.7328L46.6202 56.7854L48.6652 55.6096V53.5044Z" fill="#6D6D6D"/>
<path d="M48.6653 51.9255L45.648 50.1786V53.4484L48.6653 55.1954V51.9255Z" fill="#DBA763"/>
<path d="M48.6653 48.4316L45.648 50.1785L48.6653 51.9255V48.4316Z" fill="#FFE1C0"/>
<path d="M48.6653 51.9254L46.9778 50.9399V52.6645L48.6653 53.6499V51.9254Z" fill="#4D4D4D"/>
<path d="M39.0882 51.0632V47.7821L33.8582 44.7474V48.0285L39.0882 51.0632Z" fill="#DBA763"/>
<path d="M39.0882 51.0632V47.7821L45.2122 44.2435V47.5134L39.0882 51.0632Z" fill="#E8B679"/>
<path d="M45.2122 44.2436L39.0882 47.7822L33.8582 44.7475L39.971 41.2089L45.2122 44.2436Z" fill="#FFE1C0"/>
<path d="M38.6971 50.4585V50.1226L36.9426 49.1035V49.4395L38.6971 50.4585Z" fill="#4D4D4D"/>
<path d="M38.6971 49.8538V49.5178L36.9426 48.4988V48.8347L38.6971 49.8538Z" fill="#4D4D4D"/>
<path d="M43.9047 45.5649V47.0991L44.9551 46.4832V44.9602L43.9047 45.5649Z" fill="#4D4D4D"/>
<path d="M39.5016 48.1293V49.9434L42.1837 48.3981V46.5728L39.5016 48.1293Z" fill="white"/>
<path d="M39.8257 48.678V48.2412L41.9378 47.0206V47.4574L39.8257 48.678Z" fill="#4D4D4D"/>
<path d="M35.1769 47.2334L36.9872 48.286V46.5615L35.1769 45.5089V47.2334Z" fill="#4D4D4D"/>
<path d="M35.1769 45.5089L41.2897 41.9703L43.1001 43.023L36.9873 46.5728L35.1769 45.5089Z" fill="#6D6D6D"/>
<path d="M47.7377 31.7017L59.2481 38.3645V72.4964L47.7377 65.8447V31.7017Z" fill="#CCCCCC"/>
<path d="M59.2481 72.4964L59.941 71.9813V37.8383L59.2481 38.3646V72.4964Z" fill="#8E8E8E"/>
<path d="M47.7377 31.7016L48.4306 31.1865L59.941 37.8382L59.2481 38.3645L47.7377 31.7016Z" fill="#EDEDED"/>
<path d="M58.0524 70.6375L53.8394 68.2747V36.5056L58.0524 38.8572V70.6375Z" fill="#A5A5A5"/>
<path d="M52.856 67.6252L48.6429 65.2736V33.4934L52.856 35.8562V67.6252Z" fill="#A5A5A5"/>
</g>
</g>
<defs>
<linearGradient id="paint0_linear" x1="41.5" y1="0" x2="41.5" y2="83" gradientUnits="userSpaceOnUse">
<stop stop-color="#FFBDBD"/>
<stop offset="1" stop-color="#F57B7B"/>
</linearGradient>
<clipPath id="clip0">
<rect x="14" y="-20" width="128" height="92.4964" fill="white"/>
</clipPath>
</defs>
</svg>
