<svg xmlns="http://www.w3.org/2000/svg" viewBox="0 0 500 500"><g id="freepik--background-complete--inject-86"><path d="M319.84,386.45l-6.07,32.95c-18.25-3.35-30.65-20.71-27.61-38.65,3.07-18.13,20.8-30.46,39.28-27.33s31.15,20.62,28.08,38.74Z" style="fill:#f5f5f5"></path><path d="M411.41,239.58a30.3,30.3,0,0,0,41.1-11.3,29.85,29.85,0,0,0-11.25-40.85,30.3,30.3,0,0,0-41.1,11.3A29.87,29.87,0,0,0,411.41,239.58Zm2.41-33.14a14.49,14.49,0,0,1,19.65-5.4,14.27,14.27,0,0,1,5.38,19.53A14.48,14.48,0,0,1,419.2,226,14.28,14.28,0,0,1,413.82,206.44Z" style="fill:#f5f5f5"></path><path d="M452.51,228.28a30.3,30.3,0,0,1-41.1,11.3L419.2,226a14.48,14.48,0,0,0,19.65-5.4A14.27,14.27,0,0,0,433.47,201l7.79-13.61A29.85,29.85,0,0,1,452.51,228.28Z" style="fill:#ebebeb"></path><path d="M413.74,244.06c-17.68-10-24.63-31.41-14.54-49l17.71,9.21c-4.82,8.43-4,17.95,4.43,22.72Z" style="fill:#fafafa"></path><path d="M453.33,38.71a61.75,61.75,0,0,0-86.81,2.94,60.86,60.86,0,0,0,3,86.29A61.75,61.75,0,0,0,456.29,125,60.86,60.86,0,0,0,453.33,38.71Zm-20.46,64.54a29.52,29.52,0,0,1-41.51,1.41,29.1,29.1,0,0,1-1.42-41.26A29.53,29.53,0,0,1,431.45,62,29.09,29.09,0,0,1,432.87,103.25Z" style="fill:#f5f5f5"></path><path d="M366.52,41.65a61.75,61.75,0,0,1,86.81-2.94L431.45,62a29.53,29.53,0,0,0-41.51,1.4,29.1,29.1,0,0,0,1.42,41.26l-21.88,23.28A60.86,60.86,0,0,1,366.52,41.65Z" style="fill:#ebebeb"></path><path d="M450.82,28.74c30.32,28.15,33.95,73.91,5.63,104.05l-30.76-26.65c13.55-14.41,16.49-33.64,2-47.11Z" style="fill:#fafafa"></path><rect x="52.68" y="42.7" width="109.14" height="98.56" style="fill:#f5f5f5"></rect></g><g id="freepik--Floor--inject-86"><path d="M475.35,479.17c0,.14-102.35.26-228.59.26s-228.61-.12-228.61-.26,102.33-.26,228.61-.26S475.35,479,475.35,479.17Z" style="fill:#263238"></path></g><g id="freepik--Charts--inject-86"><path d="M207.13,437.67l24.67,11.42c-9.82,21.22-29.05,33.53-42.58,27.27s-18.15-29.95-8.32-51.17,27.86-27.8,42.74-26.77c0,0,12-.24,16.79,8.15Z" style="fill:#263238"></path><path d="M215.69,439.08l24.67,11.42c-9.83,21.22-29.05,33.53-42.58,27.27s-16.59-28.89-6.76-50.11,29-33.53,42.58-27.27c4.54,2.11,8.09,6.14,10.24,11.66Z" style="fill:#455a64"></path><path d="M188.38,434.19a30,30,0,0,1-5.61,2.93,31.08,31.08,0,0,1-5.92,2.24,50.43,50.43,0,0,1,5.71-2.71A51.89,51.89,0,0,1,188.38,434.19Z" style="fill:#455a64"></path><path d="M186.74,445.7a28.53,28.53,0,0,1-5.37,2.82,28.32,28.32,0,0,1-5.68,2.13,46.21,46.21,0,0,1,5.47-2.6A47.71,47.71,0,0,1,186.74,445.7Z" style="fill:#455a64"></path><path d="M187.52,455.5a23.55,23.55,0,0,1-4.83,2.59,23.37,23.37,0,0,1-5.14,1.88,36.7,36.7,0,0,1,4.93-2.36A37.71,37.71,0,0,1,187.52,455.5Z" style="fill:#455a64"></path><path d="M190.94,464.35a23.26,23.26,0,0,1-4.83,2.58,23.74,23.74,0,0,1-5.14,1.89,36.7,36.7,0,0,1,4.93-2.36A37.11,37.11,0,0,1,190.94,464.35Z" style="fill:#455a64"></path><path d="M198.28,471.37a23,23,0,0,1-4.82,2.59,23.37,23.37,0,0,1-5.14,1.88,36.18,36.18,0,0,1,4.92-2.36A38.34,38.34,0,0,1,198.28,471.37Z" style="fill:#455a64"></path><path d="M193,423.67a58.39,58.39,0,0,1-6.94,3.4,58.79,58.79,0,0,1-7.16,2.92,58.1,58.1,0,0,1,6.95-3.4A58.32,58.32,0,0,1,193,423.67Z" style="fill:#455a64"></path><path d="M200.17,413.26a76.79,76.79,0,0,1-8.16,3.59,76,76,0,0,1-8.36,3.11,76.79,76.79,0,0,1,8.16-3.59A76,76,0,0,1,200.17,413.26Z" style="fill:#455a64"></path><path d="M214.74,401.57c0,.13-5.18,2.2-11.68,4.61s-11.82,4.25-11.87,4.12,5.18-2.2,11.69-4.61S214.69,401.43,214.74,401.57Z" style="fill:#455a64"></path><rect x="208.8" y="450.26" width="103.49" height="28.38" style="fill:#FF725E"></rect><path d="M229.66,450.26c.11.09-4.25,6.58-9.75,14.52s-10,14.3-10.17,14.22,4.25-6.58,9.75-14.52S229.54,450.18,229.66,450.26Z" style="fill:#263238"></path><path d="M244.93,450.26c.12.09-4.24,6.58-9.74,14.52S225.14,479.08,225,479s4.24-6.58,9.74-14.52S244.81,450.18,244.93,450.26Z" style="fill:#263238"></path><path d="M260.21,450.26c.11.09-4.25,6.58-9.75,14.52s-10.05,14.3-10.17,14.22,4.25-6.58,9.75-14.52S260.09,450.18,260.21,450.26Z" style="fill:#263238"></path><path d="M275.48,450.26c.12.09-4.24,6.58-9.74,14.52s-10.05,14.3-10.17,14.22,4.24-6.58,9.74-14.52S275.36,450.18,275.48,450.26Z" style="fill:#263238"></path><path d="M290.76,450.26c.11.09-4.25,6.58-9.75,14.52S271,479.08,270.84,479s4.25-6.58,9.75-14.52S290.64,450.18,290.76,450.26Z" style="fill:#263238"></path><path d="M306,450.26c.12.09-4.24,6.58-9.74,14.52s-10.05,14.3-10.17,14.22,4.24-6.58,9.74-14.52S305.91,450.18,306,450.26Z" style="fill:#263238"></path><rect x="236.35" y="437.87" width="83.49" height="12.39" style="fill:#263238"></rect><path d="M260.64,437.81a45.37,45.37,0,0,1-2.72,6.37,46.19,46.19,0,0,1-3.19,6.14,46.46,46.46,0,0,1,2.72-6.36A47.38,47.38,0,0,1,260.64,437.81Z" style="fill:#455a64"></path><path d="M273.73,437.81a45.37,45.37,0,0,1-2.72,6.37,46.19,46.19,0,0,1-3.19,6.14,46.46,46.46,0,0,1,2.72-6.36A46,46,0,0,1,273.73,437.81Z" style="fill:#455a64"></path><path d="M286.82,437.81a46.85,46.85,0,0,1-2.72,6.37,46.19,46.19,0,0,1-3.19,6.14,46.46,46.46,0,0,1,2.72-6.36A46,46,0,0,1,286.82,437.81Z" style="fill:#455a64"></path><path d="M299.91,437.81a46.85,46.85,0,0,1-2.72,6.37,46.19,46.19,0,0,1-3.19,6.14,46.46,46.46,0,0,1,2.72-6.36A46,46,0,0,1,299.91,437.81Z" style="fill:#455a64"></path><path d="M313,437.81a46.85,46.85,0,0,1-2.72,6.37,46.19,46.19,0,0,1-3.19,6.14,46.46,46.46,0,0,1,2.72-6.36A46,46,0,0,1,313,437.81Z" style="fill:#455a64"></path><path d="M249.41,437.81a46.85,46.85,0,0,1-2.72,6.37,46.19,46.19,0,0,1-3.19,6.14,46.46,46.46,0,0,1,2.72-6.36A46,46,0,0,1,249.41,437.81Z" style="fill:#455a64"></path><path d="M298.92,340l6.34,97.65c-5.53.36-11.15,2.16-16.55.55s-11-1.61-16.32-3.1L289,340.32Z" style="fill:#FF725E"></path><path d="M298.92,340l6.34,97.65c-5.53.36-11.15,2.16-16.55.55s-11-1.61-16.32-3.1L289,340.32Z" style="opacity:0.4"></path><path d="M289,340.32l6.41,98.52a98.74,98.74,0,0,1-32.93-3.42Z" style="fill:#FF725E"></path><path d="M304,419.55a58.4,58.4,0,0,1-4.41,6.49,60.3,60.3,0,0,1-4.82,6.17A117.2,117.2,0,0,1,304,419.55Z" style="fill:#263238"></path><path d="M303.16,403a60.13,60.13,0,0,1-4.41,6.49,57.94,57.94,0,0,1-4.83,6.17,61.82,61.82,0,0,1,4.41-6.48A58.76,58.76,0,0,1,303.16,403Z" style="fill:#263238"></path><path d="M302.28,386.45a56.82,56.82,0,0,1-4.4,6.48,57.5,57.5,0,0,1-4.83,6.18,58.87,58.87,0,0,1,4.41-6.48A61.18,61.18,0,0,1,302.28,386.45Z" style="fill:#263238"></path><path d="M301.41,369.9a58.46,58.46,0,0,1-4.4,6.48,60.65,60.65,0,0,1-4.83,6.18,57.86,57.86,0,0,1,4.4-6.48A60.36,60.36,0,0,1,301.41,369.9Z" style="fill:#263238"></path><path d="M300.54,353.35a58.87,58.87,0,0,1-4.41,6.48A57.5,57.5,0,0,1,291.3,366a60.63,60.63,0,0,1,4.41-6.48A58.76,58.76,0,0,1,300.54,353.35Z" style="fill:#263238"></path><path d="M297.33,340a65.06,65.06,0,0,1-6.9,9.46,33.94,33.94,0,0,1,3.24-4.88A33.05,33.05,0,0,1,297.33,340Z" style="fill:#263238"></path><path d="M293.75,427.42a9.36,9.36,0,0,1-2.8,1.11,13.73,13.73,0,0,1-16.47-8.9,12.65,12.65,0,0,1-.43-7.19,8.79,8.79,0,0,1,1.71-3.48,7.46,7.46,0,0,1,3.27-2.29,5.73,5.73,0,0,1,4,0,6.46,6.46,0,0,1,3,2.48,7.28,7.28,0,0,1,.73,7.06,9,9,0,0,1-4.76,4.42,10.45,10.45,0,0,1-5.64.7,12.84,12.84,0,0,1-4.43-1.55,15.94,15.94,0,0,1-2.89-2.05,19.18,19.18,0,0,1-1.58-1.58,4,4,0,0,1-.47-.61,5.85,5.85,0,0,1,.55.54c.37.35.89.89,1.63,1.5A14.85,14.85,0,0,0,276.4,421a10.14,10.14,0,0,0,5.42-.74,8.62,8.62,0,0,0,4.5-4.22,6.83,6.83,0,0,0-.72-6.58,6,6,0,0,0-2.76-2.28,5.18,5.18,0,0,0-3.64,0,6.88,6.88,0,0,0-3,2.13,8.33,8.33,0,0,0-1.62,3.26,12.27,12.27,0,0,0,.39,6.92,13.59,13.59,0,0,0,8,8.33,14.21,14.21,0,0,0,8,.53A20.72,20.72,0,0,0,293.75,427.42Z" style="fill:#fafafa"></path><path d="M291.69,384a25.42,25.42,0,0,1-2.75,1,48.75,48.75,0,0,0-12.4,6.37,24.54,24.54,0,0,1-2.38,1.67,12.57,12.57,0,0,1,2.16-2,38,38,0,0,1,5.95-3.8,37.61,37.61,0,0,1,6.56-2.62A11.93,11.93,0,0,1,291.69,384Z" style="fill:#fafafa"></path><path d="M290.88,361.34a11.49,11.49,0,0,1-9.63,5.43,24.89,24.89,0,0,0,5.26-1.93A24.24,24.24,0,0,0,290.88,361.34Z" style="fill:#fafafa"></path></g><g id="freepik--Screen--inject-86"><rect x="134.22" y="83.33" width="271.81" height="245.46" style="fill:#f5f5f5"></rect><path d="M406,328.79c0-1.87-.08-97.83-.22-245.46l.22.22-271.79,0h0l.26-.26c0,89.35,0,173.41,0,245.46l-.23-.23,271.81.23L134.22,329H134v-.23c0-72.05,0-156.11,0-245.46v-.26h.28l271.79,0h.23v.22C406.12,231,406,326.92,406,328.79Z" style="fill:#263238"></path><path d="M407.05,98.08c0,.14-61.08.26-136.41.26s-136.42-.12-136.42-.26,61.07-.26,136.42-.26S407.05,97.94,407.05,98.08Z" style="fill:#e0e0e0"></path><circle cx="141.42" cy="91.98" r="2.75" style="fill:#e0e0e0"></circle><circle cx="149.91" cy="91.98" r="2.75" style="fill:#e0e0e0"></circle><circle cx="158.4" cy="91.98" r="2.75" style="fill:#e0e0e0"></circle><path d="M363.87,289a7,7,0,1,1-7-7A7,7,0,0,1,363.87,289Z" style="fill:#FF725E"></path><path d="M363.87,308a7,7,0,1,1-7-7A7,7,0,0,1,363.87,308Z" style="fill:#455a64"></path><path d="M385,287.56a69.26,69.26,0,0,1-8.42.26,69.26,69.26,0,0,1-8.42-.26,66.91,66.91,0,0,1,8.42-.26A66.91,66.91,0,0,1,385,287.56Z" style="fill:#263238"></path><path d="M383.92,308.55a52.28,52.28,0,0,1-7.44.26,52.08,52.08,0,0,1-7.43-.26,106.44,106.44,0,0,1,14.87,0Z" style="fill:#263238"></path><path d="M264.32,215.44l-11.2-78.63A79.45,79.45,0,0,1,304,146.65c37.73,21.79,50.86,70.77,29.07,108.51S262.34,306,224.61,284.23Z" style="fill:#FF725E"></path><path d="M264.32,215.44l-11.2-78.63A79.45,79.45,0,0,1,304,146.65c37.73,21.79,50.86,70.77,29.07,108.51S262.34,306,224.61,284.23Z" style="opacity:0.30000000000000004"></path><path d="M249.74,212.56l-11.2-78.63a79.37,79.37,0,0,1,50.91,9.85c37.74,21.78,50.86,70.76,29.07,108.5S247.76,303.14,210,281.35Z" style="fill:#FF725E"></path><path d="M288.13,291.24c0,.06-2.37-.9-5.23-2.14s-5.17-2.28-5.15-2.34,2.36.91,5.23,2.15S288.15,291.19,288.13,291.24Z" style="fill:#263238"></path><path d="M275,294c0,.05-2-.74-4.38-1.78s-4.31-1.91-4.29-2,2,.74,4.38,1.77S275,294,275,294Z" style="fill:#263238"></path><path d="M301.94,285.38c0,.05-2.62-1-5.82-2.3s-5.76-2.44-5.74-2.49,2.63,1,5.82,2.3S302,285.33,301.94,285.38Z" style="fill:#263238"></path><path d="M314,278.21c0,.05-2.67-1.13-5.91-2.65s-5.84-2.78-5.82-2.84,2.67,1.14,5.91,2.65S314,278.16,314,278.21Z" style="fill:#263238"></path><path d="M322.9,268c0,.05-2.57-1.13-5.69-2.63s-5.62-2.77-5.59-2.82,2.57,1.13,5.68,2.63S322.92,267.94,322.9,268Z" style="fill:#263238"></path><path d="M332.53,260.22s-3.28-1.51-7.27-3.48-7.21-3.61-7.18-3.66,3.28,1.5,7.27,3.47S332.56,260.17,332.53,260.22Z" style="fill:#263238"></path><path d="M336,249.57a2.42,2.42,0,0,1-.54-.17l-1.43-.56c-1.2-.5-2.84-1.22-4.62-2.09s-3.35-1.73-4.48-2.38c-.56-.32-1-.59-1.32-.78a4.77,4.77,0,0,1-.47-.32,3.33,3.33,0,0,1,.51.25l1.35.72c1.14.62,2.73,1.45,4.5,2.32s3.4,1.61,4.59,2.14l1.4.62A4.28,4.28,0,0,1,336,249.57Z" style="fill:#263238"></path><path d="M339.85,240c0,.05-3-1.35-6.62-3.13s-6.55-3.27-6.53-3.32,3,1.35,6.63,3.13S339.88,239.91,339.85,240Z" style="fill:#263238"></path><path d="M342,228.83s-3-1.35-6.62-3.13-6.55-3.27-6.52-3.32,3,1.35,6.62,3.13S342.07,228.78,342,228.83Z" style="fill:#263238"></path><path d="M343.61,218.19c0,.05-3.22-1.46-7.13-3.38s-7.05-3.51-7-3.56,3.22,1.46,7.13,3.37S343.63,218.13,343.61,218.19Z" style="fill:#263238"></path><path d="M343.05,206.06c0,.05-3.47-1.69-7.68-3.9s-7.62-4-7.6-4.08,3.47,1.69,7.69,3.9S343.08,206,343.05,206.06Z" style="fill:#263238"></path><path d="M340.48,193.45c0,.05-3.73-1.83-8.28-4.21S324,184.9,324,184.85s3.74,1.83,8.29,4.21S340.51,193.4,340.48,193.45Z" style="fill:#263238"></path><path d="M334.58,178.66c0,.05-4.09-1.91-9.08-4.37s-9-4.51-9-4.56,4.09,1.9,9.08,4.37S334.61,178.61,334.58,178.66Z" style="fill:#263238"></path><path d="M327.77,167.35c0,.05-4.78-2.26-10.61-5.17s-10.56-5.3-10.53-5.36,4.78,2.27,10.62,5.17S327.8,167.3,327.77,167.35Z" style="fill:#263238"></path><path d="M311.5,151.55c0,.06-5-1.64-11.06-3.79s-11-3.93-11-4,5,1.64,11.06,3.79S311.52,151.5,311.5,151.55Z" style="fill:#263238"></path><path d="M327.82,195.74s-.3.06-.9.15l-1.11.16c-.43.09-.93.24-1.49.39a25.56,25.56,0,0,0-8.9,5c-1.75,1.39-3.6,3-5.62,4.86a74.21,74.21,0,0,1-6.85,5.62,24.3,24.3,0,0,1-20.64,3.86,22.29,22.29,0,0,1-10.74-6.34,20.1,20.1,0,0,1-3.68-5.62A16.16,16.16,0,0,1,266.5,197a13.51,13.51,0,0,1,2-6.9,16.11,16.11,0,0,1,5.32-5.19,18.36,18.36,0,0,1,7.23-2.52,18.8,18.8,0,0,1,7.82.84,25.41,25.41,0,0,1,12.76,9.8,38.71,38.71,0,0,1,6,15.81,66.24,66.24,0,0,1,.48,17.54,52.79,52.79,0,0,1-4.84,17.39,42.94,42.94,0,0,1-11,14.26,34.94,34.94,0,0,1-15.73,7.63,32,32,0,0,1-16.81-1.27,25.84,25.84,0,0,1-17.29-24.46,22.14,22.14,0,0,1,1.29-7.32,16.4,16.4,0,0,1,3.74-6.16,11.3,11.3,0,0,1,2.87-2.09,9.49,9.49,0,0,1,3.37-.91,10.63,10.63,0,0,1,6.43,1.82,13.4,13.4,0,0,1,2.48,2.14,12.35,12.35,0,0,1,1.79,2.67,14,14,0,0,1,1.29,6,19.8,19.8,0,0,1-3.54,10.77,24.81,24.81,0,0,1-7.31,7.06,24.39,24.39,0,0,1-8.2,3.32,24.09,24.09,0,0,1-7.43.35,24.83,24.83,0,0,1-9.75-3.15,20,20,0,0,1-3-2s.26.17.75.53a26.54,26.54,0,0,0,2.26,1.42,25.33,25.33,0,0,0,9.72,3,24,24,0,0,0,15.45-3.72,24.44,24.44,0,0,0,7.19-7,19.37,19.37,0,0,0,3.45-10.59,13.44,13.44,0,0,0-1.27-5.86,12.26,12.26,0,0,0-1.73-2.58,13.71,13.71,0,0,0-2.41-2.07,10.26,10.26,0,0,0-6.19-1.74,9,9,0,0,0-3.2.88,10.61,10.61,0,0,0-2.75,2,15.83,15.83,0,0,0-3.63,6,21.79,21.79,0,0,0-1.25,7.17,25.38,25.38,0,0,0,17,24,31.52,31.52,0,0,0,16.55,1.24,34.32,34.32,0,0,0,15.49-7.53,42.36,42.36,0,0,0,10.9-14.08,52.17,52.17,0,0,0,4.79-17.23,66.06,66.06,0,0,0-.46-17.4,38.38,38.38,0,0,0-5.89-15.61,24.87,24.87,0,0,0-12.5-9.62,18.2,18.2,0,0,0-7.62-.83,17.81,17.81,0,0,0-7,2.44,15.71,15.71,0,0,0-5.19,5,13.17,13.17,0,0,0-2,6.68,15.6,15.6,0,0,0,1.35,6.64,19.69,19.69,0,0,0,3.58,5.5,21.84,21.84,0,0,0,10.55,6.26,23.93,23.93,0,0,0,20.37-3.74,77.06,77.06,0,0,0,6.86-5.56c2-1.81,3.89-3.46,5.66-4.83a25.27,25.27,0,0,1,9-4.92c.57-.14,1.07-.29,1.51-.37l1.12-.13Z" style="fill:#fafafa"></path><path d="M297.78,148.51s-.06.09-.18.24l-.56.67c-.51.58-1.26,1.44-2.29,2.48a43.31,43.31,0,0,1-9.8,7.56,31.4,31.4,0,0,1-8,3.12,27.21,27.21,0,0,1-9.82.55,23.28,23.28,0,0,1-5.19-1.32,15.94,15.94,0,0,1-4.81-2.84,12.19,12.19,0,0,1-3.44-4.67,7.4,7.4,0,0,1,.06-5.94,7.81,7.81,0,0,1,4.48-3.92,8.24,8.24,0,0,1,5.79,0,9.22,9.22,0,0,1,4.3,3.6,10.58,10.58,0,0,1,1.71,5.09,12.33,12.33,0,0,1-3.52,9.06,15.58,15.58,0,0,1-7.37,4.33,21.75,21.75,0,0,1-7,.7,25.33,25.33,0,0,1-5.27-.85,23.56,23.56,0,0,1-3.19-1.11c-.35-.15-.62-.27-.79-.36a1.41,1.41,0,0,1-.27-.15,1.43,1.43,0,0,1,.29.1l.81.32a28.29,28.29,0,0,0,3.2,1,26.41,26.41,0,0,0,5.24.76,21.44,21.44,0,0,0,6.92-.77,15.31,15.31,0,0,0,7.16-4.26,12,12,0,0,0,3.35-8.74,10.12,10.12,0,0,0-1.65-4.85,8.71,8.71,0,0,0-4.06-3.39,7.8,7.8,0,0,0-9.62,3.64,7,7,0,0,0,0,5.53,11.81,11.81,0,0,0,3.29,4.47,18.73,18.73,0,0,0,9.73,4.07,26.9,26.9,0,0,0,9.67-.49,31.31,31.31,0,0,0,7.91-3,45.15,45.15,0,0,0,9.83-7.39c1.05-1,1.82-1.84,2.35-2.4l.6-.64C297.7,148.57,297.77,148.5,297.78,148.51Z" style="fill:#fafafa"></path><path d="M357.68,224.31a3.92,3.92,0,0,1-.05-.46c0-.32-.05-.76-.09-1.33-.07-1.2-.17-2.92-.3-5.13-.32-4.44-.76-10.89-2-18.76-.16-1-.33-2-.5-3l-.65-3.13c-.39-2.14-1.05-4.3-1.61-6.57A82,82,0,0,0,347,172c-4.72-9.42-12.42-18.36-21.87-25.95a106.73,106.73,0,0,0-14.92-9.53c-2.56-1.27-5.06-2.57-7.61-3.62s-5.05-2.06-7.5-3A134.9,134.9,0,0,0,268,123.27a118.6,118.6,0,0,0-18.81-1.14c-1.11,0-2.1.05-3,.11l-2.16.12-1.34.07h-.45s.15,0,.45-.06l1.33-.11,2.17-.18c.85-.08,1.84-.15,3-.15a113.5,113.5,0,0,1,18.86,1,132.51,132.51,0,0,1,27.23,6.58c2.47.94,5,1.84,7.54,3s5.07,2.34,7.65,3.62a106,106,0,0,1,15,9.57c9.51,7.63,17.25,16.64,22,26.14a82.63,82.63,0,0,1,5.43,14c.55,2.28,1.2,4.46,1.59,6.61.21,1.07.42,2.11.63,3.14s.33,2,.48,3c1.21,7.89,1.59,14.35,1.85,18.8.11,2.23.16,4,.2,5.14,0,.57,0,1,0,1.33S357.68,224.31,357.68,224.31Z" style="fill:#FF725E"></path><path d="M363.74,224.31a6.07,6.07,0,1,1-6.06-6.06A6.06,6.06,0,0,1,363.74,224.31Z" style="fill:#FF725E"></path><path d="M248.35,122.43a6.06,6.06,0,1,1-6.06-6.06A6.06,6.06,0,0,1,248.35,122.43Z" style="fill:#FF725E"></path><path d="M267.14,111.82c0,.14-6.48.26-14.48.26s-14.49-.12-14.49-.26,6.48-.26,14.49-.26S267.14,111.67,267.14,111.82Z" style="fill:#263238"></path><path d="M274.19,111.77a5.76,5.76,0,0,1-2.38.26,5.69,5.69,0,0,1-2.37-.26,5.69,5.69,0,0,1,2.37-.26A5.76,5.76,0,0,1,274.19,111.77Z" style="fill:#263238"></path><path d="M245.64,122.43a3.51,3.51,0,1,1-3.51-3.51A3.51,3.51,0,0,1,245.64,122.43Z" style="fill:#f5f5f5"></path><path d="M357.08,236.28a2.78,2.78,0,0,1-.08.42l-.28,1.23c-.13.54-.29,1.21-.47,2s-.41,1.7-.73,2.7-.65,2.12-1,3.34-.92,2.51-1.43,3.91-1.17,2.85-1.83,4.41-1.48,3.15-2.32,4.83-1.86,3.37-2.86,5.16c-.49.9-1.09,1.76-1.66,2.66s-1.16,1.82-1.78,2.73l-2,2.72c-.34.46-.66.94-1,1.39l-1.1,1.36c-.75.91-1.49,1.86-2.28,2.77l-2.47,2.73c-.81.95-1.73,1.8-2.63,2.7s-1.8,1.83-2.79,2.67l-2.95,2.62-3.15,2.51a89.24,89.24,0,0,1-29.65,15.17l-3.88,1.09-3.85.86c-1.26.31-2.54.48-3.79.7s-2.5.45-3.74.56l-3.65.41c-1.21.1-2.41.14-3.58.22l-1.75.1c-.58,0-1.16,0-1.73,0h-3.37c-1.1,0-2.19-.1-3.25-.15s-2.12-.07-3.13-.21c-2-.23-4-.35-5.86-.7s-3.63-.54-5.27-.94-3.23-.66-4.66-1.1-2.78-.75-4-1.13l-3.31-1.12c-1-.33-1.86-.67-2.61-1l-1.88-.78-1.16-.49-.39-.18a3.37,3.37,0,0,1,.41.13l1.18.44,1.9.74c.75.3,1.62.63,2.62.93l3.32,1.09c1.22.36,2.56.69,4,1.08s3,.69,4.64,1.05,3.42.62,5.26.91,3.81.44,5.84.66c1,.13,2.06.13,3.12.19s2.14.12,3.24.14l3.36,0c.56,0,1.14,0,1.71,0l1.75-.11c1.16-.08,2.35-.12,3.55-.23l3.64-.42c1.24-.11,2.47-.36,3.72-.56s2.51-.39,3.77-.71l3.83-.86,3.85-1.09a88.79,88.79,0,0,0,29.49-15.09l3.14-2.48c1-.88,2-1.75,2.93-2.6s1.88-1.77,2.78-2.65,1.82-1.75,2.63-2.68l2.47-2.71c.79-.91,1.52-1.85,2.27-2.75l1.1-1.35c.36-.46.69-.93,1-1.38l2-2.71c.63-.9,1.2-1.82,1.79-2.71s1.18-1.74,1.67-2.64c1-1.77,2.07-3.43,2.87-5.12s1.7-3.24,2.35-4.8,1.37-3,1.86-4.38,1-2.67,1.46-3.88.74-2.32,1.06-3.32.58-1.89.78-2.67.37-1.44.52-2l.33-1.21A2,2,0,0,1,357.08,236.28Z" style="fill:#e0e0e0"></path></g><g id="freepik--Plant--inject-86"><polygon points="398.31 382.1 404.32 421.57 439.2 421.57 447.3 382.67 398.31 382.1" style="fill:#FF725E"></polygon><path d="M442.42,407.4c0,.14-8.94.26-20,.26s-20-.12-20-.26,8.94-.26,20-.26S442.42,407.25,442.42,407.4Z" style="fill:#fafafa"></path><path d="M442.56,405.45c0,.15-9,.27-20.1.27s-20.1-.12-20.1-.27,9-.26,20.1-.26S442.56,405.31,442.56,405.45Z" style="fill:#fafafa"></path><path d="M442.49,403.26c0,.15-9,.26-20.1.26s-20.1-.11-20.1-.26,9-.26,20.1-.26S442.49,403.12,442.49,403.26Z" style="fill:#fafafa"></path><path d="M408.32,419.32a25.59,25.59,0,0,1-1.12-5,24.26,24.26,0,0,1-.61-5.05,49.94,49.94,0,0,1,1.73,10Z" style="fill:#fafafa"></path><path d="M410.7,418.9a74.09,74.09,0,0,1-.66-9.71,19.24,19.24,0,0,1,.69,4.83A19.69,19.69,0,0,1,410.7,418.9Z" style="fill:#fafafa"></path><path d="M415,418.89a33.8,33.8,0,0,1-1.17-10,33.12,33.12,0,0,1,.73,5A30.74,30.74,0,0,1,415,418.89Z" style="fill:#fafafa"></path><path d="M418.06,419.1a20.49,20.49,0,0,1-.54-5.05,20.7,20.7,0,0,1,.21-5.07A30.93,30.93,0,0,1,418,414,32.41,32.41,0,0,1,418.06,419.1Z" style="fill:#fafafa"></path><path d="M423.43,418.9a22.89,22.89,0,0,1-.42-4.8,21.83,21.83,0,0,1,.1-4.81,23,23,0,0,1,.42,4.8A21.83,21.83,0,0,1,423.43,418.9Z" style="fill:#fafafa"></path><path d="M427.36,419.1a24.32,24.32,0,0,1-.22-5,24,24,0,0,1,.3-4.95,24.32,24.32,0,0,1,.22,5A23.9,23.9,0,0,1,427.36,419.1Z" style="fill:#fafafa"></path><path d="M431,418.58a51.68,51.68,0,0,1,1-10.33,25.11,25.11,0,0,1-.24,5.19A26.79,26.79,0,0,1,431,418.58Z" style="fill:#fafafa"></path><path d="M435.79,418.06a14.49,14.49,0,0,1,.53-4.42,14.82,14.82,0,0,1,1.35-4.24,26.68,26.68,0,0,1-.84,4.35A28.22,28.22,0,0,1,435.79,418.06Z" style="fill:#fafafa"></path><path d="M432.43,304.23a4.86,4.86,0,0,1-.2.76c-.16.54-.38,1.25-.65,2.13s-.65,2.06-1,3.38-.83,2.82-1.25,4.5-.91,3.51-1.35,5.5-.89,4.11-1.34,6.35c-.83,4.5-1.59,9.47-2.13,14.72s-.75,10.29-.82,14.86c0,2.29,0,4.46.06,6.5s.14,3.92.24,5.65.23,3.29.33,4.66.22,2.55.33,3.51.17,1.67.22,2.22a4.57,4.57,0,0,1,0,.78,3.68,3.68,0,0,1-.14-.76c-.08-.56-.19-1.29-.32-2.21s-.29-2.14-.42-3.51-.31-2.93-.41-4.66-.25-3.63-.3-5.67-.1-4.22-.11-6.51c.05-4.59.27-9.63.78-14.91s1.32-10.25,2.18-14.76c.47-2.24.89-4.38,1.39-6.36s.95-3.82,1.42-5.49.93-3.17,1.33-4.49.77-2.45,1.1-3.36l.74-2.1A4.65,4.65,0,0,1,432.43,304.23Z" style="fill:#455a64"></path><path d="M426.13,328.67a13,13,0,0,1,5.42-6.85,3.13,3.13,0,0,1,2.87-.53c1.22.59,1.32,2.3,1,3.61a9.57,9.57,0,0,1-3.95,5.38,8.06,8.06,0,0,1-5.93,1.49" style="fill:#455a64"></path><path d="M424,345.17c.9-3.41,3.62-8.25,6.44-10.36a4.34,4.34,0,0,1,1.47-.78,1.71,1.71,0,0,1,1.56.34,2.39,2.39,0,0,1,.35,2.26,13.74,13.74,0,0,1-10.18,10.25" style="fill:#455a64"></path><path d="M423.43,359.69a20,20,0,0,1,6.49-8.17,3.13,3.13,0,0,1,2.27-.8c1.23.22,1.79,1.73,1.68,3-.22,2.57-2.18,4.63-4.21,6.23a26.07,26.07,0,0,1-6,3.09" style="fill:#455a64"></path><path d="M423.76,370.14a19.24,19.24,0,0,1,5.52-6.3,4.07,4.07,0,0,1,1.66-.74,1.69,1.69,0,0,1,1.63.62c.55.81,0,1.91-.57,2.7a15.72,15.72,0,0,1-7.89,5.78" style="fill:#455a64"></path><path d="M423.48,365.89a62.59,62.59,0,0,0-7.9-8.05c-.45-.38-1-.78-1.58-.59a1.17,1.17,0,0,0-.72,1.06,2.93,2.93,0,0,0,.3,1.32,15.35,15.35,0,0,0,10.18,8.56" style="fill:#455a64"></path><path d="M423.73,352.31l-6.21-7.57a7.64,7.64,0,0,0-2-1.92,2.57,2.57,0,0,0-2.65,0,2.51,2.51,0,0,0-.85,2.5,6.56,6.56,0,0,0,1.21,2.49,18.37,18.37,0,0,0,4.53,4.81c1.82,1.25,3.48,2.07,5.67,1.74" style="fill:#455a64"></path><path d="M424.6,337a21.67,21.67,0,0,0-6.25-9.38,3.61,3.61,0,0,0-1.63-.95,2.74,2.74,0,0,0-2.85,2,5.15,5.15,0,0,0,.57,4.11,10.88,10.88,0,0,0,2.92,3.09,25.25,25.25,0,0,0,6.91,3.73" style="fill:#455a64"></path><path d="M427.08,323.37c-.6-4.39-2.89-8-5.53-11.59-.56-.75-1.34-1.54-2.26-1.4a1.78,1.78,0,0,0-1.3,1.11,4.33,4.33,0,0,0-.25,1.75,13.55,13.55,0,0,0,8.8,12.11" style="fill:#455a64"></path><path d="M428.82,316.41a35.88,35.88,0,0,1-.23-6.79,12.17,12.17,0,0,1,2.25-6.32,5.29,5.29,0,0,1,2.26-1.8,2.84,2.84,0,0,1,2.76.37,3,3,0,0,1,.95,2.43,7.39,7.39,0,0,1-.7,2.6c-1.65,4-4.41,8.39-7.29,9.51" style="fill:#455a64"></path><path d="M401.76,321.64a1.84,1.84,0,0,1,.05.55c0,.42,0,.95,0,1.6,0,1.38.05,3.38.18,5.84s.35,5.4.73,8.65,1,6.78,1.72,10.47,1.7,7.16,2.63,10.29,1.92,5.9,2.8,8.21,1.64,4.16,2.19,5.42c.25.6.45,1.08.62,1.47a3.05,3.05,0,0,1,.18.53,2.15,2.15,0,0,1-.28-.48l-.7-1.43c-.61-1.25-1.42-3.08-2.35-5.38s-1.93-5.07-2.92-8.2-1.89-6.62-2.68-10.32-1.31-7.27-1.69-10.53-.56-6.2-.62-8.68-.08-4.48,0-5.87c0-.64.06-1.17.07-1.59A4.06,4.06,0,0,1,401.76,321.64Z" style="fill:#263238"></path><path d="M402.74,339.63A9.23,9.23,0,0,1,405,333.8a2.25,2.25,0,0,1,1.85-1c.95.14,1.39,1.28,1.42,2.25a6.84,6.84,0,0,1-1.53,4.51,5.72,5.72,0,0,1-3.71,2.29" style="fill:#263238"></path><path d="M404.85,351.32c-.12-2.51.68-6.4,2.15-8.44a3.05,3.05,0,0,1,.83-.85,1.22,1.22,0,0,1,1.14-.1,1.7,1.7,0,0,1,.72,1.46,9.78,9.78,0,0,1-4.72,9.17" style="fill:#263238"></path><path d="M407.57,361.33a14.22,14.22,0,0,1,2.67-7,2.25,2.25,0,0,1,1.37-1c.89-.11,1.59.79,1.78,1.67.41,1.8-.49,3.62-1.52,5.14a18.85,18.85,0,0,1-3.43,3.4" style="fill:#263238"></path><path d="M410,368.37a13.76,13.76,0,0,1,2.41-5.47,2.88,2.88,0,0,1,1-.87,1.22,1.22,0,0,1,1.24.07c.56.44.43,1.3.2,2a11.2,11.2,0,0,1-4.13,5.64" style="fill:#263238"></path><path d="M409,365.54a44.51,44.51,0,0,0-7.12-3.78,1.29,1.29,0,0,0-1.2-.07.85.85,0,0,0-.26.88,2,2,0,0,0,.48.84,11,11,0,0,0,8.78,3.64" style="fill:#263238"></path><path d="M406.19,356.24l-5.85-3.82a5.61,5.61,0,0,0-1.79-.87,1.83,1.83,0,0,0-1.81.55,1.79,1.79,0,0,0,0,1.88,4.79,4.79,0,0,0,1.36,1.44,13.49,13.49,0,0,0,4.12,2.3,5.4,5.4,0,0,0,4.23,0" style="fill:#263238"></path><path d="M403.49,345.64a15.48,15.48,0,0,0-6.28-5.05,2.62,2.62,0,0,0-1.31-.29,2,2,0,0,0-1.51,2,3.66,3.66,0,0,0,1.27,2.68,7.62,7.62,0,0,0,2.66,1.47,17.53,17.53,0,0,0,5.5,1.05" style="fill:#263238"></path><path d="M402.24,335.82c-1.35-2.86-3.69-4.86-6.26-6.71a1.88,1.88,0,0,0-1.84-.46,1.26,1.26,0,0,0-.64,1,2.82,2.82,0,0,0,.21,1.25,9.67,9.67,0,0,0,8.59,6.35" style="fill:#263238"></path><path d="M401.93,330.7a25.11,25.11,0,0,1-1.62-4.57,8.76,8.76,0,0,1,.17-4.79,3.8,3.8,0,0,1,1.15-1.71,2,2,0,0,1,2-.34,2.13,2.13,0,0,1,1.17,1.45,5.62,5.62,0,0,1,.09,1.92c-.27,3.07-1.2,6.66-2.92,8" style="fill:#263238"></path><path d="M445.87,321.25a2.05,2.05,0,0,1,.06.56c0,.42,0,.95.07,1.59.06,1.38.07,3.39,0,5.87s-.27,5.42-.62,8.68-.93,6.82-1.69,10.53S442,355.66,441,358.8s-2,5.9-2.91,8.2-1.74,4.13-2.35,5.38l-.7,1.43a2.15,2.15,0,0,1-.28.48,2.24,2.24,0,0,1,.18-.53c.16-.39.37-.87.62-1.47.55-1.26,1.3-3.12,2.18-5.43s1.85-5.08,2.8-8.2,1.85-6.6,2.64-10.29,1.31-7.24,1.72-10.48.62-6.17.73-8.64.18-4.47.18-5.85q0-1,0-1.59A3.16,3.16,0,0,1,445.87,321.25Z" style="fill:#455a64"></path><path d="M444.9,339.25a9.21,9.21,0,0,0-2.22-5.84,2.19,2.19,0,0,0-1.84-1c-.95.14-1.39,1.28-1.42,2.25A6.8,6.8,0,0,0,441,339.2a5.76,5.76,0,0,0,3.71,2.29" style="fill:#455a64"></path><path d="M442.79,350.93c.12-2.51-.69-6.39-2.15-8.43a3.2,3.2,0,0,0-.83-.85,1.22,1.22,0,0,0-1.14-.1,1.73,1.73,0,0,0-.73,1.46,9.83,9.83,0,0,0,4.73,9.17" style="fill:#455a64"></path><path d="M440.06,361a14.3,14.3,0,0,0-2.66-7,2.24,2.24,0,0,0-1.37-1c-.89-.11-1.59.79-1.79,1.67-.4,1.79.49,3.62,1.53,5.14a18.52,18.52,0,0,0,3.43,3.4" style="fill:#455a64"></path><path d="M437.59,368a13.66,13.66,0,0,0-2.41-5.48,2.86,2.86,0,0,0-1-.86,1.2,1.2,0,0,0-1.24.07c-.55.44-.43,1.3-.19,2a11.24,11.24,0,0,0,4.12,5.64" style="fill:#455a64"></path><path d="M438.69,365.16a43.72,43.72,0,0,1,7.12-3.78,1.29,1.29,0,0,1,1.2-.07.85.85,0,0,1,.26.88,2.06,2.06,0,0,1-.49.83,10.88,10.88,0,0,1-8.77,3.64" style="fill:#455a64"></path><path d="M441.44,355.85,447.3,352a5.14,5.14,0,0,1,1.79-.87,1.81,1.81,0,0,1,1.81.55,1.79,1.79,0,0,1,0,1.88,4.64,4.64,0,0,1-1.36,1.43,13.08,13.08,0,0,1-4.12,2.3,5.38,5.38,0,0,1-4.24,0" style="fill:#455a64"></path><path d="M444.15,345.25a15.58,15.58,0,0,1,6.27-5,2.55,2.55,0,0,1,1.32-.29,2,2,0,0,1,1.51,2,3.71,3.71,0,0,1-1.28,2.68,7.74,7.74,0,0,1-2.65,1.47,17.81,17.81,0,0,1-5.5,1" style="fill:#455a64"></path><path d="M445.4,335.43c1.35-2.86,3.69-4.85,6.26-6.7a1.91,1.91,0,0,1,1.84-.47,1.29,1.29,0,0,1,.64,1,3,3,0,0,1-.21,1.25,9.67,9.67,0,0,1-8.6,6.35" style="fill:#455a64"></path><path d="M445.71,330.32a25.89,25.89,0,0,0,1.62-4.57,8.66,8.66,0,0,0-.18-4.79,3.6,3.6,0,0,0-1.14-1.71,2,2,0,0,0-2-.35,2.19,2.19,0,0,0-1.17,1.46,5.38,5.38,0,0,0-.08,1.92c.27,3.06,1.2,6.66,2.92,8" style="fill:#455a64"></path><path d="M394.31,374.29v7.38a2.9,2.9,0,0,0,2.9,2.91h50.52a2.91,2.91,0,0,0,2.91-2.91v-7.38Z" style="fill:#FF725E"></path><rect x="391.73" y="390.25" width="4.58" height="88.93" rx="2.11" style="fill:#263238"></rect><rect x="448.35" y="390.25" width="4.58" height="88.93" rx="2.11" style="fill:#263238"></rect><rect x="420.88" y="390.25" width="4.58" height="88.93" rx="2.11" style="fill:#263238"></rect><rect x="396.45" y="420.66" width="52.05" height="1.82" style="fill:#263238"></rect><polygon points="398.69 384.58 399.11 386.93 445.72 390.25 446.9 384.58 398.69 384.58" style="opacity:0.4"></polygon></g><g id="freepik--Character--inject-86"><path d="M244,209.77l-43.75,70.34c-8.15-3.44-19.43-11.81-24.81-18-15.69-17.95-13.82-42.18-9.84-65.69Z" style="fill:#263238"></path><path d="M233.52,208l-41.11,68a79.4,79.4,0,0,1-37.2-81.23Z" style="fill:#455a64"></path><path d="M192,274a28,28,0,0,0,0-6,20.64,20.64,0,0,0-1.76-6.18A19.35,19.35,0,0,0,179,251.46a21.24,21.24,0,0,0-6.32-1.22,27.92,27.92,0,0,0-5.93.56s.13-.07.39-.16a11.7,11.7,0,0,1,1.16-.32,19,19,0,0,1,4.39-.45,20.39,20.39,0,0,1,13.38,5.23A20.41,20.41,0,0,1,192.41,268a19.24,19.24,0,0,1-.07,4.42c-.06.52-.17.91-.22,1.18S192,274,192,274Z" style="fill:#fafafa"></path><path d="M164.15,197.34a3.51,3.51,0,0,1,.55.51,11.66,11.66,0,0,1,1.36,1.68,14.71,14.71,0,0,1,2.35,7.56,15,15,0,0,1-.83,5.46,13.37,13.37,0,0,1-3.46,5.31,6,6,0,0,1-3.13,1.55,3.66,3.66,0,0,1-3.36-1.41,2.58,2.58,0,0,1-.47-1.91,3.1,3.1,0,0,1,1-1.74,4.43,4.43,0,0,1,3.77-.93,11.17,11.17,0,0,1,6.44,3.83,14.37,14.37,0,0,1,3.09,6.27,14.1,14.1,0,0,1-.05,6.34,17,17,0,0,1-2.09,5.1,21.52,21.52,0,0,1-5.33,5.89,18.15,18.15,0,0,1-1.79,1.22,3.54,3.54,0,0,1-.66.36,4.53,4.53,0,0,1,.61-.45c.4-.28,1-.7,1.71-1.29a22.22,22.22,0,0,0,5.14-5.92,16.61,16.61,0,0,0,2-5,13.63,13.63,0,0,0,0-6.13,13.87,13.87,0,0,0-3-6,10.7,10.7,0,0,0-6.13-3.64,3.86,3.86,0,0,0-3.33.8,2.49,2.49,0,0,0-.82,1.43,2,2,0,0,0,.38,1.53,3.14,3.14,0,0,0,2.88,1.22,5.46,5.46,0,0,0,2.87-1.42,12.85,12.85,0,0,0,3.37-5.1,14.6,14.6,0,0,0,.87-5.3,14.93,14.93,0,0,0-2.15-7.46C164.89,198.07,164.09,197.39,164.15,197.34Z" style="fill:#fafafa"></path><path d="M198.8,201.46a15.59,15.59,0,0,0-3.32,2.46,16.61,16.61,0,0,0-4.6,10.05,25.9,25.9,0,0,0,.41,7.75,20.77,20.77,0,0,0,3.22,8.23,9.65,9.65,0,0,0,3.54,3.1,7.13,7.13,0,0,0,4.78.55,8.4,8.4,0,0,0,4.35-2.52,7.64,7.64,0,0,0,1.39-2.18,6.73,6.73,0,0,0,.43-2.56,7.6,7.6,0,0,0-6.65-6.81,6.35,6.35,0,0,0-4.54,1.46,10.3,10.3,0,0,0-2.84,3.76,13.63,13.63,0,0,0-1.17,4.39,17.65,17.65,0,0,0,0,4.3,20.06,20.06,0,0,0,2.5,7.31,21,21,0,0,0,4,5,19.6,19.6,0,0,0,3.95,2.8,28.94,28.94,0,0,0,3.84,1.57l-.27-.05-.78-.21a7.72,7.72,0,0,1-1.24-.41,14.25,14.25,0,0,1-1.64-.72,19.48,19.48,0,0,1-4.06-2.76,21.19,21.19,0,0,1-4.11-5,20.31,20.31,0,0,1-2.61-7.43,18,18,0,0,1,0-4.41,13.91,13.91,0,0,1,1.2-4.54,10.58,10.58,0,0,1,3-4,6.83,6.83,0,0,1,4.89-1.58,6.94,6.94,0,0,1,2.59.74,8,8,0,0,1,2.21,1.59,7.65,7.65,0,0,1,2.33,5,7.3,7.3,0,0,1-.47,2.78,8,8,0,0,1-1.49,2.33,9,9,0,0,1-4.62,2.67,7.65,7.65,0,0,1-5.11-.6,10.23,10.23,0,0,1-3.71-3.27,21.13,21.13,0,0,1-3.26-8.43,26.21,26.21,0,0,1-.34-7.87,16.55,16.55,0,0,1,4.82-10.15,12.27,12.27,0,0,1,2.49-1.86,6.75,6.75,0,0,1,.72-.36A1.23,1.23,0,0,1,198.8,201.46Z" style="fill:#fafafa"></path><path d="M203,275.81a35.25,35.25,0,0,1-2-5.71,34.7,34.7,0,0,1-1.5-5.87,35.6,35.6,0,0,1,2,5.72A34.73,34.73,0,0,1,203,275.81Z" style="fill:#455a64"></path><path d="M208.21,267.6a34.48,34.48,0,0,1-2-5.72,34.48,34.48,0,0,1-1.5-5.86,36.42,36.42,0,0,1,2,5.71A37.17,37.17,0,0,1,208.21,267.6Z" style="fill:#455a64"></path><path d="M213.3,259.13a37.55,37.55,0,0,1-2.06-5.89,37.56,37.56,0,0,1-1.55-6.05,38.08,38.08,0,0,1,2.05,5.9A37.06,37.06,0,0,1,213.3,259.13Z" style="fill:#455a64"></path><path d="M218.45,250.85a37.47,37.47,0,0,1-2.07-5.91,37.5,37.5,0,0,1-1.56-6.07,37.72,37.72,0,0,1,2.06,5.92A39.64,39.64,0,0,1,218.45,250.85Z" style="fill:#455a64"></path><path d="M223.71,243a34.15,34.15,0,0,1-2-5.71,34.7,34.7,0,0,1-1.5-5.87,36.8,36.8,0,0,1,2,5.72A36.92,36.92,0,0,1,223.71,243Z" style="fill:#455a64"></path><path d="M228.74,234.3a40.09,40.09,0,0,1-2.11-6.07A42.12,42.12,0,0,1,225,222a37.9,37.9,0,0,1,2.11,6.07A39,39,0,0,1,228.74,234.3Z" style="fill:#455a64"></path><path d="M233.89,226a40.18,40.18,0,0,1-2.13-6.15,42.23,42.23,0,0,1-1.64-6.3,40,40,0,0,1,2.14,6.15A40.33,40.33,0,0,1,233.89,226Z" style="fill:#455a64"></path><path d="M239,217.75a22.92,22.92,0,0,1-1.66-4.58,22.8,22.8,0,0,1-1.15-4.72,24.14,24.14,0,0,1,1.65,4.57A23.26,23.26,0,0,1,239,217.75Z" style="fill:#455a64"></path><path d="M84.75,192.46c-5.48,2.43-28.34,31.73-30,50.76-1.2,14.18,26.39,12.64,26.39,12.64s1.88-58.2,1.06-57.38" style="fill:#FF725E"></path><path d="M79.51,231.87s-.09.16-.29.43-.49.64-.86,1.09c-.75.92-1.82,2.15-3,3.49s-2.33,2.52-3.16,3.35c-.42.42-.77.75-1,1a2.5,2.5,0,0,1-.39.33,2.5,2.5,0,0,1,.33-.39l1-1,3.12-3.39,3.06-3.44.92-1.05A3.15,3.15,0,0,1,79.51,231.87Z" style="fill:#263238"></path><path d="M78.59,227.52a7.31,7.31,0,0,0-1,.41,7.17,7.17,0,0,0-2.18,1.85c-.79.93-1.5,2.21-2.41,3.56a10.81,10.81,0,0,1-3.87,3.57,10.7,10.7,0,0,1-5.1,1.29,10.38,10.38,0,0,1-4.21-.93,10.26,10.26,0,0,1-2.47-1.53,6.5,6.5,0,0,1-.76-.75s.28.26.81.68a10.59,10.59,0,0,0,2.48,1.47,10.71,10.71,0,0,0,4.15.87,10.55,10.55,0,0,0,5-1.29,10.67,10.67,0,0,0,3.81-3.49,42.32,42.32,0,0,1,2.45-3.54,7,7,0,0,1,2.26-1.83A3.39,3.39,0,0,1,78.59,227.52Z" style="fill:#fff"></path><path d="M64.75,254a3.36,3.36,0,0,1-.46-.17,5,5,0,0,1-1.19-.76,7.11,7.11,0,0,1-2.28-4.54,18.46,18.46,0,0,1,1.1-7.56,40.47,40.47,0,0,1,4.24-8.37c3.58-5.62,7.2-10.45,9.17-14.35.53-.95.9-1.86,1.28-2.64s.57-1.5.78-2.07.27-1,.37-1.36.15-.46.15-.46,0,.16-.11.47-.2.83-.34,1.37-.44,1.28-.75,2.09-.72,1.71-1.25,2.67c-1.95,3.93-5.55,8.79-9.12,14.39a40.9,40.9,0,0,0-4.24,8.32A18.38,18.38,0,0,0,61,248.54a7,7,0,0,0,2.19,4.5A6.11,6.11,0,0,0,64.75,254Z" style="fill:#fff"></path><path d="M80.25,246.35a2.11,2.11,0,0,1-.43.62A4.11,4.11,0,0,1,78,248a9,9,0,0,1-3.05.32,14.28,14.28,0,0,0-3.7.21,11.39,11.39,0,0,0-5.79,3.25,12.24,12.24,0,0,0-1.28,1.6,7.35,7.35,0,0,1-.41.63,8.47,8.47,0,0,1,1.58-2.33,11.14,11.14,0,0,1,5.86-3.35,13.85,13.85,0,0,1,3.75-.2,9.25,9.25,0,0,0,3-.27,4.24,4.24,0,0,0,1.76-1A7.38,7.38,0,0,0,80.25,246.35Z" style="fill:#fff"></path><g style="opacity:0.30000000000000004"><path d="M81.18,255.86c-4.28-12.59-7.8-25.7-3.06-38.24C79.67,233.16,81.5,247.32,81.18,255.86Z"></path></g><path d="M121.36,236.66,63,289.52c-3-3.31-6.94-5.95-8.63-10.15s-4.48-7.72-6.21-11.83Z" style="fill:#263238"></path><path d="M116.2,230.56,57.34,283.9a79.7,79.7,0,0,1-8.11-10.62A78.86,78.86,0,0,1,43,261.45Z" style="fill:#455a64"></path><path d="M109,450.9l-1,17.89s17.84,7,18,10.38l-34.76-.74.45-27.94Z" style="fill:#FF725E"></path><path d="M97.23,467.06a1.42,1.42,0,0,0-1,1.6,1.37,1.37,0,0,0,1.58,1,1.49,1.49,0,0,0,1.06-1.7,1.4,1.4,0,0,0-1.75-.88" style="fill:#e0e0e0"></path><path d="M91.16,478.43l0-2.78,33.38,1.72s1.53.71,1.34,1.8Z" style="fill:#e0e0e0"></path><path d="M108.51,468.63c0,.17-.86.23-1.71.76s-1.3,1.23-1.46,1.16.12-1.05,1.16-1.67S108.55,468.47,108.51,468.63Z" style="fill:#263238"></path><path d="M112.12,470.21c0,.17-.7.44-1.29,1.15s-.78,1.46-1,1.45-.25-1,.5-1.84S112.12,470.05,112.12,470.21Z" style="fill:#263238"></path><path d="M114.1,474.62c-.15,0-.37-.82.08-1.74s1.26-1.27,1.33-1.13-.43.63-.8,1.39S114.27,474.61,114.1,474.62Z" style="fill:#263238"></path><path d="M108.29,464.53c-.07.15-.85-.1-1.81-.06s-1.71.33-1.8.19.65-.74,1.78-.78S108.38,464.39,108.29,464.53Z" style="fill:#263238"></path><path d="M108.43,460.91a3.3,3.3,0,0,1-1.74,0,8,8,0,0,1-1.81-.6,8.16,8.16,0,0,1-1-.55,2.3,2.3,0,0,1-.51-.42.73.73,0,0,1-.06-.91.93.93,0,0,1,.75-.37,2.4,2.4,0,0,1,.65.1,6.42,6.42,0,0,1,1.07.4,6.06,6.06,0,0,1,1.59,1.09c.79.76,1.05,1.4,1,1.43s-.46-.48-1.27-1.12a6.59,6.59,0,0,0-2.52-1.24c-.37-.1-.68-.11-.78.05s0,.09,0,.2a2.18,2.18,0,0,0,.38.31c.31.2.61.38.91.54a10.13,10.13,0,0,0,1.67.68A12.4,12.4,0,0,1,108.43,460.91Z" style="fill:#263238"></path><path d="M108.2,461.15a2.78,2.78,0,0,1-.42-1.69,5.47,5.47,0,0,1,.28-1.9,5.38,5.38,0,0,1,.47-1.05,1.41,1.41,0,0,1,1.12-.85.8.8,0,0,1,.72.5,2.55,2.55,0,0,1,.17.64,3.79,3.79,0,0,1,0,1.17,3.9,3.9,0,0,1-.78,1.78c-.7.89-1.41,1.08-1.42,1s.54-.4,1.08-1.26a4,4,0,0,0,.58-1.62,3.43,3.43,0,0,0,0-1c0-.37-.18-.67-.31-.63s-.48.26-.63.55a6.7,6.7,0,0,0-.45.94,6.05,6.05,0,0,0-.37,1.73C108.13,460.49,108.3,461.13,108.2,461.15Z" style="fill:#263238"></path><path d="M133.63,452.3l-3.33,17.6s16.78,9.3,16.48,12.61l-34.37-5.22,4.06-27.65Z" style="fill:#FF725E"></path><path d="M119.9,466.8a1.42,1.42,0,0,0-1.22,1.45,1.36,1.36,0,0,0,1.43,1.22,1.5,1.5,0,0,0,1.28-1.55,1.42,1.42,0,0,0-1.63-1.1" style="fill:#e0e0e0"></path><path d="M112.41,477.29l.4-2.75,32.88,6s1.43.9,1.09,1.95Z" style="fill:#e0e0e0"></path><path d="M130.88,469.81c0,.17-.88.12-1.79.53s-1.45,1.06-1.6,1,.26-1,1.36-1.51S130.94,469.67,130.88,469.81Z" style="fill:#263238"></path><path d="M134.26,471.85c0,.17-.76.35-1.43,1s-1,1.35-1.13,1.32-.13-1,.73-1.76S134.28,471.69,134.26,471.85Z" style="fill:#263238"></path><path d="M135.65,476.48c-.16,0-.26-.86.31-1.72s1.41-1.1,1.46-.94-.51.56-1,1.27S135.82,476.49,135.65,476.48Z" style="fill:#263238"></path><path d="M131.2,465.72c-.1.14-.83-.21-1.79-.29s-1.74.11-1.81-.05.74-.65,1.86-.54S131.3,465.6,131.2,465.72Z" style="fill:#263238"></path><path d="M131.8,462.15a3.17,3.17,0,0,1-1.72-.27,8.25,8.25,0,0,1-1.72-.82,7.88,7.88,0,0,1-.9-.68,2.12,2.12,0,0,1-.46-.48.74.74,0,0,1,.06-.91.91.91,0,0,1,.79-.27,2.13,2.13,0,0,1,.63.19,6.13,6.13,0,0,1,1,.53,6.28,6.28,0,0,1,1.43,1.28c.68.86.86,1.53.79,1.55s-.39-.54-1.11-1.27a6.38,6.38,0,0,0-1.4-1.1,7.47,7.47,0,0,0-.94-.46c-.35-.15-.66-.2-.78-.05s0,.08,0,.2a1.57,1.57,0,0,0,.34.35,7.05,7.05,0,0,0,.83.66,9.2,9.2,0,0,0,1.56.89A12.33,12.33,0,0,1,131.8,462.15Z" style="fill:#263238"></path><path d="M131.55,462.36a2.67,2.67,0,0,1-.2-1.73,5.43,5.43,0,0,1,.52-1.85,5.31,5.31,0,0,1,.59-1,1.44,1.44,0,0,1,1.23-.7.81.81,0,0,1,.65.59,2.28,2.28,0,0,1,.08.66,4,4,0,0,1-.17,1.16,4.08,4.08,0,0,1-1,1.66c-.81.79-1.54.88-1.54.83s.59-.33,1.23-1.11a4,4,0,0,0,.79-1.53,3.7,3.7,0,0,0,.12-1c0-.38-.09-.69-.23-.68s-.5.21-.69.48a6.4,6.4,0,0,0-.57.86,6.23,6.23,0,0,0-.59,1.67C131.56,461.69,131.64,462.35,131.55,462.36Z" style="fill:#263238"></path><path d="M98.53,145.16l-.14,46.47,19.94,1,.57-11.3s7.08,1.41,8.91-5.17c1.17-4.2.88-36.67.88-36.67Z" style="fill:#b78876"></path><path d="M79,289l-.1,4.83a68.54,68.54,0,0,0,2.26,18.91l2.2,8.32,5.38,139.45,25.77,1.5-1.22-168.11Z" style="fill:#263238"></path><path d="M88,291.17l0,5.92a20.79,20.79,0,0,0,10.67,18.12h0L119.3,372l-9.41,86.72,26.48,2.6L149.88,372c-1.36-4.35-16.47-80.82-16.47-80.82Z" style="fill:#263238"></path><path d="M133.53,370.21a47.66,47.66,0,0,1-6.92,1.56,48,48,0,0,1-7,1,48.1,48.1,0,0,1,6.92-1.55A48.89,48.89,0,0,1,133.53,370.21Z" style="fill:#455a64"></path><path d="M133.54,377.3a9.37,9.37,0,0,1-2.09-.53l-5-1.46a36.31,36.31,0,0,1-6.9-2.5,10.12,10.12,0,0,1,2.09.53l5,1.47A36.72,36.72,0,0,1,133.54,377.3Z" style="fill:#455a64"></path><path d="M109.89,458.71a2.55,2.55,0,0,1,0-.45c0-.31.07-.74.12-1.3.12-1.16.29-2.84.51-5,.48-4.36,1.16-10.64,2-18.39,1.73-15.55,4.13-37,6.78-60.79l0,.12-.39-1.08c-4.07-11.4-7.95-22.25-11.48-32.12-1.75-4.93-3.43-9.63-5-14A51.72,51.72,0,0,0,97.13,314c-2.23-3.26-4.69-5.89-6.48-8.5A17.19,17.19,0,0,1,87.53,298a23.74,23.74,0,0,1-.3-5.1,15.31,15.31,0,0,1,.17-1.77,3.8,3.8,0,0,1,0,.45q0,.45-.06,1.32a25.63,25.63,0,0,0,.4,5.07,17.21,17.21,0,0,0,3.15,7.29c1.8,2.58,4.28,5.18,6.55,8.47a51.44,51.44,0,0,1,5.47,11.77c1.57,4.38,3.26,9.07,5,14,3.53,9.87,7.43,20.71,11.51,32.1l.39,1.08,0,.06v.06c-2.71,23.77-5.16,45.23-6.94,60.78-.91,7.74-1.65,14-2.16,18.37-.26,2.14-.47,3.82-.61,5l-.17,1.29A4,4,0,0,1,109.89,458.71Z" style="fill:#455a64"></path><polygon points="112.41 470.67 110.95 476.67 112.41 476.75 113.32 471.08 112.41 470.67" style="opacity:0.4"></polygon><path d="M77.77,291.17h55.71l-2.25-46.94c-.37-9.22-.32-10.32-.54-18.84,0,0,8.67,10.49,15.48,17.84a13.9,13.9,0,0,0,16.13,3.09L198,221.43l-5.7-14.6-33.4,17.36c-1.48-.93-14.11-18.93-22.83-27.73a30.88,30.88,0,0,0-21-9.09,152.39,152.39,0,0,0-19.7.79A20.62,20.62,0,0,0,77,206.94c-.63,7.54,2.88,31.21,2.88,31.21l1.33,17.71Z" style="fill:#FF725E"></path><path d="M79.16,197.43l-.09.59-.27,1.68a26.27,26.27,0,0,0-.36,2.68c-.09,1.05-.27,2.24-.3,3.57A126.19,126.19,0,0,0,79,226.63c.87,8.06,1.89,15.33,2.18,20.64a53.4,53.4,0,0,1,0,8.59s0-.21,0-.6,0-1,.06-1.71c0-1.48,0-3.63-.19-6.27-.33-5.3-1.37-12.57-2.24-20.62A122.52,122.52,0,0,1,78,205.94c0-1.33.23-2.52.33-3.57s.26-2,.4-2.68S79,198.45,79,198,79.16,197.43,79.16,197.43Z" style="fill:#263238"></path><path d="M157.54,230a3.4,3.4,0,0,1,.12-.84c.1-.51.25-1.22.43-2s.36-1.49.5-2a4.23,4.23,0,0,1,.26-.81,3.3,3.3,0,0,1-.12.84c-.1.52-.25,1.23-.43,2s-.36,1.48-.5,2A4.23,4.23,0,0,1,157.54,230Z" style="fill:#263238"></path><path d="M160.79,230.45a23.62,23.62,0,0,1-.84-3.2,28.12,28.12,0,0,1-.64-3.26,26,26,0,0,1,.84,3.21A27.76,27.76,0,0,1,160.79,230.45Z" style="fill:#263238"></path><path d="M132.19,226.91s-.12-.1-.33-.31l-.94-.9c-.8-.79-2-1.94-3.35-3.4a56.22,56.22,0,0,1-4.56-5.44,31.55,31.55,0,0,1-4.14-7.62,21.36,21.36,0,0,1-1.37-8.54,17.52,17.52,0,0,1,1.54-6.9,10.06,10.06,0,0,1,3-3.69,9,9,0,0,1,1.08-.72,4.28,4.28,0,0,1,.4-.21s-.55.3-1.44,1a10.34,10.34,0,0,0-2.92,3.69,17.82,17.82,0,0,0-1.48,6.84,21.36,21.36,0,0,0,1.37,8.47c2.14,5.8,5.93,10.07,8.62,13,1.37,1.48,2.51,2.64,3.3,3.45l.91.93Z" style="fill:#263238"></path><path d="M139.11,200l-.51.45a9.9,9.9,0,0,1-1.64,1.07,15.24,15.24,0,0,1-7,1.65,40.78,40.78,0,0,1-10.52-1.68,55.2,55.2,0,0,0-6.15-1.26,21,21,0,0,0-6.7.07,13.68,13.68,0,0,0-3.23,1,26.14,26.14,0,0,0-2.86,1.68,19.06,19.06,0,0,1-2.81,1.57,7.75,7.75,0,0,1-3,.65,13.29,13.29,0,0,1-5.52-1.43c-1.62-.75-3.07-1.56-4.46-2.15a10.93,10.93,0,0,0-7-.87,6.22,6.22,0,0,0-1.8.71c-.39.23-.56.39-.57.38a3,3,0,0,1,.54-.41,6,6,0,0,1,1.81-.76,10.91,10.91,0,0,1,7,.81c1.41.59,2.87,1.39,4.49,2.14A13.2,13.2,0,0,0,94.7,205c4.19.12,7.15-4.31,11.9-4.94a21.39,21.39,0,0,1,6.77-.07,57.38,57.38,0,0,1,6.17,1.28A41.21,41.21,0,0,0,130,203a15.38,15.38,0,0,0,6.92-1.57,11.21,11.21,0,0,0,1.65-1Z" style="fill:#fff"></path><path d="M138.58,234.71l.32-.36a7,7,0,0,0,.84-1.07,9.25,9.25,0,0,0,1.45-4.71,16.84,16.84,0,0,0-1.42-7.21,42.28,42.28,0,0,0-4.7-7.76,48,48,0,0,1-4.83-7.74,18,18,0,0,1-1.3-3.78,14.68,14.68,0,0,1-.31-3.46,10.87,10.87,0,0,1,1.21-4.85,7.11,7.11,0,0,1,1-1.52,4.07,4.07,0,0,1-.27.39,9.1,9.1,0,0,0-.7,1.17,11.18,11.18,0,0,0-1.14,4.81,16,16,0,0,0,1.64,7.16,49.78,49.78,0,0,0,4.83,7.7,41.38,41.38,0,0,1,4.71,7.81,16.64,16.64,0,0,1,1.38,7.29,9.08,9.08,0,0,1-1.53,4.75A7,7,0,0,1,138.58,234.71Z" style="fill:#fff"></path><path d="M154.62,218.65a4.1,4.1,0,0,1-.3.93,6,6,0,0,1-1.65,2.11,9.34,9.34,0,0,1-3.52,1.82,21.39,21.39,0,0,1-4.83.62,29.66,29.66,0,0,0-4.81.43,14.93,14.93,0,0,0-3.68,1.36,10,10,0,0,0-2.19,1.49c-.47.42-.67.7-.69.69a4.45,4.45,0,0,1,.63-.75,9.56,9.56,0,0,1,2.18-1.56,14.45,14.45,0,0,1,3.71-1.41,28,28,0,0,1,4.84-.46,21.41,21.41,0,0,0,4.79-.6,9.31,9.31,0,0,0,3.48-1.74,6.44,6.44,0,0,0,1.67-2C154.52,219,154.6,218.64,154.62,218.65Z" style="fill:#fff"></path><path d="M168.55,241.77s.12-.29.3-.83a8.15,8.15,0,0,0,.39-2.34,12.21,12.21,0,0,0-.46-3.5,27.7,27.7,0,0,0-1.56-4.06c-.63-1.41-1.25-2.76-1.67-4a14.22,14.22,0,0,1-.73-3.5,8.57,8.57,0,0,1,.17-2.41,4.69,4.69,0,0,1,.25-.85s-.08.31-.18.86a9.54,9.54,0,0,0-.09,2.39,14.64,14.64,0,0,0,.76,3.45c.43,1.26,1.05,2.6,1.68,4a27.16,27.16,0,0,1,1.56,4.09,12.07,12.07,0,0,1,.42,3.55,7.89,7.89,0,0,1-.46,2.37A4.75,4.75,0,0,1,168.55,241.77Z" style="fill:#fff"></path><path d="M193.81,211.14l-.27.51c-.18.33-.47.81-.87,1.4a22.87,22.87,0,0,1-4.08,4.47,39.36,39.36,0,0,1-7.54,4.9c-3,1.56-6.45,3-10,4.61a45.7,45.7,0,0,0-9.43,5.55,23.62,23.62,0,0,0-5.82,6.74,16.39,16.39,0,0,0-2,5.66,12,12,0,0,0-.13,1.64l0,.57s0-.19,0-.57a12.84,12.84,0,0,1,.1-1.65,16.1,16.1,0,0,1,1.92-5.73,23.55,23.55,0,0,1,5.83-6.81,45.24,45.24,0,0,1,9.47-5.59c3.54-1.64,7-3.05,10-4.59a40.79,40.79,0,0,0,7.52-4.84,24,24,0,0,0,4.12-4.4c.4-.59.71-1,.89-1.38A5.36,5.36,0,0,1,193.81,211.14Z" style="fill:#fff"></path><path d="M190.41,226.45s0-.24,0-.67a9.44,9.44,0,0,0-.31-1.79,19.63,19.63,0,0,0-2.66-5.37c-.64-1-1.26-1.92-1.89-2.73a7,7,0,0,1-1.36-2.37,4.8,4.8,0,0,1-.09-1.84c0-.22.07-.38.09-.49a.69.69,0,0,1,0-.17,5.41,5.41,0,0,1-.06.67,5.23,5.23,0,0,0,.15,1.79,7,7,0,0,0,1.37,2.29,30.32,30.32,0,0,1,1.91,2.74,18.34,18.34,0,0,1,2.64,5.44,8.8,8.8,0,0,1,.24,1.82c0,.22,0,.39,0,.5S190.42,226.45,190.41,226.45Z" style="fill:#fff"></path><path d="M131.19,234.06a9.63,9.63,0,0,1-1.9,1.12,14.47,14.47,0,0,1-5.86,1.29,22.68,22.68,0,0,1-8.76-1.68c-3.16-1.19-6.41-3-9.88-4.72a35.51,35.51,0,0,0-10.25-3.61,17.23,17.23,0,0,0-4.74-.09,14,14,0,0,0-4,1.1,11.58,11.58,0,0,0-4.7,3.62,8.1,8.1,0,0,0-.52.78,5,5,0,0,0-.34.6c-.16.34-.26.51-.26.51s.07-.18.22-.53a4.82,4.82,0,0,1,.33-.61,6.1,6.1,0,0,1,.51-.8,11.37,11.37,0,0,1,4.7-3.71,14.6,14.6,0,0,1,4-1.14,17.5,17.5,0,0,1,4.78.08,35.34,35.34,0,0,1,10.32,3.62c3.48,1.73,6.72,3.53,9.86,4.72a22.82,22.82,0,0,0,8.68,1.72,14.76,14.76,0,0,0,5.84-1.22,10.91,10.91,0,0,0,1.44-.76C131,234.15,131.19,234.06,131.19,234.06Z" style="fill:#fff"></path><path d="M109.17,263.49s-.14-.24-.38-.7a11.87,11.87,0,0,1-.8-2.14,19.41,19.41,0,0,1-.17-8.33c.28-1.75.75-3.64,1.25-5.65a51.65,51.65,0,0,0,1.32-6.49,39.83,39.83,0,0,0-1.45-15c-1.39-5.21-3.3-10-4.83-14.42a74.41,74.41,0,0,1-3.34-12,15.1,15.1,0,0,1,.45-8.28,7.49,7.49,0,0,1,1.19-1.95c.35-.38.55-.56.55-.56a8,8,0,0,0-1.66,2.54,15.12,15.12,0,0,0-.38,8.23,75.79,75.79,0,0,0,3.37,11.93c1.54,4.41,3.46,9.2,4.85,14.42a39.8,39.8,0,0,1,1.44,15.09,53,53,0,0,1-1.34,6.51c-.51,2-1,3.89-1.28,5.63a19.73,19.73,0,0,0,.11,8.29,14.57,14.57,0,0,0,.75,2.14Z" style="fill:#fff"></path><path d="M111.09,291.22a1.37,1.37,0,0,1,0-.27c0-.22.06-.47.09-.74a23.7,23.7,0,0,0-1.64-11.59c-.68-1.64-1.54-3.1-2.22-4.49a16.52,16.52,0,0,1-1.45-3.84,8.58,8.58,0,0,1-.19-2.77,4.84,4.84,0,0,1,.19-1s-.07.35-.11,1a9.26,9.26,0,0,0,.25,2.72A17.08,17.08,0,0,0,107.5,274c.68,1.38,1.55,2.85,2.24,4.5a22.46,22.46,0,0,1,1.74,8.92A17.76,17.76,0,0,1,111.09,291.22Z" style="fill:#fff"></path><path d="M129,291.16s-.12-.21-.33-.63a11.64,11.64,0,0,1-.75-1.87,18.76,18.76,0,0,1-.65-7.38,35.42,35.42,0,0,1,.84-5.07c.43-1.8,1-3.7,1.53-5.7,1.09-4,2.27-8.5,1.56-13.26s-2.55-9-3.52-13a38.6,38.6,0,0,1-1-11,38.07,38.07,0,0,1,1.08-7.36c.43-1.7.77-2.61.77-2.61s-.05.24-.18.68-.3,1.1-.51,1.95a39,39,0,0,0,.08,18.25c1,4,2.82,8.26,3.54,13s-.48,9.38-1.58,13.34c-.56,2-1.12,3.89-1.55,5.69a36.81,36.81,0,0,0-.87,5,19.19,19.19,0,0,0,.58,7.34,14.51,14.51,0,0,0,.71,1.89C128.85,290.93,129,291.16,129,291.16Z" style="fill:#fff"></path><path d="M87,275.08a2.76,2.76,0,0,1-.11.64c-.08.41-.19,1-.28,1.74a24.81,24.81,0,0,0-.09,5.82A25.84,25.84,0,0,0,87.8,289c.26.7.48,1.26.65,1.64a2.92,2.92,0,0,1,.24.61,5.83,5.83,0,0,1-.31-.57c-.19-.38-.44-.93-.71-1.63a22.35,22.35,0,0,1-1.37-5.7,22.8,22.8,0,0,1,.14-5.86,15,15,0,0,1,.36-1.74A3.42,3.42,0,0,1,87,275.08Z" style="fill:#fff"></path><path d="M82.56,193.93l.18.11a3.31,3.31,0,0,1,.53.36,5.2,5.2,0,0,1,1.49,1.93,9.44,9.44,0,0,1,.7,3.8,19.27,19.27,0,0,1-.63,5.09c-.43,1.86-1,3.85-1.37,6.06a39.31,39.31,0,0,0-.44,7.09,82.39,82.39,0,0,0,2.36,16.13,156,156,0,0,1,3.12,16.05,42.93,42.93,0,0,1-.32,13.32,27.9,27.9,0,0,1-3,8.46,20.84,20.84,0,0,1-1.32,2.06l-.51.68s.16-.25.48-.71.76-1.15,1.28-2.07a28.47,28.47,0,0,0,3-8.44,43.35,43.35,0,0,0,.28-13.27,158.16,158.16,0,0,0-3.14-16,82.6,82.6,0,0,1-2.35-16.18,39.62,39.62,0,0,1,.47-7.12c.34-2.22,1-4.22,1.4-6.06a20,20,0,0,0,.66-5.06,9.68,9.68,0,0,0-.67-3.77,5.14,5.14,0,0,0-1.44-1.93C82.81,194.08,82.54,194,82.56,193.93Z" style="fill:#fff"></path><path d="M102.91,267.83l-.22-.12-.59-.37c-.5-.33-1.26-.76-2.21-1.25a27.52,27.52,0,0,0-8-2.58,27.81,27.81,0,0,0-8.37,0c-1.06.17-1.92.35-2.5.5l-.67.17-.24,0a19.8,19.8,0,0,1,3.39-.85A25.93,25.93,0,0,1,100,266,20.4,20.4,0,0,1,102.91,267.83Z" style="fill:#fff"></path><path d="M132.11,263.21l-.25.09-.72.23-2.66.81-3.95,1.18c-1.49.44-3.13.94-4.88,1.33a24.31,24.31,0,0,1-5,.66,15.57,15.57,0,0,1-4.11-.48,11.79,11.79,0,0,1-2.59-1,7,7,0,0,1-.85-.56s.31.19.89.48a11.93,11.93,0,0,0,2.59,1,15.8,15.8,0,0,0,4.07.44,24.69,24.69,0,0,0,5-.67c1.75-.39,3.38-.88,4.87-1.31l4-1.14,2.68-.75.73-.19A.91.91,0,0,1,132.11,263.21Z" style="fill:#fff"></path><path d="M118.88,248.15l-.17.45c-.14.35-.31.77-.52,1.27a18.38,18.38,0,0,1-.9,2c-.39.75-.78,1.64-1.35,2.54l-.86,1.44c-.3.5-.67,1-1,1.51-.68,1.05-1.54,2.08-2.42,3.19a45.34,45.34,0,0,1-14.3,11.35c-1.27.61-2.47,1.21-3.66,1.64-.58.22-1.14.47-1.69.65l-1.6.5c-1,.36-2,.54-2.78.75a19.09,19.09,0,0,1-2.13.43l-1.36.21c-.31.05-.47.06-.47.06l.47-.1,1.34-.25c.59-.1,1.31-.24,2.12-.46s1.76-.42,2.77-.78l1.58-.51c.55-.19,1.11-.44,1.69-.66,1.18-.44,2.37-1,3.64-1.65a49.27,49.27,0,0,0,7.68-4.94,49.71,49.71,0,0,0,6.55-6.36c.88-1.1,1.74-2.13,2.43-3.17.35-.52.72-1,1-1.5l.87-1.42c.58-.9,1-1.78,1.38-2.52s.7-1.41.93-2l.55-1.26C118.8,248.3,118.88,248.15,118.88,248.15Z" style="fill:#263238"></path><g style="opacity:0.30000000000000004"><path d="M88.65,275.05c-.44.12-.4-.83-.39-1.29a2.84,2.84,0,0,1,.9-1.91A9.05,9.05,0,0,1,93.28,270a31.5,31.5,0,0,0,7-2.95,61.2,61.2,0,0,0,8.63-6.43l6.21-5.2A44.86,44.86,0,0,1,88.65,275.05Z"></path></g><g style="opacity:0.30000000000000004"><path d="M121.13,213.8c3.77,11.85,6.68,24.29,10.46,36.14l-.9-24.55A58.68,58.68,0,0,1,121.13,213.8Z"></path></g><path d="M196.17,216.82l3.76-4s4.4.14,5.11-.71,6.93-7.62,6.93-7.62a7.66,7.66,0,0,0-2.57-2.12c-1.35-.7-1.13-.46-2.12-.94-1.81-.87-.34-1.76-1.93-2-.92-.15-2.94,1.49-3.73,2l-9.2,5.85Z" style="fill:#b78876"></path><path d="M195.82,205.45c-.13-.57,2.25-5,1.93-6.69s1.42-1.1,1.74,0,.75,3.56.75,3.56Z" style="fill:#b78876"></path><path d="M202.57,200.71s-1.52,1.09-3.45,2.34a39,39,0,0,1-3.57,2.17c0-.05,1.52-1.1,3.45-2.35S202.54,200.66,202.57,200.71Z" style="fill:#aa6550"></path><path d="M207.48,201.38a7.21,7.21,0,0,0-.77,0A3.4,3.4,0,0,0,205,202a7.6,7.6,0,0,0-1.34,1.3,3.45,3.45,0,0,1-.53.57,2.42,2.42,0,0,1,.42-.66,6.14,6.14,0,0,1,1.32-1.38,3.24,3.24,0,0,1,1.81-.63A1.3,1.3,0,0,1,207.48,201.38Z" style="fill:#aa6550"></path><path d="M210.12,202.81a4.87,4.87,0,0,1-.74-.26,1.75,1.75,0,0,0-1.71.21,24.77,24.77,0,0,0-2,1.79,2.32,2.32,0,0,1,.45-.65,7.91,7.91,0,0,1,1.4-1.31,1.76,1.76,0,0,1,1-.36,2.64,2.64,0,0,1,1.55.58Z" style="fill:#aa6550"></path><path d="M132.16,147c.55,4.41-5.62,7-5.62,7l-1.08,10.44a20.36,20.36,0,0,0-2.9,0c.52-4.9-5.79-3.94-6.43-.6s3,5.36,3,5.36c-2.53,3.88-3.55,5.92-7.14,9.55-3.88,3.93-6,4.25-10,4.13l-4.41-.2s-1.57-3.77-2.72-12.67c-.56-4.29-3.9-9.9-3-16.87,2.71-19.79,21.67-17.7,21.67-17.7C123.49,135.69,130.86,136.78,132.16,147Z" style="fill:#263238"></path></g></svg>